<?xml version="1.0" encoding="utf-8"?>
<!-- Generator: Adobe Illustrator 27.7.0, SVG Export Plug-In . SVG Version: 6.00 Build 0)  -->
<svg version="1.1" id="Layer_1" xmlns="http://www.w3.org/2000/svg" xmlns:xlink="http://www.w3.org/1999/xlink" x="0px" y="0px"
	 viewBox="0 0 1440 800" style="enable-background:new 0 0 1440 800;" xml:space="preserve">
<style type="text/css">
	.st0{opacity:0.37;}
	.st1{clip-path:url(#SVGID_00000062870381132377641070000017246867794477930136_);}
	
		.st2{fill:none;stroke:url(#SVGID_00000112613615916582795070000012886249921379849384_);stroke-width:0.72;stroke-miterlimit:10;stroke-opacity:0.24;}
	
		.st3{fill:none;stroke:url(#SVGID_00000041271606445845666560000015672577738830093743_);stroke-width:0.72;stroke-miterlimit:10;stroke-opacity:0.24;}
	
		.st4{fill:none;stroke:url(#SVGID_00000072238310654537044340000006489962625453958016_);stroke-width:0.72;stroke-miterlimit:10;stroke-opacity:0.24;}
	
		.st5{fill:none;stroke:url(#SVGID_00000041994896644862217370000004298902589583004805_);stroke-width:0.72;stroke-miterlimit:10;stroke-opacity:0.24;}
	
		.st6{fill:none;stroke:url(#SVGID_00000177451944504637113180000002961255493653457817_);stroke-width:0.72;stroke-miterlimit:10;stroke-opacity:0.24;}
	
		.st7{fill:none;stroke:url(#SVGID_00000181061096564153456260000000621307972157657013_);stroke-width:0.72;stroke-miterlimit:10;stroke-opacity:0.24;}
	
		.st8{fill:none;stroke:url(#SVGID_00000008120866548646384820000015936776759842864563_);stroke-width:0.72;stroke-miterlimit:10;stroke-opacity:0.24;}
	
		.st9{fill:none;stroke:url(#SVGID_00000025417774211317053070000015646448266718026935_);stroke-width:0.72;stroke-miterlimit:10;stroke-opacity:0.24;}
	
		.st10{fill:none;stroke:url(#SVGID_00000118394812246644383670000010426872998404970375_);stroke-width:0.72;stroke-miterlimit:10;stroke-opacity:0.24;}
	
		.st11{fill:none;stroke:url(#SVGID_00000020399333391149956380000007236172569692593595_);stroke-width:0.72;stroke-miterlimit:10;stroke-opacity:0.24;}
	
		.st12{fill:none;stroke:url(#SVGID_00000158003531370021155450000017736485140815625603_);stroke-width:0.72;stroke-miterlimit:10;stroke-opacity:0.24;}
	
		.st13{fill:none;stroke:url(#SVGID_00000182517282410598191360000010742885602358054321_);stroke-width:0.72;stroke-miterlimit:10;stroke-opacity:0.24;}
	
		.st14{fill:none;stroke:url(#SVGID_00000145017358267840172330000005353614786796606896_);stroke-width:0.72;stroke-miterlimit:10;stroke-opacity:0.24;}
	
		.st15{fill:none;stroke:url(#SVGID_00000150072893822902512170000003259820913868075185_);stroke-width:0.72;stroke-miterlimit:10;stroke-opacity:0.24;}
	
		.st16{fill:none;stroke:url(#SVGID_00000035505443051176427450000002711351986129143743_);stroke-width:0.72;stroke-miterlimit:10;stroke-opacity:0.24;}
	
		.st17{fill:none;stroke:url(#SVGID_00000004511480200724835100000003998494709205940893_);stroke-width:0.72;stroke-miterlimit:10;stroke-opacity:0.24;}
	
		.st18{fill:none;stroke:url(#SVGID_00000170984078042767849680000014573291308471038857_);stroke-width:0.72;stroke-miterlimit:10;stroke-opacity:0.24;}
	
		.st19{fill:none;stroke:url(#SVGID_00000173144463268666326420000012119394928656358032_);stroke-width:0.72;stroke-miterlimit:10;stroke-opacity:0.24;}
	
		.st20{fill:none;stroke:url(#SVGID_00000144302327191370547730000000593965498310863285_);stroke-width:0.72;stroke-miterlimit:10;stroke-opacity:0.24;}
	
		.st21{fill:none;stroke:url(#SVGID_00000152987133986187800250000015136778159428938630_);stroke-width:0.72;stroke-miterlimit:10;stroke-opacity:0.24;}
	
		.st22{fill:none;stroke:url(#SVGID_00000038411510843679477430000013192807933935470768_);stroke-width:0.72;stroke-miterlimit:10;stroke-opacity:0.24;}
	
		.st23{fill:none;stroke:url(#SVGID_00000008827691316788829040000008503405099391886993_);stroke-width:0.72;stroke-miterlimit:10;stroke-opacity:0.24;}
	
		.st24{fill:none;stroke:url(#SVGID_00000124122474226132706650000009953306580230091150_);stroke-width:0.72;stroke-miterlimit:10;stroke-opacity:0.24;}
	
		.st25{fill:none;stroke:url(#SVGID_00000147919726990483642620000002037982113411794106_);stroke-width:0.72;stroke-miterlimit:10;stroke-opacity:0.24;}
	
		.st26{fill:none;stroke:url(#SVGID_00000146490539381510885030000016530819087122499486_);stroke-width:0.72;stroke-miterlimit:10;stroke-opacity:0.24;}
	
		.st27{fill:none;stroke:url(#SVGID_00000168097144449667320170000017198886033525396650_);stroke-width:0.72;stroke-miterlimit:10;stroke-opacity:0.24;}
	
		.st28{fill:none;stroke:url(#SVGID_00000138569683153949726040000012715526979001107092_);stroke-width:0.72;stroke-miterlimit:10;stroke-opacity:0.24;}
	
		.st29{fill:none;stroke:url(#SVGID_00000029037137077421564190000016139389762492384925_);stroke-width:0.72;stroke-miterlimit:10;stroke-opacity:0.24;}
	
		.st30{fill:none;stroke:url(#SVGID_00000023260279213725062660000004528545804938625669_);stroke-width:0.72;stroke-miterlimit:10;stroke-opacity:0.24;}
	
		.st31{fill:none;stroke:url(#SVGID_00000149376069442573039160000011011747664302907835_);stroke-width:0.72;stroke-miterlimit:10;stroke-opacity:0.24;}
	
		.st32{fill:none;stroke:url(#SVGID_00000129192922426622163250000001151204479269021601_);stroke-width:0.72;stroke-miterlimit:10;stroke-opacity:0.24;}
	
		.st33{fill:none;stroke:url(#SVGID_00000131347105635232748100000009246447611545244303_);stroke-width:0.72;stroke-miterlimit:10;stroke-opacity:0.24;}
	
		.st34{fill:none;stroke:url(#SVGID_00000124153473091781885420000008920400300106320016_);stroke-width:0.72;stroke-miterlimit:10;stroke-opacity:0.24;}
	
		.st35{fill:none;stroke:url(#SVGID_00000135660527928657015370000000859692335792121240_);stroke-width:0.72;stroke-miterlimit:10;stroke-opacity:0.24;}
	
		.st36{fill:none;stroke:url(#SVGID_00000054959682752695492110000007997050666498910096_);stroke-width:0.72;stroke-miterlimit:10;stroke-opacity:0.24;}
</style>
<g class="st0">
	<defs>
		<rect id="SVGID_1_" y="0" class="st0" width="1440" height="1440"/>
	</defs>
	<clipPath id="SVGID_00000016763308955983676200000013704889315986327738_">
		<use xlink:href="#SVGID_1_"  style="overflow:visible;"/>
	</clipPath>
	<g style="clip-path:url(#SVGID_00000016763308955983676200000013704889315986327738_);">
		
			<linearGradient id="SVGID_00000011003140314612933170000014945290817070614189_" gradientUnits="userSpaceOnUse" x1="225.878" y1="968.5434" x2="270.778" y2="885.9648" gradientTransform="matrix(1 0 0 -1 0 799.8898)">
			<stop  offset="0" style="stop-color:#FFFFFF"/>
			<stop  offset="1" style="stop-color:#FFFFFF;stop-opacity:0.24"/>
		</linearGradient>
		
			<path style="fill:none;stroke:url(#SVGID_00000011003140314612933170000014945290817070614189_);stroke-width:0.72;stroke-miterlimit:10;stroke-opacity:0.24;" d="
			M-634.8,299.3c143.4-78,188.3,4.6,331.8-73.4c143.5-78,98.6-160.6,242-238.6c143.4-78,188.4,4.6,331.8-73.4
			c143.5-78,98.6-160.6,242-238.6c143.5-78,188.4,4.6,331.8-73.4c143.5-78,98.6-160.6,242-238.6"/>
		
			<linearGradient id="SVGID_00000000915271321232474930000007902339775482649220_" gradientUnits="userSpaceOnUse" x1="585.2665" y1="307.5651" x2="630.1666" y2="224.9861" gradientTransform="matrix(1 0 0 -1 0 799.8898)">
			<stop  offset="0" style="stop-color:#FFFFFF"/>
			<stop  offset="1" style="stop-color:#FFFFFF;stop-opacity:0.24"/>
		</linearGradient>
		
			<path style="fill:none;stroke:url(#SVGID_00000000915271321232474930000007902339775482649220_);stroke-width:0.72;stroke-miterlimit:10;stroke-opacity:0.24;" d="
			M-275.4,960.3c143.5-78,188.4,4.6,331.8-73.4c143.4-78,98.5-160.6,242-238.6s188.4,4.6,331.8-73.4s98.5-160.6,242-238.6
			c143.5-78,188.4,4.6,331.8-73.4c143.5-78,98.6-160.6,242-238.6"/>
		
			<linearGradient id="SVGID_00000028310873270822772410000002791230416206684332_" gradientUnits="userSpaceOnUse" x1="405.5684" y1="638.0485" x2="450.4684" y2="555.4695" gradientTransform="matrix(1 0 0 -1 0 799.8898)">
			<stop  offset="0" style="stop-color:#FFFFFF"/>
			<stop  offset="1" style="stop-color:#FFFFFF;stop-opacity:0.24"/>
		</linearGradient>
		
			<path style="fill:none;stroke:url(#SVGID_00000028310873270822772410000002791230416206684332_);stroke-width:0.72;stroke-miterlimit:10;stroke-opacity:0.24;" d="
			M-455.1,629.8c143.4-78,188.4,4.6,331.8-73.4s98.6-160.6,242-238.6c143.4-78,188.3,4.6,331.8-73.4c143.4-78,98.6-160.6,242-238.6
			s188.4,4.6,331.8-73.4c143.5-78,98.5-160.6,242-238.6"/>
		
			<linearGradient id="SVGID_00000111161873114540125210000011884573525719906952_" gradientUnits="userSpaceOnUse" x1="764.9584" y1="-22.9294" x2="809.9504" y2="-105.6764" gradientTransform="matrix(1 0 0 -1 0 799.8898)">
			<stop  offset="0" style="stop-color:#FFFFFF"/>
			<stop  offset="1" style="stop-color:#FFFFFF;stop-opacity:0.24"/>
		</linearGradient>
		
			<path style="fill:none;stroke:url(#SVGID_00000111161873114540125210000011884573525719906952_);stroke-width:0.72;stroke-miterlimit:10;stroke-opacity:0.24;" d="
			M-95.7,1290.8c143.5-78,188.4,4.8,331.9-73.2c143.4-78,98.5-160.8,241.9-238.7c143.4-78,188.4,4.8,331.9-73.2
			c143.5-78,98.5-160.7,241.9-238.7c143.5-78,188.4,4.8,331.9-73.3c143.5-78,98.5-160.7,241.9-238.7"/>
		
			<linearGradient id="SVGID_00000074433929073905830350000003594703327713098924_" gradientUnits="userSpaceOnUse" x1="315.6797" y1="803.3665" x2="360.6707" y2="720.6197" gradientTransform="matrix(1 0 0 -1 0 799.8898)">
			<stop  offset="0" style="stop-color:#FFFFFF"/>
			<stop  offset="1" style="stop-color:#FFFFFF;stop-opacity:0.24"/>
		</linearGradient>
		
			<path style="fill:none;stroke:url(#SVGID_00000074433929073905830350000003594703327713098924_);stroke-width:0.72;stroke-miterlimit:10;stroke-opacity:0.24;" d="
			M-545,464.5c143.4-78,188.4,4.8,331.9-73.2c143.5-78,98.5-160.7,241.9-238.7c143.4-78,188.4,4.8,331.9-73.2
			c143.4-78,98.5-160.7,241.9-238.7c143.5-78,188.4,4.8,331.9-73.3c143.5-78,98.5-160.7,241.9-238.7"/>
		
			<linearGradient id="SVGID_00000049931999046513786680000008877123122945853073_" gradientUnits="userSpaceOnUse" x1="675.1553" y1="142.247" x2="720.0553" y2="59.668" gradientTransform="matrix(1 0 0 -1 0 799.8898)">
			<stop  offset="0" style="stop-color:#FFFFFF"/>
			<stop  offset="1" style="stop-color:#FFFFFF;stop-opacity:0.24"/>
		</linearGradient>
		
			<path style="fill:none;stroke:url(#SVGID_00000049931999046513786680000008877123122945853073_);stroke-width:0.72;stroke-miterlimit:10;stroke-opacity:0.24;" d="
			M-185.5,1125.6c143.5-78,188.4,4.6,331.8-73.4c143.5-78,98.6-160.6,242-238.5c143.4-78,188.3,4.6,331.8-73.4
			c143.5-78,98.6-160.6,242-238.6c143.4-78,188.3,4.6,331.8-73.4c143.5-78,98.6-160.6,242-238.6"/>
		
			<linearGradient id="SVGID_00000096060453945069079590000002402155834032274872_" gradientUnits="userSpaceOnUse" x1="495.4576" y1="472.7201" x2="540.3576" y2="390.1411" gradientTransform="matrix(1 0 0 -1 0 799.8898)">
			<stop  offset="0" style="stop-color:#FFFFFF"/>
			<stop  offset="1" style="stop-color:#FFFFFF;stop-opacity:0.24"/>
		</linearGradient>
		
			<path style="fill:none;stroke:url(#SVGID_00000096060453945069079590000002402155834032274872_);stroke-width:0.72;stroke-miterlimit:10;stroke-opacity:0.24;" d="
			M-365.2,795.2c143.4-78,188.3,4.6,331.8-73.4s98.6-160.6,242-238.6c143.4-78,188.3,4.6,331.8-73.4s98.6-160.6,242-238.6
			c143.5-78,188.3,4.6,331.8-73.4c143.5-78,98.5-160.6,242-238.6"/>
		
			<linearGradient id="SVGID_00000120559518883776063870000009200074914293403264_" gradientUnits="userSpaceOnUse" x1="854.847" y1="-188.2366" x2="899.7469" y2="-270.8196" gradientTransform="matrix(1 0 0 -1 0 799.8898)">
			<stop  offset="0" style="stop-color:#FFFFFF"/>
			<stop  offset="1" style="stop-color:#FFFFFF;stop-opacity:0.24"/>
		</linearGradient>
		
			<path style="fill:none;stroke:url(#SVGID_00000120559518883776063870000009200074914293403264_);stroke-width:0.72;stroke-miterlimit:10;stroke-opacity:0.24;" d="
			M-5.9,1456.1c143.5-78,188.4,4.6,331.8-73.4c143.4-78,98.5-160.6,242-238.6c143.4-78,188.4,4.6,331.8-73.4
			c143.5-78,98.5-160.6,242-238.6c143.5-78,188.4,4.6,331.8-73.4c143.5-78,98.5-160.6,242-238.6"/>
		
			<linearGradient id="SVGID_00000170255866100983218810000013748122505707874749_" gradientUnits="userSpaceOnUse" x1="270.7804" y1="885.9487" x2="315.6804" y2="803.3696" gradientTransform="matrix(1 0 0 -1 0 799.8898)">
			<stop  offset="0" style="stop-color:#FFFFFF"/>
			<stop  offset="1" style="stop-color:#FFFFFF;stop-opacity:0.24"/>
		</linearGradient>
		
			<path style="fill:none;stroke:url(#SVGID_00000170255866100983218810000013748122505707874749_);stroke-width:0.72;stroke-miterlimit:10;stroke-opacity:0.24;" d="
			M-589.9,381.9c143.4-78,188.3,4.6,331.8-73.4c143.4-78,98.5-160.6,242-238.6C127.2-8,172.2,74.5,315.6-3.5
			c143.5-78,98.6-160.6,242-238.6c143.5-78,188.4,4.6,331.8-73.4c143.5-78,98.6-160.6,242-238.6"/>
		
			<linearGradient id="SVGID_00000154392710959941740340000011809127794481838208_" gradientUnits="userSpaceOnUse" x1="630.1588" y1="224.9817" x2="675.1498" y2="142.2347" gradientTransform="matrix(1 0 0 -1 0 799.8898)">
			<stop  offset="0" style="stop-color:#FFFFFF"/>
			<stop  offset="1" style="stop-color:#FFFFFF;stop-opacity:0.24"/>
		</linearGradient>
		
			<path style="fill:none;stroke:url(#SVGID_00000154392710959941740340000011809127794481838208_);stroke-width:0.72;stroke-miterlimit:10;stroke-opacity:0.24;" d="
			M-230.5,1042.9c143.5-78,188.4,4.8,331.9-73.2c143.4-78,98.5-160.7,241.9-238.7s188.4,4.8,331.9-73.2
			c143.5-78,98.5-160.7,241.9-238.7c143.5-78,188.4,4.8,331.9-73.3c143.5-78,98.5-160.7,241.9-238.7"/>
		
			<linearGradient id="SVGID_00000155114170050474481430000015955046086924103333_" gradientUnits="userSpaceOnUse" x1="450.4709" y1="555.4647" x2="495.4619" y2="472.7177" gradientTransform="matrix(1 0 0 -1 0 799.8898)">
			<stop  offset="0" style="stop-color:#FFFFFF"/>
			<stop  offset="1" style="stop-color:#FFFFFF;stop-opacity:0.24"/>
		</linearGradient>
		
			<path style="fill:none;stroke:url(#SVGID_00000155114170050474481430000015955046086924103333_);stroke-width:0.72;stroke-miterlimit:10;stroke-opacity:0.24;" d="
			M-410.2,712.4c143.5-78,188.4,4.7,331.9-73.2c143.5-78,98.5-160.7,241.9-238.7c143.4-78,188.4,4.8,331.9-73.2
			c143.4-78,98.5-160.7,241.9-238.7c143.5-78,188.4,4.7,331.9-73.3c143.5-78,98.4-160.7,241.9-238.7"/>
		
			<linearGradient id="SVGID_00000130633111212737762650000013424187861511182005_" gradientUnits="userSpaceOnUse" x1="809.9403" y1="-105.6771" x2="854.8403" y2="-188.2561" gradientTransform="matrix(1 0 0 -1 0 799.8898)">
			<stop  offset="0" style="stop-color:#FFFFFF"/>
			<stop  offset="1" style="stop-color:#FFFFFF;stop-opacity:0.24"/>
		</linearGradient>
		
			<path style="fill:none;stroke:url(#SVGID_00000130633111212737762650000013424187861511182005_);stroke-width:0.72;stroke-miterlimit:10;stroke-opacity:0.24;" d="
			M-50.8,1373.6c143.5-78,188.4,4.6,331.8-73.4c143.5-78,98.6-160.6,242-238.6c143.4-78,188.3,4.6,331.8-73.4
			c143.4-78,98.5-160.6,242-238.6c143.4-78,188.3,4.6,331.8-73.4c143.5-78,98.5-160.6,242-238.6"/>
		
			<linearGradient id="SVGID_00000096777851109783507620000008497216345628967085_" gradientUnits="userSpaceOnUse" x1="360.6696" y1="720.6202" x2="405.5696" y2="638.0416" gradientTransform="matrix(1 0 0 -1 0 799.8898)">
			<stop  offset="0" style="stop-color:#FFFFFF"/>
			<stop  offset="1" style="stop-color:#FFFFFF;stop-opacity:0.24"/>
		</linearGradient>
		
			<path style="fill:none;stroke:url(#SVGID_00000096777851109783507620000008497216345628967085_);stroke-width:0.72;stroke-miterlimit:10;stroke-opacity:0.24;" d="
			M-500,547.3c143.5-78,188.4,4.6,331.8-73.4c143.5-78,98.6-160.6,242-238.6c143.4-78,188.4,4.6,331.8-73.4
			c143.5-78,98.6-160.6,242-238.6c143.5-78,188.4,4.6,331.8-73.4c143.5-78,98.5-160.6,242-238.6"/>
		
			<linearGradient id="SVGID_00000134209626506297565370000015241471720708923533_" gradientUnits="userSpaceOnUse" x1="720.0475" y1="59.6641" x2="764.9476" y2="-22.9149" gradientTransform="matrix(1 0 0 -1 0 799.8898)">
			<stop  offset="0" style="stop-color:#FFFFFF"/>
			<stop  offset="1" style="stop-color:#FFFFFF;stop-opacity:0.24"/>
		</linearGradient>
		
			<path style="fill:none;stroke:url(#SVGID_00000134209626506297565370000015241471720708923533_);stroke-width:0.72;stroke-miterlimit:10;stroke-opacity:0.24;" d="
			M-140.7,1208.2c143.4-78,188.4,4.6,331.8-73.4c143.5-78,98.6-160.6,242-238.5c143.4-78,188.4,4.6,331.8-73.4s98.5-160.6,242-238.6
			c143.5-78,188.4,4.6,331.8-73.4c143.5-78,98.6-160.6,242-238.6"/>
		
			<linearGradient id="SVGID_00000021814884268515036020000002595951150698580109_" gradientUnits="userSpaceOnUse" x1="967.1815" y1="-394.8705" x2="1012.0795" y2="-477.4504" gradientTransform="matrix(1 0 0 -1 0 799.8898)">
			<stop  offset="0" style="stop-color:#FFFFFF"/>
			<stop  offset="1" style="stop-color:#FFFFFF;stop-opacity:0.24"/>
		</linearGradient>
		
			<path style="fill:none;stroke:url(#SVGID_00000021814884268515036020000002595951150698580109_);stroke-width:0.72;stroke-miterlimit:10;stroke-opacity:0.24;" d="
			M106.5,1662.7c143.5-78,188.4,4.6,331.8-73.4c143.5-78,98.5-160.6,242-238.5c143.4-78,188.4,4.6,331.8-73.4
			c143.5-78,98.5-160.6,242-238.6c143.4-78,188.3,4.6,331.8-73.4c143.5-78,98.6-160.6,242-238.6"/>
		
			<linearGradient id="SVGID_00000028322866400098943750000013081261680502762931_" gradientUnits="userSpaceOnUse" x1="540.3602" y1="390.1469" x2="585.2603" y2="307.5678" gradientTransform="matrix(1 0 0 -1 0 799.8898)">
			<stop  offset="0" style="stop-color:#FFFFFF"/>
			<stop  offset="1" style="stop-color:#FFFFFF;stop-opacity:0.24"/>
		</linearGradient>
		
			<path style="fill:none;stroke:url(#SVGID_00000028322866400098943750000013081261680502762931_);stroke-width:0.72;stroke-miterlimit:10;stroke-opacity:0.24;" d="
			M-320.3,877.7c143.4-78,188.4,4.6,331.8-73.4c143.5-78,98.6-160.6,242-238.6c143.4-78,188.3,4.6,331.8-73.4
			c143.5-78,98.5-160.6,242-238.6c143.5-78,188.3,4.6,331.8-73.4c143.5-78,98.5-160.6,242-238.6"/>
		
			<linearGradient id="SVGID_00000136411883440734491720000005119188297935614600_" gradientUnits="userSpaceOnUse" x1="899.7391" y1="-270.8301" x2="944.639" y2="-353.4102" gradientTransform="matrix(1 0 0 -1 0 799.8898)">
			<stop  offset="0" style="stop-color:#FFFFFF"/>
			<stop  offset="1" style="stop-color:#FFFFFF;stop-opacity:0.24"/>
		</linearGradient>
		
			<path style="fill:none;stroke:url(#SVGID_00000136411883440734491720000005119188297935614600_);stroke-width:0.72;stroke-miterlimit:10;stroke-opacity:0.24;" d="
			M39,1538.7c143.4-78,188.3,4.6,331.8-73.4c143.5-78,98.5-160.6,242-238.6c143.4-78,188.3,4.6,331.8-73.4
			c143.5-78,98.6-160.6,242-238.6s188.3,4.6,331.8-73.4c143.5-78,98.6-160.6,242-238.6"/>
		
			<linearGradient id="SVGID_00000112624919074480826870000016984917180594192769_" gradientUnits="userSpaceOnUse" x1="248.3262" y1="927.2415" x2="293.2262" y2="844.6625" gradientTransform="matrix(1 0 0 -1 0 799.8898)">
			<stop  offset="0" style="stop-color:#FFFFFF"/>
			<stop  offset="1" style="stop-color:#FFFFFF;stop-opacity:0.24"/>
		</linearGradient>
		
			<path style="fill:none;stroke:url(#SVGID_00000112624919074480826870000016984917180594192769_);stroke-width:0.72;stroke-miterlimit:10;stroke-opacity:0.24;" d="
			M-612.4,340.6c143.5-78,188.4,4.6,331.8-73.4c143.4-78,98.5-160.6,242-238.6c143.4-78,188.4,4.6,331.8-73.4
			c143.5-78,98.5-160.6,242-238.6c143.4-78,188.3,4.6,331.8-73.4c143.5-78,98.5-160.6,242-238.6"/>
		
			<linearGradient id="SVGID_00000129889762226427848140000005408439162043214474_" gradientUnits="userSpaceOnUse" x1="607.7103" y1="266.2725" x2="652.7023" y2="183.5255" gradientTransform="matrix(1 0 0 -1 0 799.8898)">
			<stop  offset="0" style="stop-color:#FFFFFF"/>
			<stop  offset="1" style="stop-color:#FFFFFF;stop-opacity:0.24"/>
		</linearGradient>
		
			<path style="fill:none;stroke:url(#SVGID_00000129889762226427848140000005408439162043214474_);stroke-width:0.72;stroke-miterlimit:10;stroke-opacity:0.24;" d="
			M-253,1001.6c143.5-78,188.4,4.8,331.9-73.2c143.5-78,98.5-160.7,241.9-238.7c143.4-78,188.4,4.7,331.9-73.2
			c143.5-78,98.5-160.7,241.9-238.7s188.4,4.7,331.9-73.3c143.5-78,98.5-160.7,241.9-238.7"/>
		
			<linearGradient id="SVGID_00000046340534211112444730000012225398557997212570_" gradientUnits="userSpaceOnUse" x1="428.0168" y1="596.7573" x2="472.9167" y2="514.1782" gradientTransform="matrix(1 0 0 -1 0 799.8898)">
			<stop  offset="0" style="stop-color:#FFFFFF"/>
			<stop  offset="1" style="stop-color:#FFFFFF;stop-opacity:0.24"/>
		</linearGradient>
		
			<path style="fill:none;stroke:url(#SVGID_00000046340534211112444730000012225398557997212570_);stroke-width:0.72;stroke-miterlimit:10;stroke-opacity:0.24;" d="
			M-432.7,671.1c143.5-78,188.4,4.6,331.8-73.4c143.5-78,98.6-160.6,242-238.6c143.4-78,188.4,4.6,331.8-73.4s98.5-160.6,242-238.6
			c143.5-78,188.4,4.6,331.8-73.4c143.5-78,98.6-160.6,242-238.6"/>
		
			<linearGradient id="SVGID_00000179641172435206823170000009488979646521524127_" gradientUnits="userSpaceOnUse" x1="787.4024" y1="-64.2225" x2="832.3934" y2="-146.9685" gradientTransform="matrix(1 0 0 -1 0 799.8898)">
			<stop  offset="0" style="stop-color:#FFFFFF"/>
			<stop  offset="1" style="stop-color:#FFFFFF;stop-opacity:0.24"/>
		</linearGradient>
		
			<path style="fill:none;stroke:url(#SVGID_00000179641172435206823170000009488979646521524127_);stroke-width:0.72;stroke-miterlimit:10;stroke-opacity:0.24;" d="
			M-73.3,1332.1c143.5-78,188.4,4.8,331.9-73.2c143.5-78,98.5-160.8,241.9-238.7c143.4-78,188.4,4.8,331.9-73.2
			c143.4-78,98.5-160.7,241.9-238.7c143.4-78,188.4,4.7,331.9-73.3c143.5-78,98.5-160.7,241.9-238.7"/>
		
			<linearGradient id="SVGID_00000027596763482002472130000008821224066263380374_" gradientUnits="userSpaceOnUse" x1="338.221" y1="761.9109" x2="383.121" y2="679.3318" gradientTransform="matrix(1 0 0 -1 0 799.8898)">
			<stop  offset="0" style="stop-color:#FFFFFF"/>
			<stop  offset="1" style="stop-color:#FFFFFF;stop-opacity:0.24"/>
		</linearGradient>
		
			<path style="fill:none;stroke:url(#SVGID_00000027596763482002472130000008821224066263380374_);stroke-width:0.72;stroke-miterlimit:10;stroke-opacity:0.24;" d="
			M-522.5,506c143.5-78,188.4,4.6,331.8-73.4c143.5-78,98.6-160.6,242-238.6s188.4,4.6,331.8-73.4c143.4-78,98.5-160.6,242-238.6
			c143.5-78,188.4,4.6,331.8-73.4c143.5-78,98.5-160.6,242-238.6"/>
		
			<linearGradient id="SVGID_00000150080580586953043800000016034281224147842434_" gradientUnits="userSpaceOnUse" x1="697.5994" y1="100.9326" x2="742.4995" y2="18.3535" gradientTransform="matrix(1 0 0 -1 0 799.8898)">
			<stop  offset="0" style="stop-color:#FFFFFF"/>
			<stop  offset="1" style="stop-color:#FFFFFF;stop-opacity:0.24"/>
		</linearGradient>
		
			<path style="fill:none;stroke:url(#SVGID_00000150080580586953043800000016034281224147842434_);stroke-width:0.72;stroke-miterlimit:10;stroke-opacity:0.24;" d="
			M-163.1,1166.9c143.5-78,188.4,4.6,331.8-73.4c143.4-78,98.5-160.6,242-238.5c143.4-78,188.4,4.6,331.8-73.4S841,621,984.5,543
			c143.5-78,188.4,4.6,331.8-73.4c143.5-78,98.5-160.6,242-238.6"/>
		
			<linearGradient id="SVGID_00000140723107532450741010000008081069312794995374_" gradientUnits="userSpaceOnUse" x1="944.6389" y1="-353.4124" x2="989.6299" y2="-436.1624" gradientTransform="matrix(1 0 0 -1 0 799.8898)">
			<stop  offset="0" style="stop-color:#FFFFFF"/>
			<stop  offset="1" style="stop-color:#FFFFFF;stop-opacity:0.24"/>
		</linearGradient>
		
			<path style="fill:none;stroke:url(#SVGID_00000140723107532450741010000008081069312794995374_);stroke-width:0.72;stroke-miterlimit:10;stroke-opacity:0.24;" d="
			M83.9,1621.3c143.5-78,188.4,4.8,331.9-73.2c143.5-78,98.5-160.7,241.9-238.7c143.4-78,188.4,4.8,331.9-73.2
			c143.4-78,98.5-160.7,241.9-238.7c143.4-78,188.4,4.7,331.9-73.3c143.5-78,98.5-160.7,241.9-238.7"/>
		
			<linearGradient id="SVGID_00000146457312287734582190000011807058039073930419_" gradientUnits="userSpaceOnUse" x1="517.916" y1="431.4289" x2="562.817" y2="348.8499" gradientTransform="matrix(1 0 0 -1 0 799.8898)">
			<stop  offset="0" style="stop-color:#FFFFFF"/>
			<stop  offset="1" style="stop-color:#FFFFFF;stop-opacity:0.24"/>
		</linearGradient>
		
			<path style="fill:none;stroke:url(#SVGID_00000146457312287734582190000011807058039073930419_);stroke-width:0.72;stroke-miterlimit:10;stroke-opacity:0.24;" d="
			M-342.8,836.4c143.4-78,188.3,4.6,331.8-73.4s98.6-160.6,242-238.6c143.4-78,188.3,4.6,331.8-73.4c143.5-78,98.5-160.6,242-238.6
			c143.5-78,188.4,4.6,331.8-73.4c143.5-78,98.6-160.6,242-238.6"/>
		
			<linearGradient id="SVGID_00000116196742217125970010000010232565336289535409_" gradientUnits="userSpaceOnUse" x1="877.291" y1="-229.5402" x2="922.191" y2="-312.1202" gradientTransform="matrix(1 0 0 -1 0 799.8898)">
			<stop  offset="0" style="stop-color:#FFFFFF"/>
			<stop  offset="1" style="stop-color:#FFFFFF;stop-opacity:0.24"/>
		</linearGradient>
		
			<path style="fill:none;stroke:url(#SVGID_00000116196742217125970010000010232565336289535409_);stroke-width:0.72;stroke-miterlimit:10;stroke-opacity:0.24;" d="
			M16.6,1497.4c143.5-78,188.4,4.6,331.8-73.4c143.5-78,98.6-160.6,242-238.6c143.4-78,188.4,4.6,331.8-73.4s98.5-160.6,242-238.6
			c143.4-78,188.3,4.6,331.8-73.4c143.5-78,98.6-160.6,242-238.6"/>
		
			<linearGradient id="SVGID_00000032618386623627987330000015435662282126596760_" gradientUnits="userSpaceOnUse" x1="293.2273" y1="844.6582" x2="338.2183" y2="761.9113" gradientTransform="matrix(1 0 0 -1 0 799.8898)">
			<stop  offset="0" style="stop-color:#FFFFFF"/>
			<stop  offset="1" style="stop-color:#FFFFFF;stop-opacity:0.24"/>
		</linearGradient>
		
			<path style="fill:none;stroke:url(#SVGID_00000032618386623627987330000015435662282126596760_);stroke-width:0.72;stroke-miterlimit:10;stroke-opacity:0.24;" d="
			M-567.5,423.2C-424,345.2-379,428-235.6,350c143.5-78,98.5-160.7,241.9-238.7c143.4-78,188.4,4.7,331.9-73.2
			c143.5-78,98.5-160.7,241.9-238.7S768.5-196,912-274c143.5-78,98.5-160.7,241.9-238.7"/>
		
			<linearGradient id="SVGID_00000107565815774895336650000008170997420317239938_" gradientUnits="userSpaceOnUse" x1="652.7069" y1="183.5268" x2="697.6069" y2="100.9478" gradientTransform="matrix(1 0 0 -1 0 799.8898)">
			<stop  offset="0" style="stop-color:#FFFFFF"/>
			<stop  offset="1" style="stop-color:#FFFFFF;stop-opacity:0.24"/>
		</linearGradient>
		
			<path style="fill:none;stroke:url(#SVGID_00000107565815774895336650000008170997420317239938_);stroke-width:0.72;stroke-miterlimit:10;stroke-opacity:0.24;" d="
			M-208,1084.3c143.5-78,188.4,4.6,331.8-73.4c143.5-78,98.6-160.6,242-238.5S554.1,777,697.6,699c143.5-78,98.6-160.6,242-238.6
			c143.5-78,188.4,4.6,331.8-73.4s98.5-160.6,242-238.6"/>
		
			<linearGradient id="SVGID_00000125602604163380577960000000310404111807521198_" gradientUnits="userSpaceOnUse" x1="472.9186" y1="514.1741" x2="517.9106" y2="431.4272" gradientTransform="matrix(1 0 0 -1 0 799.8898)">
			<stop  offset="0" style="stop-color:#FFFFFF"/>
			<stop  offset="1" style="stop-color:#FFFFFF;stop-opacity:0.24"/>
		</linearGradient>
		
			<path style="fill:none;stroke:url(#SVGID_00000125602604163380577960000000310404111807521198_);stroke-width:0.72;stroke-miterlimit:10;stroke-opacity:0.24;" d="
			M-387.8,753.7c143.4-78,188.4,4.8,331.9-73.2c143.5-78,98.5-160.7,241.9-238.7c143.4-78,188.4,4.7,331.9-73.2
			c143.5-78,98.5-160.7,241.9-238.7c143.5-78,188.4,4.7,331.9-73.3c143.5-78,98.5-160.7,241.9-238.7"/>
		
			<linearGradient id="SVGID_00000045590674177520116590000002737230469382505392_" gradientUnits="userSpaceOnUse" x1="832.3916" y1="-146.9689" x2="877.2916" y2="-229.5509" gradientTransform="matrix(1 0 0 -1 0 799.8898)">
			<stop  offset="0" style="stop-color:#FFFFFF"/>
			<stop  offset="1" style="stop-color:#FFFFFF;stop-opacity:0.24"/>
		</linearGradient>
		
			<path style="fill:none;stroke:url(#SVGID_00000045590674177520116590000002737230469382505392_);stroke-width:0.72;stroke-miterlimit:10;stroke-opacity:0.24;" d="
			M-28.3,1414.8c143.5-78,188.4,4.6,331.8-73.4c143.4-78,98.5-160.6,242-238.6c143.4-78,188.4,4.6,331.8-73.4
			c143.4-78,98.5-160.6,242-238.6c143.4-78,188.3,4.6,331.8-73.4c143.5-78,98.6-160.6,242-238.6"/>
		
			<linearGradient id="SVGID_00000093154721390904663480000008882673141584017292_" gradientUnits="userSpaceOnUse" x1="383.118" y1="679.3398" x2="428.018" y2="596.7608" gradientTransform="matrix(1 0 0 -1 0 799.8898)">
			<stop  offset="0" style="stop-color:#FFFFFF"/>
			<stop  offset="1" style="stop-color:#FFFFFF;stop-opacity:0.24"/>
		</linearGradient>
		
			<path style="fill:none;stroke:url(#SVGID_00000093154721390904663480000008882673141584017292_);stroke-width:0.72;stroke-miterlimit:10;stroke-opacity:0.24;" d="
			M-477.6,588.5c143.5-78,188.4,4.6,331.8-73.4c143.4-78,98.5-160.6,242-238.6c143.4-78,188.4,4.6,331.8-73.4
			c143.5-78,98.5-160.6,242-238.6c143.5-78,188.4,4.6,331.8-73.4c143.5-78,98.5-160.6,242-238.6"/>
		
			<linearGradient id="SVGID_00000090252998313928945930000017706464641105802880_" gradientUnits="userSpaceOnUse" x1="742.5061" y1="18.373" x2="787.4061" y2="-64.206" gradientTransform="matrix(1 0 0 -1 0 799.8898)">
			<stop  offset="0" style="stop-color:#FFFFFF"/>
			<stop  offset="1" style="stop-color:#FFFFFF;stop-opacity:0.24"/>
		</linearGradient>
		
			<path style="fill:none;stroke:url(#SVGID_00000090252998313928945930000017706464641105802880_);stroke-width:0.72;stroke-miterlimit:10;stroke-opacity:0.24;" d="
			M-118.2,1249.5c143.4-78,188.4,4.6,331.8-73.4c143.5-78,98.6-160.6,242-238.6c143.4-78,188.4,4.6,331.8-73.4s98.6-160.6,242-238.6
			c143.5-78,188.3,4.6,331.8-73.4c143.5-78,98.6-160.6,242-238.6"/>
		
			<linearGradient id="SVGID_00000171721928384901770120000017265477285616638128_" gradientUnits="userSpaceOnUse" x1="989.6396" y1="-436.1599" x2="1034.5406" y2="-518.7398" gradientTransform="matrix(1 0 0 -1 0 799.8898)">
			<stop  offset="0" style="stop-color:#FFFFFF"/>
			<stop  offset="1" style="stop-color:#FFFFFF;stop-opacity:0.24"/>
		</linearGradient>
		
			<path style="fill:none;stroke:url(#SVGID_00000171721928384901770120000017265477285616638128_);stroke-width:0.72;stroke-miterlimit:10;stroke-opacity:0.24;" d="
			M128.9,1704c143.4-78,188.3,4.6,331.8-73.4s98.6-160.6,242-238.6c143.4-78,188.4,4.6,331.8-73.4c143.4-78,98.6-160.6,242-238.6
			s188.3,4.6,331.8-73.4c143.5-78,98.6-160.6,242-238.6"/>
		
			<linearGradient id="SVGID_00000045620753249167258910000008908330087570583196_" gradientUnits="userSpaceOnUse" x1="562.8074" y1="348.8561" x2="607.7074" y2="266.2771" gradientTransform="matrix(1 0 0 -1 0 799.8898)">
			<stop  offset="0" style="stop-color:#FFFFFF"/>
			<stop  offset="1" style="stop-color:#FFFFFF;stop-opacity:0.24"/>
		</linearGradient>
		
			<path style="fill:none;stroke:url(#SVGID_00000045620753249167258910000008908330087570583196_);stroke-width:0.72;stroke-miterlimit:10;stroke-opacity:0.24;" d="
			M-297.9,919c143.5-78,188.4,4.6,331.8-73.4c143.4-78,98.5-160.6,242-238.6s188.4,4.6,331.8-73.4c143.5-78,98.5-160.6,242-238.6
			s188.4,4.6,331.8-73.4s98.6-160.6,242-238.6"/>
		
			<linearGradient id="SVGID_00000082350955922667082180000017769456844240263597_" gradientUnits="userSpaceOnUse" x1="922.1949" y1="-312.1208" x2="967.186" y2="-394.8708" gradientTransform="matrix(1 0 0 -1 0 799.8898)">
			<stop  offset="0" style="stop-color:#FFFFFF"/>
			<stop  offset="1" style="stop-color:#FFFFFF;stop-opacity:0.24"/>
		</linearGradient>
		
			<path style="fill:none;stroke:url(#SVGID_00000082350955922667082180000017769456844240263597_);stroke-width:0.72;stroke-miterlimit:10;stroke-opacity:0.24;" d="
			M61.5,1580c143.4-78,188.4,4.8,331.9-73.2S491.8,1346,635.3,1268c143.4-78,188.4,4.8,331.9-73.2c143.5-78,98.5-160.7,241.9-238.7
			c143.5-78,188.4,4.7,331.9-73.3c143.5-78,98.5-160.7,241.9-238.7"/>
	</g>
</g>
</svg>
