<?xml version="1.0" encoding="utf-8"?>
<!-- Generator: Adobe Illustrator 22.0.1, SVG Export Plug-In . SVG Version: 6.00 Build 0)  -->
<svg version="1.1" id="Layer_1" xmlns="http://www.w3.org/2000/svg" xmlns:xlink="http://www.w3.org/1999/xlink" x="0px" y="0px"
	 viewBox="0 0 331.6 117.3" style="enable-background:new 0 0 331.6 117.3;" xml:space="preserve">
<style type="text/css">
	.st0{fill:#070909;}
	.st1{fill:#DC3831;}
</style>
<g>
	<path class="st0" d="M105.8,32h-0.3c-2.2,0-3.6-2.4-4.2-3.5L95.6,16c-2.7-5.7-7.5-9.3-12.8-9.3H69.2v35.7h11.3V17.1h0.3
		c2.5,0,4.1,2.7,4.4,3.5l6.1,12.5c2.6,5.8,7.7,9.3,13.5,9.3h11.4V6.7h-10.5V32L105.8,32z"/>
	<path class="st0" d="M242.8,7.5l-13.5,25.9L214.9,7.5h-71.6v7.8h5.9c4.2,0,6.3,2.1,6.3,5.3v7.6c0,3.5-1.9,5.4-6.3,5.4h-5.9v8.7h7.3
		c10.4,0,15.3-6.2,15.3-16.3v-3.9c0-1.1,0-4-0.9-6.9h16.6v27h10.5v-27h15.3l15.1,27h13.5l18.4-34.9H242.8L242.8,7.5z M143.3,7.5
		h-22.7v34.9h22.7v-8.7h-12.2V15.4h12.2V7.5L143.3,7.5z"/>
	<path class="st1" d="M124.9,24.8c0,3.6-2.9,6.5-6.5,6.5c-3.6,0-6.5-3-6.5-6.5s2.9-6.7,6.5-6.7C122,18.2,124.9,21.2,124.9,24.8
		L124.9,24.8z"/>
	<polygon class="st0" points="223.5,46.8 223.5,61.6 268.7,61.6 228.9,106.9 251,106.9 290.6,60.8 290.6,59.2 290.6,46.8 	"/>
	<polygon class="st0" points="222.7,62.5 205.4,62.5 195,74.6 184.6,62.5 167.2,62.5 186.3,84.7 167.2,106.9 184.6,106.9 195,94.8 
		205.4,106.9 222.7,106.9 203.7,84.7 	"/>
	<path class="st0" d="M177.3,81.6l-10.5,0.1V51v-4.2h-16.7H146l-42.8,26.4v8.7l0,0v13.7l47.1-0.7v12.1h16.6V95.6l10.5-0.2V81.6z
		 M115.7,81.9l34.5-20.8v20.6L115.7,81.9z"/>
	<g>
		<path class="st0" d="M41.4,106.9c23.3,0,46.4,0,68.8,0c0-4.3,0-8.7,0-13.1c-17,0-34.1,0-51.4,0c-0.5-3.7,1.4-6.3,5.1-6.6
			c7.1-0.7,14.4-1.1,21.6-1.8c4.7-0.4,9.4-0.8,14-1.5c7.1-1.1,11.2-6,11.3-13.2c0.1-3.6,0.1-7.1,0.1-10.7c0-5.3-2.6-9.2-7.6-11.2
			c-3.5-1.4-7.1-1.9-10.8-1.9c-9.9-0.1-20-0.1-29.9,0c-4.2,0-8.3,0.5-12.2,1.9c-3.2,1.1-5.7,3.1-7.1,6.3c-2.1,4.5-1.9,9.4-1.7,14.3
			c5.8,0,11.4,0,17.1,0c0-0.5,0-1,0-1.3c0.1-4.1,1.8-6.2,5.8-7.1c1.1-0.3,2.4-0.4,3.6-0.4c6.2,0,12.4-0.1,18.6,0
			c1.5,0,3,0.3,4.4,0.8c2,0.6,2.6,1.7,2.6,3.7c0,0.8,0,1.1,0,1.9c0,1.8-0.7,3-2.4,3.5c-1.5,0.5-3.1,0.9-4.6,1
			c-10.3,0.9-20.6,1.7-30.9,2.5c-3.5,0.3-6.8,1.2-9.7,3.3c-2.7,1.9-4.5,4.5-4.6,7.9C41.3,92.4,41.4,99.6,41.4,106.9z"/>
		<path class="st0" d="M40.7,106.9c0-7.1-0.1-14.2,0-21.2c0.1-3.3,1.9-5.8,4.7-7.7c2.9-2,6.3-2.9,9.8-3.2
			c10.4-0.8,20.8-1.6,31.2-2.5c1.6-0.2,3.2-0.5,4.7-0.9c1.8-0.5,2.4-1.6,2.5-3.4c0-0.8,0-2,0-2.8c0-2.1-0.6-3.1-2.6-3.7
			c-1.4-0.4-2.9-0.7-4.3-0.8c-6.3,0-12.4,0-18.6,0c-1.2,0-2.4,0.2-3.6,0.4c-4,0.9-5.7,3-5.7,7.1c0,0.4,0,0.7,0,1.2
			c-5.6,0-11.3,0-17,0c-0.1-4.8-0.3-9.6,1.7-14.2c1.4-3.1,3.8-5.1,7-6.3c3.9-1.4,8.1-1.9,12.2-1.9c9.9-0.1,19.9-0.1,29.8,0
			c3.6,0,7.3,0.5,10.8,1.9c4.9,2,7.6,5.9,7.6,11.1c0,3.6,0,7.1-0.1,10.7c-0.2,7.1-4.3,12-11.3,13.1c-4.6,0.8-9.4,1.1-14,1.5
			c-7.1,0.6-14.3,1.1-21.5,1.8c-3.6,0.3-5.6,2.8-5,6.6c17.2,0,34.5,0,52.2,0c0,4.4,0,8.7,0,13.1C87.7,106.9,64.3,106.9,40.7,106.9z"
			/>
	</g>
</g>
</svg>
