<?xml version="1.0" encoding="utf-8"?>
<!-- Generator: Adobe Illustrator 22.0.1, SVG Export Plug-In . SVG Version: 6.00 Build 0)  -->
<svg version="1.1" id="Layer_1" xmlns="http://www.w3.org/2000/svg" xmlns:xlink="http://www.w3.org/1999/xlink" x="0px" y="0px"
	 viewBox="0 0 331.6 117.3" style="enable-background:new 0 0 331.6 117.3;" xml:space="preserve">
<style type="text/css">
	.st0{fill:#FFFFFF;}
	.st1{fill:#EA2127;}
</style>
<g>
	<path d="M70.3,20.1c-4.7,0-8.3,0-13,0c0,4.7,0,8.3,0,11.8c4.7,0,8.3,0,13,0C70.3,28.3,70.3,24.8,70.3,20.1L70.3,20.1z"/>
	<path class="st0" d="M170.6,43.1L170.6,43.1l-0.2,0.1c1.8,0,3.4,0.2,5.2,0.2c0,0,0-0.3,0-0.3l0,0l0,0H170.6L170.6,43.1L170.6,43.1z
		"/>
	<path class="st0" d="M111.8,43.1c11.9,0,24.2,0,36.4,0c-0.3,0-0.5,0-0.8,0c-0.3,0-0.6,0-0.9,0H111.8L111.8,43.1L111.8,43.1z"/>
	<path class="st0" d="M149.9,42.6h-0.7C149.4,42.6,149.6,42.6,149.9,42.6L149.9,42.6z"/>
	<path class="st0" d="M149.1,42.6c-0.3,0-0.6,0-0.9,0L149.1,42.6C149.2,42.6,149.2,42.6,149.1,42.6L149.1,42.6z"/>
	<path d="M214.1,53.6c0,6.2-0.5,12.5-0.5,18.7c0,0.3-0.3,0.7-0.4,0.9c-2.9,3.5-6.4,6.2-10.9,7.2c-3.6,0.8-7.2,0.8-10.7-0.8
		c-2.3-1.1-4.1-2.8-5.3-5.1c0-0.1-0.1-0.2-0.1-0.3c1.5-0.2,3.1-0.3,4.6-0.5c2.1-0.3,4.1-0.9,5.9-1.9c3.3-1.9,4.9-4.9,5.2-8.7
		c0.3-4-1-8.2-3.7-10.6c5,0,10,0,15.9,0C214.1,52.6,214.1,53.3,214.1,53.6L214.1,53.6z M236.1,42.6c-0.5,0-0.9,0-1.3,0H178
		c0,0,0,0.1,0,0.2c-2.4,0-4.1,0.1-5.9,0v-0.2h-22.2c-0.3,0-0.5,0-0.7,0h-1c-11.7,0-23.3,0-34.7,0H95.1c0,0-0.7,0-1.1,0
		c-21,0-41.9,0.1-62.9,0.1c-0.4,0-0.2,0.1-1.1,0.1c0,3.3,0,6.7,0,10c0,0,0.5-0.2,0.8-0.2c12.3,0,24.5,0,36.8,0c0.3,0,0.9,0,0.9,0
		c0,2.4,0,5.3,0,7.9c0,0-0.6,0-0.9,0c-5.9,0-11.8,0-17.6,0c-3.4,0.1-6.7,0.5-9.9,2c-6.3,3-6,12.1-0.6,15.3c2.6,1.6,5.4,2.3,8.3,2.6
		c4.4,0.6,8.7,0.3,13.1,0.2c3.5-0.1,7-0.3,10.4,0.4c0.9,0.2,1.9,0.5,2.7,0.9c1.3,0.6,1.9,1.7,1.8,3.2c-0.2,2.6-1.7,4.2-4,5.2
		c-2.2,0.9-4.6,1.2-6.9,1.2c-3.8,0-7.7-0.1-11.5-0.3c-2.9-0.1-5.4-1-7.7-2.8c-0.8-0.6-1.7-1.2-2.5-1.8c-0.2-0.1-0.5-0.2-0.7-0.1
		c-3.5,1.8-7,3.5-10.6,5.3c0.9,1.7,2.1,2.9,3.7,3.9c2.5,1.6,5.4,2.3,8.3,2.6c1.8,0.2,3.7,0.2,5.5,0.3c3.1,0.2,5.7,1.5,7.9,3.6
		c3.2,3.1,5.3,7,7.1,10.6c4.6,0,9.2,0,13.7,0c-2.6-6.1-6.3-11-12.1-14.3c0.3-0.1,0.7,0,1,0c2.6-0.2,5.3-0.2,7.9-0.6
		c3.4-0.5,6.7-1.5,9.6-3.5c4.4-3,5.8-7.4,4.8-12.2c-1-4.8-5.8-8.3-11-8.3c-8.1,0-16.2,0-24.2,0c-0.8,0-1.7-0.1-2.5-0.3
		c-1.3-0.4-2-1.5-2-2.9c0-1.5,0.7-2.6,2.1-2.9c0.8-0.2,1.7-0.7,2.5-0.7c8.7,0,17.5-0.4,26.2-0.4c0.3,0,1.2,0,1.2,0
		c0-4.1,0-10.1,0-14.2c4.7,0,8.9,0,13.6,0c0,16,0,34.3,0,50.3c6.5,0,5.9,0,12.4,0c0-16,0-34.3,0-50.3c13,0,31.4,0,44.4,0
		c0,2.4,0,4.1,0,6.5c-0.6,0-0.7,0-1,0c-3,0-6.1,0.4-9.1,0.4c-3.2,0-6.5,0.2-9.7,0.4c-3.2,0.2-6.2,1.3-8.9,3.1
		c-2.3,1.5-3.8,3.6-3.9,6.4c-0.2,4.4,1.8,7.7,5.9,9.7c3.3,1.5,6.8,2.1,10.4,2.3c3.6,0.1,7.2,0.1,10.8,0.2c2.5,0,4.9,0.1,7.4,0.2
		c1.6,0.1,3.1,0.4,4.5,1.2c1.3,0.7,1.6,1.8,1.2,3.1c-0.5,1.4-1.5,2.2-2.7,2.8c-3,1.5-6.3,2.1-9.6,2.2c-4.9,0.2-9.8-0.4-14.5-1.8
		c-3-0.9-6-1.8-8-4.5c0,0-0.1,0-0.2-0.1c-3.1,2-6.3,4-9.4,6.1c1.3,1.8,3.9,3.7,6.4,4.9c4.2,1.9,8.6,2.7,13.2,3.1
		c7,0.6,14.1,0.7,21.1-0.3c3.8-0.5,7.5-1.3,10.9-3.1c3.6-1.9,6.1-4.6,6.6-8.8c0.5-4.6-1-8.5-5.5-10.7c-1.3-0.6-2.6-1.1-4-1.4
		c-3.9-1-7.8-0.9-11.7-0.7c-3.7,0.2-7.5,0.4-11.2,0.5c-2,0.1-4-0.1-5.9-1c-1.3-0.6-1.8-1.4-1.8-2.6c0.1-1.3,0.7-2.2,2.1-2.5
		c1.1-0.3,2.3-0.8,3.4-0.8c8.2,0,16.4-0.4,24.7-0.4c0.3,0,0.9,0,0.9,0c0-4.1,0-10.1,0-14.2c0.6,0,0.7,0,1,0c5.4,0,10.9,0.2,16.3,0
		c1.9-0.1,3.2,0.6,4.3,2c0,0.1,0.1,0.1,0.1,0.2c1.4,1.7,2.1,3.7,1.9,6c-0.3,2.6-2,4-4.3,4.7c-2.9,0.9-6,0.9-9,0.5
		c-1.3-0.2-2.5-0.4-3.8-0.6c0,0.2,0,0.4,0,0.5c0.4,2.9,1.1,5.7,2.1,8.5c1.9,5,5,9.2,9.7,11.9c4.4,2.5,9.1,3.3,14.1,3.2
		c5.3,0,10.7-1.4,15.4-3.8c0.4-0.2,0.6-0.4,1.8-0.7c0,3.3,0,5.9,0,8.9c4.1,0,8.9,0,13.6,0c0-13,0-27.8,0-41.4c3.6,0,7.1,0,11.2,0
		c0,13.6,0,28.4,0,41.4c4.1,0,7.7,0,12.4,0c0-13,0-27.8,0-41.4c1.6,0,18.1,0,24,0l5.3-10.1C272.7,42.6,245.5,42.6,236.1,42.6
		L236.1,42.6z"/>
	<path d="M139.8,4.1c-1.6,0-3.1,0-4.7,0h-0.3v2.3v8.8h0c0,5.4,0,10.9,0,16.3c0,0.1,0,0.3,0,0.5c-1.2,0.1-1.7-0.2-2.4-0.7
		c-1.2-0.7-1.8-1.8-2.5-3.1c-2.4-4.7-4.6-9.3-7-14c-1.9-3.6-4.5-6.5-8.2-8.2c-2.3-1.1-4.7-1.4-7.3-1.5c-1.6,0-3.1-0.2-4.7-0.3
		c-0.1,0-0.3-0.2-0.4-0.2c-2.4,0-4.8,0-7.2,0c0,5.9,0,11,0,16.5c0,7.2,0,14.6,0,21.8c0,0.1,0,0.2,0,0.8h13c0-10.1,0-18.4,0-27.5
		c1.2-0.1,1.8,0.2,2.7,0.8c1.1,0.8,1.6,1.8,2.2,3c2.3,4.6,4.6,9.3,6.9,13.9c1.7,3.3,3.9,6.3,7.2,8.1c1.3,0.7,2.5,1.1,3.9,1.7h16
		v-4.1V30V19.1V15V6.4V4.5V4.1H139.8L139.8,4.1z"/>
	<path d="M190.4,28.9c-0.1,3-2,4.9-5,5.2c-0.6,0.1-1.2-0.2-1.8-0.2c-6.4,0-12.8-0.3-19.3-0.3c-0.2,0-0.5,0-0.5,0
		c0-5.9,0-13.6,0-19.5c0,0,0.3,0,0.5,0c6.5,0,13-0.2,19.5-0.2c1,0,2,0.1,3,0.3c2.2,0.6,3.5,2.2,3.6,4.5c0.1,1,0.1,2,0.1,3
		C190.4,24.2,190.5,26.5,190.4,28.9L190.4,28.9z M288,4.1c-1.1,3-2.2,4.4-3.3,6.6c-3.8,7.3-7.6,14.6-11.4,21.9
		c-0.1,0.2-0.2,0.3-0.3,0.6c-0.1-0.2-0.2-0.2-0.3-0.4c-5.3-9.4-10.5-19-15.7-28.4c0-0.1-0.1-0.3-0.1-0.3c-35.2,0-70.6,0-106.1,0v4.4
		V19v11v5.4v7.7h40.3c0.1,0,0.3-0.3,0.4-0.3c3-0.8,5.6-2.3,7.6-4.7c2.2-2.7,3.2-6,3.4-9.4c0.2-2.7,0.2-5.4,0.2-8.2
		c0-1.1-0.1-2-0.3-3.1c-0.2-1.2-0.5-2.2-0.7-3.4c6.1,0,12.4,0,18.3,0c0,9.5,0,18.4,0,29h11.8c0-10.7,0-19.5,0-29c0.6,0,0.8,0,1,0
		c5.1,0,10.2-0.2,15.3-0.2c0.5,0,0.8,0.1,1,0.5c5.3,9.5,10.7,19,16.1,28.5c0.2,0.4,0.4,0.5,0.9,0.5c4.6,0,9.3,0,13.9,0
		c0.5,0,0.7-0.2,0.9-0.6c6.3-12,12.6-24,18.9-36c0.5-0.9,0.9-1.6,1.3-2.8C296.7,4.1,292.3,4.1,288,4.1L288,4.1z"/>
	<path class="st1" d="M155.7,24c0,3.4-2.7,6.1-6.1,6.1c-3.4,0-6.1-2.7-6.1-6.1s2.7-6.1,6.1-6.1C152.9,17.9,155.7,20.7,155.7,24
		L155.7,24z"/>
</g>
</svg>
