<?xml version="1.0" encoding="UTF-8"?>
<svg width="269px" height="101px" viewBox="0 0 269 101" version="1.1" xmlns="http://www.w3.org/2000/svg" xmlns:xlink="http://www.w3.org/1999/xlink">
    <!-- Generator: Sketch 52.2 (67145) - http://www.bohemiancoding.com/sketch -->
    <title>Artboard</title>
    <desc>Created with Sketch.</desc>
    <g id="Artboard" stroke="none" stroke-width="1" fill="none" fill-rule="evenodd">
        <g id="NDTVProfit">
            <path d="M253.034353,36.4282799 C277.634915,26.8112141 180.989851,62.3652153 82.5876014,33.8054438 C58.8656308,26.8112141 130.910134,83.930757 253.034353,36.4282799" id="Fill-1" fill="#D8232A"></path>
            <path d="M58.572767,94.4221015 C58.2799033,96.4620853 57.9870393,97.9192166 56.2298564,98.2106428 C55.6441285,98.2106428 54.4726732,98.5020691 53.301218,98.5020691 C52.1297627,98.5020691 51.8368988,99.0849215 51.8368988,99.3763477 C51.8368988,99.9592004 52.4226264,100.250627 53.301218,100.250627 C56.815584,100.250627 61.794269,99.9592004 63.5514521,99.9592004 C64.7229074,99.9592004 71.7516396,100.250627 76.4374609,100.250627 C77.3160525,100.250627 78.1946438,99.9592004 78.1946438,99.3763477 C78.1946438,99.0849215 77.9017801,98.5020691 77.0231885,98.5020691 C75.8517332,98.5020691 74.0945502,98.5020691 72.9230949,98.2106428 C70.2873203,97.9192166 69.9944565,96.4620853 69.7015927,94.4221015 C69.4087287,91.2164131 69.4087287,85.3878881 69.4087287,78.6850846 L69.4087287,77.5193797 C69.4087287,77.2279535 69.7015927,76.9365273 69.9944565,76.9365273 L77.3160525,77.2279535 C77.6089162,77.2279535 77.9017801,77.2279535 78.4875078,77.5193797 C78.7803716,77.5193797 78.7803716,77.5193797 79.0732354,77.8108061 C79.9518269,78.9765111 82.8804654,83.6393308 86.1019675,87.7192981 C90.2020611,93.2563969 92.8378357,96.7535115 96.0593377,98.5020691 C98.1093846,99.3763477 99.8665677,99.9592004 103.966661,99.9592004 L110.995393,99.9592004 C111.873985,99.9592004 112.459713,99.6677739 112.459713,99.0849215 C111.873985,98.7934953 111.581121,98.2106428 110.995393,98.2106428 C110.409666,98.2106428 109.823938,98.2106428 109.23821,97.9192166 C108.066755,97.6277904 105.430981,97.3363642 101.623751,93.2563969 C97.2307933,88.5935769 91.9592441,82.1821997 85.5162398,73.7308388 C92.5449717,67.9023139 95.4736101,62.9480677 95.4736101,57.7023954 C95.4736101,52.7481492 92.5449717,48.9596084 90.4949248,47.7939034 C86.9805591,45.4624934 82.5876014,44.8796408 78.4875078,44.5882147 C77.9017801,44.5882147 77.3160525,44.5882147 76.4374609,44.5882147 C73.8016865,44.5882147 66.4800906,44.8796408 63.5514521,44.8796408 C62.3799969,44.8796408 59.1584945,44.8796408 55.6441285,44.5882147 C55.9369924,43.1310834 55.9369924,41.9653785 55.9369924,40.5082474 C55.9369924,35.262575 53.0083541,30.5997551 50.9583072,28.2683454 C49.2011242,26.8112141 44.8081666,22.4398205 31.922158,22.4398205 C27.2363365,22.4398205 21.37906,22.7312467 17.2789662,22.7312467 C14.3503279,22.7312467 7.90732354,22.4398205 2.34291068,22.4398205 C0.58572767,22.1483942 0,22.4398205 0,23.3140992 C0,23.8969516 0.58572767,24.188378 1.75718301,24.188378 C3.22150219,24.188378 4.97868519,24.188378 5.8572767,24.4798041 C9.37164273,25.0626567 10.2502342,26.8112141 10.2502342,30.3083289 L10.2502342,92.0906918 C9.66450654,95.0049542 9.07877888,97.3363642 7.32159588,97.6277904 C6.44300437,97.9192166 5.27154904,98.2106428 3.51436603,98.2106428 C2.34291068,98.2106428 1.75718301,98.5020691 1.75718301,99.0849215 C1.75718301,99.6677739 2.34291068,100.250627 3.80722985,100.250627 C7.90732354,100.250627 14.3503279,99.9592004 16.6932387,99.9592004 C19.3290131,99.9592004 25.7720174,100.250627 32.5078856,100.250627 C33.6793412,100.250627 34.2650687,99.9592004 34.2650687,99.0849215 C34.2650687,98.5020691 33.9722047,98.2106428 32.8007496,98.2106428 C31.3364303,98.2106428 28.9935197,97.9192166 27.5292006,97.6277904 C24.6005621,97.3363642 23.7219707,95.0049542 23.4291068,92.0906918 C23.136243,87.7192981 23.136243,79.5593635 23.136243,70.2337239 L23.136243,29.142624 C23.136243,27.9769189 23.4291068,27.3940665 24.0148344,27.1026403 C24.893426,26.8112141 26.3577451,26.8112141 28.1149281,26.8112141 C30.4578387,26.8112141 34.5579324,27.3940665 38.3651625,30.8911816 C44.2224391,36.1368538 44.5153029,42.8396572 44.5153029,46.3367723 C44.5153029,56.8281168 36.6079793,63.2394939 30.7507027,63.2394939 C28.4077918,63.2394939 27.8220643,63.5309204 27.8220643,64.4051988 C27.8220643,64.9880515 28.4077918,65.2794777 28.9935197,65.2794777 C29.5792474,65.2794777 30.7507027,65.2794777 31.0435666,65.2794777 C43.6367113,65.2794777 53.0083541,57.7023954 55.6441285,46.3367723 C57.9870393,47.2110508 58.8656308,47.7939034 58.8656308,50.1253132 L58.572767,94.4221015 Z M81.4161462,71.9822812 C80.5375547,72.85656 79.6589631,73.1479862 78.1946438,73.1479862 C77.6089162,73.1479862 77.0231885,73.1479862 76.1445969,73.1479862 C74.0945502,73.1479862 71.4587756,73.1479862 69.7015927,72.5651339 C69.115865,72.2737074 69.115865,71.9822812 69.115865,71.1080026 L69.115865,49.5424608 C69.115865,48.9596084 69.4087287,48.6681819 69.7015927,48.3767557 C70.5801843,48.3767557 72.6302312,48.0853296 74.6802781,48.0853296 C75.8517332,48.0853296 77.0231885,48.0853296 78.1946438,48.3767557 C82.0018738,49.5424608 86.3948312,53.0395757 86.3948312,60.9080842 C86.3948312,67.3194615 83.7590567,70.5251501 81.4161462,71.9822812 Z" id="Shape" fill="#000000" fill-rule="nonzero"></path>
            <path d="M180.111258,78.9765111 C180.111258,85.9707408 180.111258,90.9249869 180.111258,94.1306755 C180.404122,96.1706591 180.989851,97.6277904 183.33276,97.9192166 C184.211351,97.9192166 185.968535,98.2106428 187.13999,98.2106428 C188.018583,98.2106428 188.311446,98.5020691 188.311446,99.0849215 C188.311446,99.3763477 187.725719,99.6677739 186.554263,99.6677739 C181.575578,99.6677739 176.304028,99.3763477 174.546846,99.3763477 C172.496798,99.3763477 167.810978,99.6677739 164.882339,99.6677739 C163.710884,99.6677739 163.418021,99.3763477 163.418021,99.0849215 C163.418021,98.7934953 163.710884,98.2106428 164.589475,98.2106428 C165.76093,98.2106428 166.639523,97.9192166 167.22525,97.9192166 C168.689569,97.6277904 168.982432,96.1706591 169.56816,94.1306755 C169.861024,90.9249869 169.861024,85.6793146 169.861024,78.6850846 L169.861024,65.8623302 C169.861024,54.788133 169.861024,53.0395757 169.861024,50.4167395 C169.56816,48.0853296 168.982432,47.2110508 166.639523,46.6281985 C166.053794,46.6281985 164.882339,46.3367723 163.710884,46.3367723 C163.125157,46.3367723 162.246564,46.0453458 162.246564,45.4624934 C162.246564,44.8796408 162.832292,44.8796408 164.003748,44.8796408 C167.810978,44.8796408 172.789662,45.1710672 174.83971,45.1710672 C177.768348,45.1710672 194.461586,45.4624934 196.511633,45.1710672 C197.975952,45.1710672 198.854544,44.8796408 199.440272,44.8796408 C200.025999,44.8796408 200.318863,44.2967885 200.611727,44.2967885 C200.90459,44.2967885 201.197454,44.5882147 201.197454,44.8796408 C201.197454,45.4624934 200.90459,46.3367723 200.611727,48.3767557 C200.611727,48.9596084 200.318863,53.3310019 200.318863,54.2052806 C200.025999,54.788133 200.025999,55.6624119 199.440272,55.6624119 C199.147408,55.6624119 198.561681,55.3709854 198.561681,54.4967068 C198.561681,53.9138543 198.561681,52.7481492 198.268815,51.8738708 C197.683088,50.7081657 196.218769,49.833887 193.290131,49.5424608 L180.696985,49.5424608 C180.404122,49.5424608 180.111258,49.5424608 180.111258,50.4167395 L180.111258,67.9023139 C180.111258,68.4851664 180.404122,68.4851664 180.696985,68.4851664 L191.240085,68.4851664 C192.41154,68.4851664 193.582995,68.4851664 194.754451,68.4851664 C196.218769,68.4851664 197.097361,68.1937401 197.975952,67.3194615 C198.268815,66.7366088 198.561681,66.4451826 199.147408,66.4451826 C199.440272,66.4451826 199.440272,66.7366088 199.440272,67.028035 C199.440272,67.3194615 199.147408,69.359445 198.854544,71.690855 C198.561681,73.1479862 198.561681,76.3536749 198.561681,76.9365273 C198.561681,77.5193797 198.561681,78.6850846 197.683088,78.6850846 C197.390224,78.6850846 197.097361,78.1022322 197.097361,77.8108061 C197.097361,77.2279535 196.804497,76.3536749 196.511633,75.4793961 C196.218769,74.3136912 195.340178,72.85656 192.997267,72.85656 C190.94722,72.85656 182.161305,72.5651339 180.696985,72.5651339 C180.404122,72.5651339 180.111258,72.5651339 180.111258,73.1479862 L180.111258,78.9765111" id="Fill-5" fill="#000000"></path>
            <path d="M267.97041,39.3425423 C267.677546,39.3425423 267.091817,39.3425423 265.920362,39.6339685 C264.748906,39.6339685 262.991722,39.925395 260.355949,39.925395 L226.676609,39.925395 C223.74797,39.925395 220.819332,39.6339685 218.47642,39.6339685 C216.426374,39.3425423 215.547782,38.7596899 214.962054,38.7596899 C214.376327,38.7596899 214.376327,39.0511161 214.083463,40.2168212 C214.083463,40.5082474 213.497736,42.2568047 213.204872,44.2967885 C210.569097,44.2967885 205.883276,44.2967885 203.247502,44.2967885 C202.076047,44.2967885 201.197454,44.2967885 201.197454,44.8796408 C201.197454,45.4624934 201.490318,45.7539196 202.661774,45.7539196 C203.540365,45.7539196 204.71182,45.7539196 205.590413,46.0453458 C207.347595,46.6281985 208.226186,47.502477 208.51905,49.833887 C208.51905,52.165297 208.51905,54.2052806 208.51905,65.2794777 L208.51905,78.3936584 C208.51905,85.3878881 208.51905,91.2164131 208.226186,94.4221015 C207.933322,96.4620853 207.347595,97.6277904 205.590413,97.9192166 C204.71182,98.2106428 203.833229,98.2106428 202.661774,98.2106428 C201.490318,98.2106428 201.490318,98.7934953 201.490318,99.0849215 C201.490318,99.6677739 202.076047,99.9592004 202.954638,99.9592004 C206.469004,99.9592004 212.033416,99.6677739 213.7906,99.6677739 C216.133511,99.6677739 221.697923,99.9592004 227.262336,99.9592004 C227.848064,99.9592004 228.140927,99.9592004 228.433791,99.6677739 C228.726655,99.9592004 229.019518,99.9592004 229.898111,99.9592004 C233.119612,99.9592004 238.684025,99.6677739 240.734073,99.6677739 C243.076982,99.6677739 248.641396,99.9592004 253.912944,99.9592004 C254.791537,99.9592004 255.67013,99.6677739 255.67013,99.0849215 C255.67013,98.7934953 255.084401,98.2106428 254.20581,98.2106428 C253.034353,98.2106428 250.984307,98.2106428 250.105715,97.9192166 C247.46994,97.6277904 247.177076,96.1706591 246.884212,93.8392493 C246.591348,90.3421342 246.298485,84.2221835 246.298485,76.9365273 L246.298485,44.8796408 L256.548718,44.8796408 C263.870315,44.8796408 266.213226,47.502477 266.213226,49.5424608 L266.213226,50.4167395 C266.213226,51.5824446 266.50609,51.8738708 267.384682,51.8738708 C267.677546,51.8738708 267.677546,51.8738708 267.677546,51.5824446 L267.97041,39.3425423 C268.263274,39.3425423 267.97041,39.3425423 267.97041,39.3425423 Z M235.755387,76.9365273 C235.755387,84.2221835 235.462523,90.3421342 235.169659,93.8392493 C234.876796,96.1706591 234.291068,97.6277904 232.826748,98.2106428 C232.241021,98.5020691 231.069566,98.5020691 229.898111,98.5020691 C229.312382,98.5020691 229.019518,98.7934953 229.019518,98.7934953 C228.726655,98.5020691 228.433791,98.5020691 227.848064,98.5020691 C226.676609,98.5020691 224.919425,98.5020691 223.74797,98.2106428 C221.112195,97.9192166 220.526468,96.7535115 220.233604,94.713528 C219.647877,91.5078393 219.647877,85.6793146 219.647877,78.3936584 L219.647877,65.2794777 C219.647877,54.2052806 219.647877,52.165297 219.94074,49.833887 C219.94074,47.2110508 220.819332,46.0453458 223.162243,45.7539196 C224.040834,45.4624934 224.919425,45.4624934 225.798016,45.4624934 C226.383744,45.4624934 226.969473,45.1710672 226.969473,44.5882147 L235.755387,44.5882147 L235.755387,76.9365273 Z" id="Shape" fill="#000000" fill-rule="nonzero"></path>
            <path d="M134.4245,49.833887 C134.4245,49.833887 134.131636,49.833887 134.4245,49.833887 C113.924032,50.1253132 106.309572,64.1137726 106.309572,74.8965435 C106.309572,86.262167 114.216896,99.9592004 133.838773,99.9592004 L134.131636,99.9592004 C151.117739,99.6677739 161.9537,88.3021508 161.9537,73.7308388 C161.9537,59.1595266 151.410603,49.833887 134.4245,49.833887 Z M136.474547,96.4620853 C135.595955,96.4620853 134.717364,96.4620853 134.131636,96.4620853 C122.709947,95.2963804 116.266943,85.3878881 116.266943,73.1479862 C116.266943,57.4109692 125.052858,53.3310019 132.667317,53.3310019 C133.253045,53.3310019 133.838773,53.3310019 134.4245,53.3310019 C144.381871,54.2052806 152.289194,62.6566415 152.289194,76.0622484 C151.99633,94.4221015 141.160368,96.4620853 136.474547,96.4620853 Z" id="Shape" fill="#000000" fill-rule="nonzero"></path>
            <path d="M254.791537,0 L238.976889,28.8511978 L222.576514,0 L139.696049,0 L117.438398,0 L117.438398,16.6112956 L111.873985,16.6112956 L111.873985,0 L98.6951123,0 L98.6951123,27.6854927 L98.4022486,27.6854927 C95.4736101,27.6854927 94.009291,25.0626567 93.1306996,23.8969516 L85.8091035,10.1999184 C82.2947375,3.78854112 76.4374609,0 69.7015927,0 L55.9369924,0 L55.9369924,38.7596899 L69.115865,38.7596899 L69.115865,11.0741971 L69.4087287,11.0741971 C72.3373672,11.0741971 74.0945502,13.9884595 74.6802781,14.8627382 L82.0018738,28.5597716 C85.223376,34.9711488 91.0806527,38.7596899 98.1093846,38.7596899 L111.581121,38.7596899 L111.581121,20.6912631 L117.145534,20.6912631 L117.145534,38.7596899 L139.403185,38.7596899 L147.896237,38.7596899 C159.903655,38.7596899 165.76093,32.0568865 165.76093,20.9826892 L165.76093,16.6112956 C165.76093,15.4455907 165.76093,12.2399021 164.882339,9.03421342 L184.504217,9.03421342 L184.504217,38.7596899 L196.804497,38.7596899 L196.804497,9.03421342 L214.083463,9.03421342 L231.36243,38.7596899 L246.884212,38.7596899 L268.263274,0 L254.791537,0 Z M153.460649,23.6055254 C153.460649,27.6854927 151.117739,29.7254765 146.431917,29.7254765 L139.696049,29.7254765 L130.324406,29.7254765 L130.324406,9.03421342 L139.696049,9.03421342 L146.431917,9.03421342 C151.117739,9.03421342 153.460649,11.3656233 153.460649,14.8627382 L153.460649,23.6055254 Z" id="Shape" fill="#000000" fill-rule="nonzero"></path>
            <path d="M123.002811,19.5255581 C123.002811,23.8969516 119.195581,27.6854927 114.509759,27.6854927 C109.823938,27.6854927 106.309572,23.8969516 106.309572,19.5255581 C106.309572,15.1541645 110.116802,11.0741971 114.509759,11.0741971 C119.195581,11.0741971 123.002811,14.8627382 123.002811,19.5255581" id="Fill-10" fill="#D8232A"></path>
        </g>
    </g>
</svg>