<?xml version="1.0" encoding="utf-8"?>
<!-- Generator: Adobe Illustrator 26.3.1, SVG Export Plug-In . SVG Version: 6.00 Build 0)  -->
<svg version="1.1" id="Layer_1" xmlns="http://www.w3.org/2000/svg" xmlns:xlink="http://www.w3.org/1999/xlink" x="0px" y="0px"
	 viewBox="0 0 269 101" style="enable-background:new 0 0 269 101;" xml:space="preserve">
<style type="text/css">
	.st0{fill-rule:evenodd;clip-rule:evenodd;fill:#D8232A;}
	.st1{fill:#FFFFFF;}
</style>
<g id="Artboard">
	<g id="NDTVProfit">
		<path id="Fill-1" class="st0" d="M239.7,37.9c21.9-8.5-64,23-151.4-2.3C67.2,29.4,131.2,80.1,239.7,37.9"/>
		<g>
			<path class="st1" d="M111.9,92.6c-1.1-0.3-3.4-0.5-6.8-4.2c-3.9-4.2-8.6-9.9-14.3-17.3c6.2-5.2,8.9-9.6,8.9-14.2
				c0-4.4-2.6-7.7-4.4-8.8c-3.1-2-7-2.6-10.7-2.8c-0.5,0-1.1,0-1.9,0c-2.3,0-8.9,0.3-11.5,0.3c-1.1,0-3.9,0-7-0.3
				c0.3-1.3,0.3-2.3,0.3-3.6c0-4.6-2.6-8.8-4.4-10.8c-1.6-1.3-5.5-5.2-16.9-5.2c-4.2,0-9.3,0.3-13,0.3c-2.6,0-8.4-0.3-13.2-0.3
				c-1.6-0.3-2,0-2,0.8c0,0.5,0.5,0.8,1.6,0.8c1.3,0,2.8,0,3.6,0.3c3.1,0.5,3.9,2,3.9,5.2v54.9c-0.5,2.6-1.1,4.6-2.6,4.9
				c-0.8,0.3-1.9,0.5-3.4,0.5c-1.1,0-1.6,0.3-1.6,0.8c0,0.5,0.5,1.1,1.9,1.1c3.6,0,9.3-0.3,11.5-0.3c2.3,0,8.1,0.3,14,0.3
				c1.1,0,1.6-0.3,1.6-1.1c0-0.5-0.3-0.8-1.3-0.8c-1.3,0-3.4-0.3-4.7-0.5c-2.6-0.3-3.4-2.3-3.6-4.9c-0.3-3.9-0.3-11.1-0.3-19.5V31.5
				c0-1.1,0.3-1.5,0.8-1.8c0.8-0.3,2-0.3,3.6-0.3c2,0,5.7,0.5,9.2,3.6c5.2,4.6,5.5,10.6,5.5,13.7c0,9.3-7,15-12.3,15
				c-2,0-2.6,0.3-2.6,1.1c0,0.5,0.5,0.8,1.1,0.8c0.5,0,1.6,0,1.9,0c11.2,0,19.5-6.8,21.9-16.8c2,0.8,2.8,1.3,2.8,3.4l-0.3,39.4
				c-0.3,1.8-0.5,3.1-2,3.4c-0.5,0-1.6,0.3-2.6,0.3c-1,0-1.3,0.5-1.3,0.8c0,0.5,0.5,0.8,1.3,0.8c3.1,0,7.6-0.3,9.2-0.3
				c1.1,0,7.3,0.3,11.5,0.3c0.8,0,1.6-0.3,1.6-0.8c0-0.3-0.3-0.8-1.1-0.8c-1.1,0-2.6,0-3.6-0.3c-2.3-0.3-2.6-1.5-2.8-3.4
				c-0.3-2.8-0.3-8-0.3-13.9v-1.1c0-0.3,0.3-0.5,0.5-0.5l6.5,0.3c0.3,0,0.5,0,1.1,0.3c0.3,0,0.3,0,0.5,0.3c0.8,1.1,3.4,5.2,6.2,8.8
				c3.6,4.9,6,8,8.9,9.6c1.9,0.8,3.4,1.3,7,1.3h6.2c0.8,0,1.3-0.3,1.3-0.8c-0.5-0.3-0.8-0.8-1.3-0.8C113,92.8,112.5,92.8,111.9,92.6
				z M87.2,69.6c-0.8,0.8-1.6,1.1-2.8,1.1c-0.5,0-1.1,0-1.9,0c-1.9,0-4.2,0-5.7-0.5c-0.5-0.3-0.5-0.5-0.5-1.3V49.6
				c0-0.5,0.3-0.8,0.5-1.1c0.8,0,2.6-0.3,4.4-0.3c1.1,0,2,0,3.1,0.3c3.4,1.1,7.3,4.2,7.3,11.1C91.7,65.4,89.4,68.2,87.2,69.6z"/>
			<path class="st1" d="M193.1,45c-0.3,0-0.5,0.5-1.1,0.5c-0.5,0-1.3,0.3-2.6,0.3c-1.9,0.3-16.6,0-19.3,0c-1.9,0-6.2-0.3-9.6-0.3
				c-1.1,0-1.6,0-1.6,0.5s0.8,0.8,1.3,0.8c1.1,0,2,0.3,2.6,0.3c2,0.5,2.6,1.3,2.8,3.4c0,2.3,0,3.9,0,13.7v11.4
				c0,6.2,0,10.8-0.3,13.7c-0.5,1.8-0.8,3.1-2,3.4c-0.5,0-1.3,0.3-2.3,0.3c-0.8,0-1.1,0.5-1.1,0.8s0.3,0.5,1.3,0.5
				c2.6,0,6.8-0.3,8.6-0.3c1.6,0,6.2,0.3,10.7,0.3c1.1,0,1.6-0.3,1.6-0.5c0-0.5-0.3-0.8-1.1-0.8c-1.1,0-2.6-0.3-3.4-0.3
				c-2-0.3-2.6-1.5-2.8-3.4c0-2.8,0-7.3,0-13.5v-5.2c0-0.5,0.3-0.5,0.5-0.5c1.3,0,9.2,0.3,10.9,0.3c2,0,2.8,1.3,3.1,2.3
				c0.3,0.8,0.5,1.5,0.5,2c0,0.3,0.3,0.8,0.5,0.8c0.8,0,0.8-1.1,0.8-1.5s0-3.4,0.3-4.6c0.3-2,0.5-3.9,0.5-4.2c0-0.3,0-0.5-0.3-0.5
				c-0.5,0-0.8,0.3-1.1,0.8c-0.8,0.8-1.6,1.1-2.8,1.1c-1.1,0-2,0-3.1,0h-9.3c-0.3,0-0.5,0-0.5-0.5V50.4c0-0.8,0.3-0.8,0.5-0.8h11.2
				c2.6,0.3,3.9,1.1,4.4,2c0.3,0.8,0.3,1.8,0.3,2.3c0,0.8,0.5,1.1,0.8,1.1c0.5,0,0.5-0.8,0.8-1.3c0-0.8,0.3-4.6,0.3-5.2
				c0.3-1.8,0.5-2.6,0.5-3.1C193.7,45.2,193.4,45,193.1,45z"/>
			<path class="st1" d="M246.3,41h-29.9c-2.6,0-5.2-0.3-7.3-0.3c-1.9-0.3-2.6-0.8-3.1-0.8s-0.5,0.3-0.8,1.3c0,0.3-0.5,1.8-0.8,3.6
				c-2.3,0-6.5,0-8.9,0c-1.1,0-1.9,0-1.9,0.5s0.3,0.8,1.3,0.8c0.8,0,1.9,0,2.6,0.3c1.6,0.5,2.3,1.3,2.6,3.4c0,2,0,3.9,0,13.7v11.6
				c0,6.2,0,11.4-0.3,14.2c-0.3,1.8-0.8,2.8-2.3,3.1c-0.8,0.3-1.6,0.3-2.6,0.3c-1.1,0-1.1,0.5-1.1,0.8c0,0.5,0.5,0.8,1.3,0.8
				c3.1,0,8.1-0.3,9.6-0.3c2,0,7,0.3,12,0.3c0.5,0,0.8,0,1.1-0.3c0.3,0.3,0.5,0.3,1.3,0.3c2.8,0,7.8-0.3,9.6-0.3c2,0,7,0.3,11.7,0.3
				c0.8,0,1.6-0.3,1.6-0.8c0-0.3-0.5-0.8-1.3-0.8c-1.1,0-2.8,0-3.6-0.3c-2.3-0.3-2.6-1.5-2.8-3.6c-0.3-3.1-0.5-8.5-0.5-15V45.5h9.2
				c6.5,0,8.6,2.3,8.6,4.2v0.8c0,1.1,0.3,1.3,1.1,1.3c0.3,0,0.3,0,0.3-0.3l0.3-10.8c-0.3,0-0.8,0-1.9,0.3
				C250.1,40.8,248.6,41,246.3,41z M224.4,73.9c0,6.5-0.3,11.9-0.5,15c-0.3,2-0.8,3.4-2,3.9c-0.5,0.3-1.6,0.3-2.6,0.3
				c-0.5,0-0.8,0.3-0.8,0.3c-0.3-0.3-0.5-0.3-1.1-0.3c-1.1,0-2.6,0-3.6-0.3c-2.3-0.3-2.8-1.3-3.1-3.1c-0.5-2.8-0.5-8-0.5-14.5V63.6
				c0-9.9,0-11.6,0.3-13.7c0-2.3,0.8-3.4,2.8-3.6c0.8-0.3,1.6-0.3,2.3-0.3c0.5,0,1.1-0.3,1.1-0.8h7.8V73.9z"/>
			<path class="st1" d="M134.3,49.8c-18.2,0.3-25,12.7-25,22.3c0,10.1,7,22.3,24.4,22.3h0.3c15.1-0.3,24.7-10.4,24.7-23.3
				S149.4,49.8,134.3,49.8z M136.2,91.3c-0.8,0-1.6,0-2,0c-10.1-1.1-15.9-9.9-15.9-20.7c0-13.9,7.8-17.6,14.6-17.6
				c0.5,0,1.1,0,1.6,0c8.9,0.8,15.9,8.3,15.9,20.2C150,89.5,140.4,91.3,136.2,91.3z"/>
		</g>
		<path id="Shape_3_" class="st1" d="M241.3,5.6l-14,25.7L212.7,5.6H139h-19.8v14.7h-5V5.6h-11.6v24.6h-0.3c-2.6,0-3.9-2.3-4.7-3.4
			l-6.5-12.2C88,9,82.8,5.6,76.8,5.6H64.6v34.5h11.7V15.5h0.3c2.6,0,4.2,2.6,4.7,3.4L87.8,31c2.8,5.7,8.1,9.1,14.3,9.1h12V24h5v16.1
			h19.8h7.6c10.7,0,15.9-6,15.9-15.8v-3.9c0-1.1,0-3.9-0.8-6.8h17.4V40h10.9V13.6h15.4L220.6,40h13.8l18.9-34.4H241.3z M151.3,26.6
			c0,3.6-2,5.4-6.2,5.4h-6h-8.4V13.6h8.4h6c4.2,0,6.2,2,6.2,5.2V26.6z"/>
		<path id="Fill-10" class="st0" d="M124.2,22.9c0,3.9-3.4,7.3-7.6,7.3c-4.2,0-7.3-3.4-7.3-7.3s3.4-7.6,7.3-7.6
			C120.8,15.5,124.2,18.8,124.2,22.9"/>
	</g>
</g>
</svg>
