<?xml version="1.0" encoding="utf-8"?>
<!-- Generator: Adobe Illustrator 25.0.1, SVG Export Plug-In . SVG Version: 6.00 Build 0)  -->
<svg version="1.1" id="Layer_1" xmlns="http://www.w3.org/2000/svg" xmlns:xlink="http://www.w3.org/1999/xlink" x="0px" y="0px"
	 viewBox="0 0 271.1 45.5" style="enable-background:new 0 0 271.1 45.5;" xml:space="preserve">
<style type="text/css">
	.st0{opacity:0.25;}
</style>
<path class="st0" d="M271.1,5c-0.1,0-0.1,0-0.2,0c-11.8,0-17.5,8-22.1,14.5l-0.8,1c-3.8,5.8-6.3,9.4-10.9,9.4c-4.2,0-6.4-3-10.4-8.7
	l-0.6-1C221.5,13.5,215.7,5,203.4,5c-11.8,0-17.5,8-22.1,14.5l-0.8,1c-3.8,5.8-6.3,9.4-10.9,9.4c-4.2,0-6.4-3-10.4-8.7l-0.6-1
	C153.9,13.5,148.1,5,135.8,5c-11.8,0-17.5,8-22.1,14.5l-0.8,1c-3.8,5.8-6.3,9.4-10.9,9.4c-4.2,0-6.8-3.4-10.9-9.5L91,20.2
	C86.4,13.5,80.6,5,68.2,5c-11.8,0-17.5,8-22.1,14.5l-0.8,1c-3.8,5.8-6.3,9.4-10.9,9.4c-4.2,0-6.8-3.4-10.9-9.5l-0.1-0.2
	C18.8,13.5,13,5,0.7,5C0.4,5,0.2,5,0,5V18c0.2,0,0.4,0,0.7,0c4.2,0,6.8,3.4,10.9,9.5l0.1,0.2C16.3,34.5,22.1,43,34.4,43
	c11.8,0,17.5-8,22.1-14.5l0.6-0.9l0.1-0.1c3.8-5.8,6.3-9.4,10.9-9.4c4.2,0,6.4,3,10.4,8.7l0.6,1c4.6,6.8,10.4,15.3,22.6,15.3
	c11.8,0,17.5-8,22.1-14.5l0.6-0.9l0.1-0.1c3.8-5.8,6.3-9.4,10.9-9.4c4.2,0,6.4,3,10.4,8.7l0.6,1c4.6,6.8,10.4,15.3,22.6,15.3
	c11.8,0,17.5-8,22.1-14.5l0.8-1c3.8-5.8,6.3-9.4,10.9-9.4c4.2,0,6.4,3,10.4,8.7l0.6,1c4.6,6.8,10.4,15.3,22.6,15.3
	c11.8,0,17.5-8,22.1-14.5l0.8-1c3.8-5.8,6.3-9.4,10.9-9.4c0.2,0,0.4,0,0.6,0V5z"/>
</svg>
