<?xml version="1.0" encoding="utf-8"?>
<!-- Generator: Adobe Illustrator 24.3.0, SVG Export Plug-In . SVG Version: 6.00 Build 0)  -->
<svg version="1.1" id="Layer_1" xmlns="http://www.w3.org/2000/svg" xmlns:xlink="http://www.w3.org/1999/xlink" x="0px" y="0px"
	 viewBox="0 0 271.1 45.5" style="enable-background:new 0 0 271.1 45.5;" xml:space="preserve">
<path d="M261.6,5c-11,0-16.3,8-20.6,14.5l-0.7,1c-3.5,5.8-5.9,9.4-10.2,9.4c-3.9,0-6-3-9.7-8.7l-0.6-1C215.5,13.5,210.1,5,198.6,5
	c-11,0-16.3,8-20.6,14.5l-0.7,1c-3.5,5.8-5.9,9.4-10.2,9.4c-3.9,0-6-3-9.7-8.7l-0.6-1C152.5,13.5,147.1,5,135.6,5
	c-11,0-16.3,8-20.6,14.5l-0.7,1c-3.5,5.8-5.9,9.4-10.2,9.4c-3.9,0-6.3-3.4-10.2-9.5l-0.1-0.2C89.5,13.5,84.1,5,72.6,5
	c-11,0-16.3,8-20.6,14.5l-0.7,1c-3.5,5.8-5.9,9.4-10.2,9.4c-3.9,0-6.3-3.4-10.2-9.5l-0.1-0.2C26.5,13.5,21.1,5,9.6,5
	c-3.7,0-6.5,2.8-6.5,6.5S5.9,18,9.6,18c3.9,0,6.3,3.4,10.2,9.5l0.1,0.2c4.3,6.8,9.7,15.3,21.1,15.3c11,0,16.3-8,20.6-14.5l0.6-0.9
	l0.1-0.1c3.5-5.8,5.9-9.4,10.2-9.4c3.9,0,6,3,9.7,8.7l0.6,1c4.3,6.8,9.7,15.3,21.1,15.3c11,0,16.3-8,20.6-14.5l0.6-0.9l0.1-0.1
	c3.5-5.8,5.9-9.4,10.2-9.4c3.9,0,6,3,9.7,8.7l0.6,1c4.3,6.8,9.7,15.3,21.1,15.3c11,0,16.3-8,20.6-14.5l0.7-1
	c3.5-5.8,5.9-9.4,10.2-9.4c3.9,0,6,3,9.7,8.7l0.6,1c4.3,6.8,9.7,15.3,21.1,15.3c11,0,16.3-8,20.6-14.5l0.7-1
	c3.5-5.8,5.9-9.4,10.2-9.4c3.7,0,6.5-2.8,6.5-6.5S265.3,5,261.6,5z"/>
</svg>
