<?xml version="1.0" encoding="utf-8"?>
<!-- Generator: Adobe Illustrator 24.1.2, SVG Export Plug-In . SVG Version: 6.00 Build 0)  -->
<svg version="1.1" id="Layer_1" xmlns="http://www.w3.org/2000/svg" xmlns:xlink="http://www.w3.org/1999/xlink" x="0px" y="0px"
	 viewBox="0 0 1440 720" style="enable-background:new 0 0 1440 720;" xml:space="preserve">
<style type="text/css">
	.st0{fill:#0066F6;}
	.st1{fill:#2083F7;}
	.st2{fill:#3AA4F7;}
	.st3{fill:#56D1F9;}
	.st4{fill:#6AF5FB;}
	.st5{fill:#0062D8;}
</style>
<g>
	<path class="st0" d="M437.4,635.2c-98.4-19.6-201.1-29-301.8-17.5C89.5,622.9,44.1,632.7,0,647.8V720h759.4
		c-104.3-29.9-207.7-61.3-312.8-83C443.5,636.4,440.5,635.8,437.4,635.2z"/>
	<path class="st1" d="M1440,0H0v647.8c44.1-15.1,89.5-25,135.6-30.1c100.7-11.4,203.4-2.2,301.8,17.5c3.1,0.6,6.1,1.3,9.2,1.8
		c105.1,21.6,208.5,53.1,312.8,83H1440V0z"/>
	<path class="st2" d="M430.6,522.9c2.9,0.7,5.8,1.5,8.5,2.2c176.6,47.2,349.8,120.2,534.2,158.9c156.8,32.9,314.5,26.3,466.7-9.2V0
		H0v517.4c47.1-15.8,95.8-24.9,145-27.8C241.6,483.7,338.1,498.8,430.6,522.9z"/>
	<path class="st3" d="M0,0v386.5c50-16.6,102.1-24.6,154.3-24.9c92.5-0.7,182.9,20.4,269.4,49.1c2.7,0.9,5.3,1.8,8,2.7
		c165.2,55.8,329.1,131.5,506.2,172.9c168,39.3,338.7,31,502.1-11.3V0H0z"/>
	<path class="st4" d="M163.6,233.5c88.4,5.4,172.7,31.7,253.2,64.9c2.5,1,4.9,2.1,7.5,3.1c153.9,64.4,308.4,142.7,478.2,186.9
		c178.9,46.6,363.1,36.7,537.6-13.3V0H0v254.9C53.1,237.2,108.5,230.1,163.6,233.5z"/>
	<path class="st3" d="M1440,0H0v122.7c56.1-18.8,114.9-24.8,173-17.3c84.2,10.9,162.4,42.9,237,80.6c2.3,1.2,4.6,2.3,6.9,3.5
		c142.6,73,287.7,153.8,450.3,200.9c189.5,54.9,387.7,44.1,572.9-14.9L1440,0L1440,0z"/>
	<path class="st2" d="M409.4,77.7c131.2,81.6,267,164.7,422.3,214.8c187.7,60.7,388.2,54.7,574.1-4.8c11.5-3.7,22.9-7.6,34.3-11.6V0
		H259.3c50.4,19.2,97.8,45.5,143.7,73.8C405.2,75.1,407.2,76.4,409.4,77.7z"/>
	<path class="st1" d="M1440,0H448.2c106.3,77.2,219.1,148.1,348.1,194.6c172.6,62.3,360,67.2,535.5,19c36.7-10.1,73-22.7,108.3-37.5
		L1440,0L1440,0z"/>
	<path class="st0" d="M1257.8,139.3c42.5-9.5,84.2-22.8,124.7-39.4c19.5-8,38.7-16.9,57.5-26.5V0H579.1
		c56.6,37.5,116.7,70.4,181.9,96.7C918.4,160.3,1092.8,176.5,1257.8,139.3z"/>
	<path class="st5" d="M1183.8,65.2c67.8-11.3,134-33.4,195.1-65.2H728.2C870.1,63.9,1030.2,90.9,1183.8,65.2z"/>
</g>
</svg>
