<?xml version="1.0" encoding="utf-8"?>
<!-- Generator: Adobe Illustrator 26.3.1, SVG Export Plug-In . SVG Version: 6.00 Build 0)  -->
<svg version="1.1" id="Layer_1" xmlns="http://www.w3.org/2000/svg" xmlns:xlink="http://www.w3.org/1999/xlink" x="0px" y="0px"
	 viewBox="0 0 828 400" style="enable-background:new 0 0 828 400;" xml:space="preserve">
<style type="text/css">
	.st0{opacity:0.35;}
	.st1{fill:#AFAFAF;}
	.st2{clip-path:url(#SVGID_00000130625912614988761340000011902653949165448596_);}
	.st3{opacity:0.35;fill:#AFAFAF;}
</style>
<g id="Clip-2">
</g>
<g id="Clip-10">
</g>
<g class="st0">
	<path class="st1" d="M670.7,199.1c0.7-17.4-4.4-36.3-13.1-52.2c-8-15.2-19.6-28.3-33.4-37.7l-5.1-3.6l-16,27.6l3.6,2.9
		c19.6,15.2,31.2,39.2,31.2,63.8c0,13.1-3.6,26.1-9.4,37.7c-5.1,9.4-11.6,17.4-20.3,24.7l-3.6,2.9l16,29.7l5.1-5.1
		c13.1-9.4,23.9-22.5,31.2-37C665.6,236.1,670.7,217.9,670.7,199.1z"/>
	<path class="st1" d="M712,281.8c6.5-12.3,11.6-26.1,15.2-39.9c3.6-13.8,5.1-28.3,5.1-42.1c0-13.8-1.5-28.3-5.1-42.1
		c-3.6-13.8-8.7-27.6-15.2-39.9c-6.5-12.3-15.2-23.9-24.7-34.8c-9.4-10.9-20.3-20.3-32.6-28.3l-5.1-3.6l-16,28.3l4.4,2.9
		c18.9,12.3,34.8,29.7,45.7,50c5.8,10.2,9.4,21,12.3,32.6c2.9,11.6,4.4,23.2,4.4,34.8c0,11.6-1.5,23.2-4.4,34.1
		c-2.9,11.6-7.3,22.5-12.3,32.6c-10.9,19.6-26.1,37-44.2,50l-4.4,2.9l15.2,28.3l5.1-3.6C679.4,328.2,699,306.4,712,281.8z"/>
	<path class="st1" d="M783.8,143.2c-4.4-18.1-11.6-36.3-20.3-52.9c-8.7-16.7-20.3-32.6-32.6-46.4c-13.1-13.8-27.6-26.8-43.5-37
		c-2.2-1.5-3.6-2.2-5.8-2.2L677.2,4l-13.8,23.9l2.2,2.9c0.7,0.7,2.2,1.5,3.6,2.9c13.8,8.7,26.1,19.6,37,31.9s20.3,25.4,28.3,39.9
		c8,14.5,13.8,29.7,18.1,45.7c3.6,16,5.8,32.6,5.8,48.6c0,16.7-2.2,32.6-5.8,49.3c-4.4,16-10.2,31.2-18.1,45.7
		c-8,14.5-17.4,28.3-28.3,39.9c-10.9,12.3-23.9,23.2-37,31.9c-1.5,0.7-2.2,1.5-3.6,2.9l-2.9,2.9l13.1,23.9l4.4-0.7
		c2.2,0,4.4-1.5,6.5-2.2c16-10.9,30.5-23.2,43.5-37c13.1-14.5,23.9-29.7,32.6-46.4c18.1-33.4,27.6-71.1,27.6-109.5
		C790.4,181,788.2,162.1,783.8,143.2z"/>
</g>
<g id="Group-33" transform="translate(14.199 17.793)" class="st0">
	<g id="Fill-31_Clipped" transform="translate(0 0)">
		<g id="path-15-2">
			<path class="st1" d="M381.6,310.3h-31.2V123.9h31.2v18.1h1.5c2.2-5.8,6.5-10.9,11.6-14.5c6.5-4.4,14.5-5.8,22.5-5.8
				c27.6,0,43.5,20.3,43.5,53.7v14.5c0,33.4-16.7,53.7-44.2,53.7c-14.5,1.5-27.6-6.5-33.4-19.6h-1.5V310.3L381.6,310.3z
				 M404.8,147.2c-14.5,0-23.2,10.9-23.2,29v13.8c0,16.7,9.4,27.6,23.9,27.6s23.2-10.9,23.2-30.5v-9.4c0.7-8-1.5-16-6.5-22.5
				C417.9,150.1,412.1,147.2,404.8,147.2z M512.2,243.6c-12.3,0.7-25.4-2.9-35.5-9.4c-8-5.8-13.1-15.2-13.1-25.4h30.5
				c0.7,3.6,2.2,7.3,5.8,9.4c4.4,2.9,9.4,4.4,14.5,3.6c5.1,0,10.2-0.7,15.2-3.6c2.9-2.2,4.4-5.8,4.4-9.4c0-9.4-11.6-11.6-24.7-13.8
				l0,0c-1.5,0-2.9-0.7-5.1-0.7c-9.4-1.5-18.9-5.1-26.8-10.2c-7.3-5.8-11.6-15.2-10.9-24.7c-0.7-11.6,5.1-22.5,14.5-29
				c10.2-5.8,21.8-9.4,33.4-8.7c11.6-0.7,23.2,2.9,32.6,8.7c8,5.8,13.1,16,13.1,26.1h-27.6c-1.5-8.7-10.2-14.5-18.9-13.8
				c-10.9,0-18.1,5.1-18.1,13.1c0,10.2,14.5,13.1,26.8,14.5c1.5,0,2.9,0.7,3.6,0.7c9.4,0.7,18.9,4.4,26.8,10.2
				c7.3,5.8,10.9,14.5,10.2,23.2C563.7,229.1,544.8,243.6,512.2,243.6L512.2,243.6z M293.2,243.6c-14.5,0.7-29-4.4-39.9-13.8
				c-5.1-5.1-8.7-10.9-10.9-17.4c-2.9-8-4.4-16-3.6-23.9v-12.3c-0.7-15.2,5.1-29.7,15.2-41.3c5.1-4.4,10.9-8,16.7-10.2
				c7.3-2.2,14.5-3.6,21-3.6c13.8-0.7,27.6,5.1,37.7,14.5c10.2,10.9,15.2,25.4,14.5,40.6v13.1h-74.7v5.8c0,6.5,2.2,13.1,6.5,17.4
				c4.4,4.4,10.9,7.3,17.4,6.5c10.9,0,19.6-5.1,21-13.1h29C342.5,221.1,328.7,243.6,293.2,243.6L293.2,243.6z M292.4,145
				c-12.3,0-22.5,9.4-22.5,21.8c0,0.7,0,1.5,0,2.2v0.7h44.2l0,0c0-6.5-2.2-13.1-5.8-18.1C304,147.2,298.2,145,292.4,145z M180,243.6
				c-14.5,0.7-29-4.4-39.9-13.8c-5.1-5.1-8.7-10.9-10.9-17.4c-2.2-8-3.6-16-3.6-23.9v-12.3c-0.7-15.2,5.1-29.7,15.2-41.3
				c5.1-4.4,10.9-8,16.7-10.2c7.3-2.2,13.8-3.6,21-3.6c13.8-0.7,27.6,5.1,37.7,14.5c10.2,10.9,15.2,25.4,14.5,40.6v13.1h-74.7v5.8
				c0,6.5,2.2,13.1,6.5,17.4c4.4,4.4,10.9,7.3,17.4,6.5c10.9,0,19.6-5.1,21-13.1h29C229.3,221.1,214.8,243.6,180,243.6z M178.6,145
				c-12.3,0-22.5,9.4-22.5,21.8c0,0.7,0,1.5,0,2.2v0.7h45l0,0c0-6.5-2.2-13.1-5.8-18.1C190.9,147.2,185.1,145,178.6,145z"/>
		</g>
		<g>
			<g>
				<defs>
					<path id="SVGID_1_" d="M381.6,310.3h-31.2V123.9h31.2v18.1h1.5c2.2-5.8,6.5-10.9,11.6-14.5c6.5-4.4,14.5-5.8,22.5-5.8
						c27.6,0,43.5,20.3,43.5,53.7v14.5c0,33.4-16.7,53.7-44.2,53.7c-14.5,1.5-27.6-6.5-33.4-19.6h-1.5V310.3L381.6,310.3z
						 M404.8,147.2c-14.5,0-23.2,10.9-23.2,29v13.8c0,16.7,9.4,27.6,23.9,27.6s23.2-10.9,23.2-30.5v-9.4c0.7-8-1.5-16-6.5-22.5
						C417.9,150.1,412.1,147.2,404.8,147.2z M512.2,243.6c-12.3,0.7-25.4-2.9-35.5-9.4c-8-5.8-13.1-15.2-13.1-25.4h30.5
						c0.7,3.6,2.2,7.3,5.8,9.4c4.4,2.9,9.4,4.4,14.5,3.6c5.1,0,10.2-0.7,15.2-3.6c2.9-2.2,4.4-5.8,4.4-9.4
						c0-9.4-11.6-11.6-24.7-13.8l0,0c-1.5,0-2.9-0.7-5.1-0.7c-9.4-1.5-18.9-5.1-26.8-10.2c-7.3-5.8-11.6-15.2-10.9-24.7
						c-0.7-11.6,5.1-22.5,14.5-29c10.2-5.8,21.8-9.4,33.4-8.7c11.6-0.7,23.2,2.9,32.6,8.7c8,5.8,13.1,16,13.1,26.1h-27.6
						c-1.5-8.7-10.2-14.5-18.9-13.8c-10.9,0-18.1,5.1-18.1,13.1c0,10.2,14.5,13.1,26.8,14.5c1.5,0,2.9,0.7,3.6,0.7
						c9.4,0.7,18.9,4.4,26.8,10.2c7.3,5.8,10.9,14.5,10.2,23.2C563.7,229.1,544.8,243.6,512.2,243.6L512.2,243.6z M293.2,243.6
						c-14.5,0.7-29-4.4-39.9-13.8c-5.1-5.1-8.7-10.9-10.9-17.4c-2.9-8-4.4-16-3.6-23.9v-12.3c-0.7-15.2,5.1-29.7,15.2-41.3
						c5.1-4.4,10.9-8,16.7-10.2c7.3-2.2,14.5-3.6,21-3.6c13.8-0.7,27.6,5.1,37.7,14.5c10.2,10.9,15.2,25.4,14.5,40.6v13.1h-74.7v5.8
						c0,6.5,2.2,13.1,6.5,17.4c4.4,4.4,10.9,7.3,17.4,6.5c10.9,0,19.6-5.1,21-13.1h29C342.5,221.1,328.7,243.6,293.2,243.6
						L293.2,243.6z M292.4,145c-12.3,0-22.5,9.4-22.5,21.8c0,0.7,0,1.5,0,2.2v0.7h44.2l0,0c0-6.5-2.2-13.1-5.8-18.1
						C304,147.2,298.2,145,292.4,145z M180,243.6c-14.5,0.7-29-4.4-39.9-13.8c-5.1-5.1-8.7-10.9-10.9-17.4c-2.2-8-3.6-16-3.6-23.9
						v-12.3c-0.7-15.2,5.1-29.7,15.2-41.3c5.1-4.4,10.9-8,16.7-10.2c7.3-2.2,13.8-3.6,21-3.6c13.8-0.7,27.6,5.1,37.7,14.5
						c10.2,10.9,15.2,25.4,14.5,40.6v13.1h-74.7v5.8c0,6.5,2.2,13.1,6.5,17.4c4.4,4.4,10.9,7.3,17.4,6.5c10.9,0,19.6-5.1,21-13.1h29
						C229.3,221.1,214.8,243.6,180,243.6z M178.6,145c-12.3,0-22.5,9.4-22.5,21.8c0,0.7,0,1.5,0,2.2v0.7h45l0,0
						c0-6.5-2.2-13.1-5.8-18.1C190.9,147.2,185.1,145,178.6,145z"/>
				</defs>
				<use xlink:href="#SVGID_1_"  style="overflow:visible;fill:#AFAFAF;"/>
				<clipPath id="SVGID_00000104691269831111416950000012190300824225089199_">
					<use xlink:href="#SVGID_1_"  style="overflow:visible;"/>
				</clipPath>
				
					<g id="Fill-31_Clipped-2" transform="translate(0 0)" style="clip-path:url(#SVGID_00000104691269831111416950000012190300824225089199_);">
					<g id="Fill-31">
						<path class="st1" d="M107.5,328.5h474.3V102.9H107.5V328.5z"/>
					</g>
				</g>
			</g>
		</g>
	</g>
</g>
<path class="st3" d="M129,202c-3.6-3.1-7.4-5.4-11.5-6.8c3.1-1.6,5.9-3.8,8.2-6.5c4-4.9,6.5-12.1,6.5-19c0.8-8.9-3.2-17.9-10.6-23.7
	c-8.3-5.8-17.7-8.5-27-7.8H41.6v124h52.9c11.9,0,22.2-3.6,30.8-10.8c7.8-6.3,12.7-16.6,12.7-26.9C138,216.6,134.9,208.7,129,202z
	 M90.2,209.9c11.6,0,17.4,4.6,17.4,13.8c0,9.2-7.3,13.8-21.8,13.8H72v-27.6H90.2z M72,186.8v-24h16c4.7,0,7.9,0.9,10.3,2.8
	c2.4,2.4,3.5,5.3,3.5,8.8c0,3.1,0,12.4-18.2,12.4H72z"/>
<path class="st3" d="M161.9,70c0-8.9,5.4-16.3,13-18.7V18.9H143v72.5h-0.7c-6.5,0-10.9-8-12.3-10.2l-17.4-35.5
	C106,29.8,90,19.7,73.4,18.9H40v101.5h31.9V47.9h1.5c8,0,12.3,10.2,12.3,10.2l17.4,35.5c3.6,8,8.7,14.5,16,19.6
	c7.3,5.1,15.2,7.3,23.2,7.3h32.6V87.9C167.3,85.6,161.9,78.3,161.9,70z"/>
<path class="st3" d="M538.2,18.9l-38.4,75.4l-41.3-75.4h-272v32.6c7.6,2.7,13,9.8,12.4,18.4c0.6,8-4.8,15.1-12.4,17.7v32.1h87
	c12.3,0.7,24.7-3.6,33.4-12.3c8-9.4,11.6-21.8,10.9-34.1V62.4c0-6.5-0.7-13.1-2.2-19.6h47.9v77.6h30.5V42.9h42.8l43.5,77.6h38.4
	l52.9-101.5H538.2z M286.6,80.6c0,10.9-5.8,16-18.1,16h-16.7H217V42.9h34.8h16.7c11.6,0,18.1,5.1,18.1,15.2V80.6z"/>
</svg>
