<svg xmlns="http://www.w3.org/2000/svg" xmlns:xlink="http://www.w3.org/1999/xlink" width="1041.255" height="362.644" viewBox="0 0 1041.255 362.644">
  <defs>
    <clipPath id="clip-path">
      <path id="Path_2" data-name="Path 2" d="M159.39,115.636h-1.571c-10.433,0-16.717-10.876-19.336-15.75L111.817,43.853C99.249,17.75,76.771,2,51.675,2H1V161.316H50.1V47.68h1.571c11,0,17.764,11.964,19.336,15.75L98.2,119.423c11.521,26.1,33.958,41.853,59.578,41.853H207.97V2H159.39Z" transform="translate(-1 -2)" fill="#fff"/>
    </clipPath>
    <clipPath id="clip-path-2">
      <rect id="Rectangle_4" data-name="Rectangle 4" width="805.622" height="160.546" fill="#fff"/>
    </clipPath>
    <clipPath id="clip-path-3">
      <path id="Path_4" data-name="Path 4" d="M1083.036,2l-59.013,118.511L961.384,2H649.8V39.5h25.378c18.127,0,26.909,9.789,26.909,24.451v34.8c0,16.314-8.3,25.015-26.909,25.015H649.8v37.543h32.1c45.559,0,67.312-27.714,67.312-73.394V70.48c0-4.874,0-17.926-3.666-30.977h72.468V161.276H864.58V39.5H929.8l64.734,121.773h58.49L1133.228,2ZM649.8,2H549.9V161.316h99.9V123.773H596.99V39.5H649.8Z" transform="translate(-549.9 -2)" fill="#fff"/>
    </clipPath>
    <clipPath id="clip-path-5">
      <path id="Path_5" data-name="Path 5" d="M514.909,158.387a29.205,29.205,0,1,1-58.41,0c0-15.791,12.851-29.487,28.924-29.487a29.6,29.6,0,0,1,29.487,29.487" transform="translate(-456.5 -128.9)"/>
    </clipPath>
    <clipPath id="clip-path-6">
      <rect id="Rectangle_9" data-name="Rectangle 9" width="805.622" height="160.546"/>
    </clipPath>
  </defs>
  <g id="NDTV-MP-Logo" transform="translate(-19 -320.932)">
    <path id="Path_6" data-name="Path 6" d="M26,0H1067.255V167.335H26Z" transform="translate(-7 516.241)" fill="#e67750"/>
    <path id="Path_7" data-name="Path 7" d="M-432.41-33.918h-23.47v8.2q0,5.144-4.019,5.144-3.536,0-11.976-7.8t-8.439-11.172q0-3.7,4.5-4.5.643-.161,7.073-.161v-23.63H-486.9V-77.964h44.2v10.127h-13.18v23.63h23.469Zm27.31-33.918h-16.075V0h-13.5V-67.836h-11.574V-77.964H-405.1Zm45.472,47.9q-9.645,9-23.791,9A24.294,24.294,0,0,1-399.175-16.4a17.965,17.965,0,0,1-7.234-14.628q0-8.52,6.269-13.181a18.067,18.067,0,0,1-7.234-7.234,19.961,19.961,0,0,1-2.733-9.966,17.077,17.077,0,0,1,5.465-12.7,17.861,17.861,0,0,1,12.86-5.3,16.875,16.875,0,0,1,11.976,4.421,15.185,15.185,0,0,1,4.742,11.654,18.351,18.351,0,0,1-.161,2.572h-10.288v-1.125q0-8.68-5.3-8.68-7.716,0-7.716,9.806a12.225,12.225,0,0,0,7.073,11.574q2.893-1.929,10.288-1.929,1.125,0,4.822.161l4.822,9q-1.607-.161-3.376-.161-18.486,0-18.486,10.77a9.854,9.854,0,0,0,3.456,7.716,12.077,12.077,0,0,0,8.279,3.054q11.735,0,22.023-10.609Zm40.649,1.125a32.949,32.949,0,0,1-16.075,4.34q-13.664,0-22.1-8.2T-365.6-44.528a25.975,25.975,0,0,0,3.376.161q14.628,0,14.628-11.092a18.075,18.075,0,0,0-1.768-6.832q-1.768-4.1-3.858-5.546h-20.094V-77.964h44.528v10.127H-340.04a22.591,22.591,0,0,1,5.3,14.146q0,13.342-10.77,17.2a15.442,15.442,0,0,1-5.144,1.125,11.13,11.13,0,0,0,4.662,8.359,15.917,15.917,0,0,0,9.645,3.054,25.041,25.041,0,0,0,17.361-7.073ZM-291.35-67.84h-16.075V0h-13.5V-67.836H-332.5V-77.964h41.152Zm87.889,45.171a28.26,28.26,0,0,1-14.307,4.34,24.712,24.712,0,0,1-16.075-5.626,17.977,17.977,0,0,1-6.912-14.628V-67.836h-10.127V-77.964h37.455v10.127h-13.985v27.488q0,12.217,10.127,12.217,8.359,0,13.824-7.073Zm27.629-45.171H-191.91V0h-13.5V-67.836h-11.574V-77.964h41.152ZM-204.3-18.811l-37.94,24.919L-248.514-4.18l44.206-23.469ZM-101.6-67.84h-18.808V-47.9h-26.524a13.21,13.21,0,0,0-9.082,3.054,9.209,9.209,0,0,0-3.456,7.073q0,12.378,16.557,12.378a44.375,44.375,0,0,0,6.591-.482v-1.286q0-10.931,10.288-10.931a9.594,9.594,0,0,1,6.832,2.652,8.6,8.6,0,0,1,2.813,6.51q0,7.877-6.912,11.252.964,2.733,6.269,15.753L-128.937.8l-4.179-16.075a14.3,14.3,0,0,0-3.054,0,33.282,33.282,0,0,1-5.787.482,39.776,39.776,0,0,1-21.058-5.465q-10.931-6.591-10.931-18.808A17.654,17.654,0,0,1-168.159-52.4,19.239,19.239,0,0,1-154.5-57.87h20.576v-9.966h-47.421V-77.964h79.732Zm-20.435-9.323h-9l-32.15-28.613,9.966-8.037Zm77.923,9.323H-54.731a21.579,21.579,0,0,1,5.144,14.628q0,20.576-16.718,27.006a27.282,27.282,0,0,1-8.359,1.929A242.952,242.952,0,0,0-54.731-8.841l-7.877,9.8A248.029,248.029,0,0,1-81.9-15.11q-7.716-6.912-15.593-14.95l8.52-8.52,4.983,4.662a18.093,18.093,0,0,0,5.948.8A13.436,13.436,0,0,0-68.236-36.9a14.148,14.148,0,0,0,4.179-9.725q-6.43,2.572-10.609,2.572-8.037,0-13.181-4.019A14.22,14.22,0,0,1-93.632-60.12a10.807,10.807,0,0,1,3.054-7.716h-14.789V-77.964h61.246Zm-18.968,9a10.453,10.453,0,0,0-3.7-7.073,11.3,11.3,0,0,0-7.555-2.733,6.475,6.475,0,0,0-4.983,2.331,7.825,7.825,0,0,0-2.09,5.385q0,7.716,8.68,7.716,7.392.006,9.643-5.62Zm56.564-9H-22.6V0H-36.1V-67.836H-47.678V-77.964H-6.526Zm158.169,0h-26.69v9.966q5.626.643,8.841,6.108a20.584,20.584,0,0,1,2.733,10.609q0,14.789-14.789,27.167Q107.6-2.25,92.487-2.25q-11.413,0-19.29-6.671T65.32-26.845q0-9,8.2-15.432a12.112,12.112,0,0,1-4.662-2.25q-8.037-5.626-8.037-13.5a16.011,16.011,0,0,1,3.7-9.806H52.943V-77.964h98.7ZM124-41.64q0-8.037-6.108-8.037-5.787,0-5.787,8.841t5.948,13.342a4.536,4.536,0,0,0,1.447-1.447,21.133,21.133,0,0,0,4.495-12.693ZM112.581-58.352v-9.484h-35.2Q74-64.621,74-58.674q0,6.751,5.948,8.52,2.572.8,11.413.8l2.893,9.806H88.629a9.018,9.018,0,0,0-7.636,3.778,14.271,14.271,0,0,0-2.813,8.761,14.251,14.251,0,0,0,4.18,10.371,13.662,13.662,0,0,0,10.127,4.26,28.26,28.26,0,0,0,9.484-2.09q6.269-2.25,8.359-4.983-9.806-10.931-9.806-23.309a16.377,16.377,0,0,1,3.3-10.047,14.119,14.119,0,0,1,8.757-5.545Zm78.4-9.484H141.154V-77.964h49.832Zm9.806,22.5H174.268q-5.626,3.054-5.626,10.127,0,12.7,13.5,24.434a45.184,45.184,0,0,0,3.7,2.893l-9,7.555a43.047,43.047,0,0,1-4.822-4.822Q155.945-22.671,155.945-35.37q0-4.019,4.5-9.966H144.529v-9.806h56.262Zm27.629-22.5H212.345V0h-13.5V-67.836H187.268V-77.964H228.42Zm25.217,0h-9.806V0h-13.5V-67.836H218.755V-77.964h10.288q-13.181-27.81-22.826-27.81-8.359,0-8.359,10.449,0,3.376,2.572,9.645,2.572,6.751,4.983,8.52H192.392a25.365,25.365,0,0,1-4.822-8.922,31.957,31.957,0,0,1-1.929-10.047q0-18.808,18-18.808,20.9,0,37.937,36.972h12.056Zm65.4,32.471h-14.95l-7.234-10.127h22.183ZM308.594-67.836H296.216v19.129q0,7.877-5.144,11.252A20.155,20.155,0,0,1,280.945-34.4a177.349,177.349,0,0,0,17.2,21.862q1.447,1.447,3.858,4.179L291.554-.8Q289.3-3.536,284.964-9a316.459,316.459,0,0,1-27.649-41.473l10.127-6.269q4.983,12.217,10.127,12.217,5.3,0,5.3-5.465V-67.836H250.242V-77.964h58.352Zm37.6,0h-16.08V0h-13.5V-67.836H305.037V-77.964h41.152Zm35.345,0H369.8l.161,37.776q0,5.626-4.823,5.626-3.054,0-11.815-6.751t-8.761-9.484q0-3.7,4.662-4.34h7.234V-67.836H336.524V-77.964h45.01Zm37.434,0h-16.08V0h-13.5V-67.836H377.816V-77.964h41.152Zm70.388,0H470.548v22.5H442.417a11.294,11.294,0,0,0-8.279,3.456,11.294,11.294,0,0,0-3.456,8.279q0,11.092,11.735,19.29,3.858,2.733,6.269,2.733A18.227,18.227,0,0,1,445.31-22.83a13.789,13.789,0,0,1,5.064-10.931,17.6,17.6,0,0,1,11.815-4.34,18.029,18.029,0,0,1,12.137,4.5,14.244,14.244,0,0,1,5.224,11.252,18.61,18.61,0,0,1-7.636,15.512,28.093,28.093,0,0,1-17.6,5.867q-13.5,0-24.755-9.806-11.9-10.288-11.9-23.469a20.223,20.223,0,0,1,6.108-14.709A19.829,19.829,0,0,1,438.4-55.137h18.808v-12.7H409.3V-77.964h80.053ZM467.333-21.862a7.779,7.779,0,0,0-1.688-4.9,5.184,5.184,0,0,0-4.26-2.17,5.216,5.216,0,0,0-4.421,2.331,8.456,8.456,0,0,0-1.688,5.064q0,7.394,4.983,9.806a7.327,7.327,0,0,0,5.064-3.617,11.9,11.9,0,0,0,2.01-6.514ZM449.47,15.11H437.092V2.572H449.47Z" transform="translate(537.438 649.638)" fill="#fff"/>
    <g id="Group_2" data-name="Group 2" transform="translate(138 320.932)" clip-path="url(#clip-path)">
      <rect id="Rectangle_2" data-name="Rectangle 2" width="805.622" height="160.546" transform="translate(-0.462 -0.89)" fill="#fff"/>
      <g id="Group_1" data-name="Group 1" transform="translate(-0.462 -0.89)" clip-path="url(#clip-path-2)">
        <rect id="Rectangle_3" data-name="Rectangle 3" width="211.039" height="163.345" transform="translate(-1.552 -1.124)" fill="#fff"/>
      </g>
    </g>
    <g id="Group_5" data-name="Group 5" transform="translate(359.11 320.932)" clip-path="url(#clip-path-3)">
      <rect id="Rectangle_5" data-name="Rectangle 5" width="805.622" height="160.546" transform="translate(-221.571 -0.89)" fill="#fff"/>
      <g id="Group_4" data-name="Group 4" transform="translate(-221.571 -0.89)" clip-path="url(#clip-path-2)">
        <rect id="Rectangle_6" data-name="Rectangle 6" width="587.356" height="163.345" transform="translate(219.557 -1.124)" fill="#fff"/>
      </g>
    </g>
    <g id="Group_8" data-name="Group 8" transform="translate(321.486 372.05)" clip-path="url(#clip-path-5)">
      <g id="Group_7" data-name="Group 7" transform="translate(-183.948 -52.008)" clip-path="url(#clip-path-6)">
        <rect id="Rectangle_8" data-name="Rectangle 8" width="62.438" height="62.438" transform="translate(181.934 49.994)" fill="#ec1d24"/>
      </g>
    </g>
    <path id="Path_7-2" data-name="Path 7" d="M-.606,143.127a1.894,1.894,0,0,1-1.894-1.9V9.394A1.894,1.894,0,0,1-.606,7.5,1.894,1.894,0,0,1,1.288,9.394V141.232a1.894,1.894,0,0,1-1.894,1.9Z" transform="translate(563.621 524.653)" fill="#fff"/>
  </g>
</svg>
