<?xml version="1.0" encoding="UTF-8"?>
<svg version="1.1" xmlns="http://www.w3.org/2000/svg" width="249" height="119">
<path d="M0 0 C23.97807018 0 23.97807018 0 31.68359375 7.671875 C35.43600748 12.57465229 37.76143367 18.43666822 40.33789062 24.0078125 C40.75361328 24.87664063 41.16933594 25.74546875 41.59765625 26.640625 C41.96383057 27.42985352 42.33000488 28.21908203 42.70727539 29.03222656 C44.05827276 31.4474661 44.05827276 31.4474661 48 33 C48 22.11 48 11.22 48 0 C53.28 0 58.56 0 64 0 C64.495 6.93 64.495 6.93 65 14 C65.33 14 65.66 14 66 14 C66.33 9.38 66.66 4.76 67 0 C83.58531803 -0.23159305 100.16996842 -0.40999403 116.75650978 -0.51812172 C124.45818787 -0.5696646 132.15884232 -0.63991715 139.85986328 -0.75439453 C146.57299939 -0.85413912 153.28539425 -0.91859771 159.99925077 -0.94088495 C163.55394798 -0.95391243 167.1065249 -0.98446558 170.66054153 -1.05730057 C174.63037765 -1.1379956 178.59814927 -1.139895 182.56884766 -1.13525391 C184.33183197 -1.18918304 184.33183197 -1.18918304 186.13043213 -1.24420166 C189.38414114 -1.20298795 191.92774159 -1.07868678 195 0 C197.80549859 3.0208272 199.38424641 6.23792828 201 10 C201.9278833 11.60705811 201.9278833 11.60705811 202.87451172 13.24658203 C203.38771973 14.15778809 203.90092773 15.06899414 204.4296875 16.0078125 C204.94257324 16.9167627 205.45545898 17.82571289 205.98388672 18.76220703 C206.6079541 19.87192871 207.23202148 20.98165039 207.875 22.125 C209.89625 25.71375 211.9175 29.3025 214 33 C219.61 22.11 225.22 11.22 231 0 C236.61 0 242.22 0 248 0 C246.64471977 4.06584068 245.48035898 7.26020027 243.53125 10.94921875 C243.04688477 11.8714624 242.56251953 12.79370605 242.06347656 13.74389648 C241.5475293 14.71528564 241.03158203 15.6866748 240.5 16.6875 C239.97116211 17.69176025 239.44232422 18.69602051 238.89746094 19.73071289 C237.80659613 21.80129963 236.71381139 23.87087598 235.61914062 25.93945312 C233.63706126 29.6860374 231.66529957 33.43798947 229.69433594 37.19042969 C227.79908383 40.79512488 225.89908558 44.39732294 224 48 C217.4 48 210.8 48 204 48 C202.87980469 45.96457031 201.75960937 43.92914063 200.60546875 41.83203125 C199.51349056 39.84940361 198.42118942 37.86695422 197.32885742 35.88452148 C196.57298594 34.51231158 195.81744751 33.13991815 195.06225586 31.76733398 C193.97338087 29.78840956 192.88328876 27.81015981 191.79296875 25.83203125 C191.29122383 24.91923149 191.29122383 24.91923149 190.77934265 23.98799133 C189.32599128 21.35364193 187.84848744 18.75559948 186.26293945 16.19799805 C185 14 185 14 185 12 C178.4 12 171.8 12 165 12 C165 23.88 165 35.76 165 48 C160.05 48 155.1 48 150 48 C150 36.12 150 24.24 150 12 C143.07 12 136.14 12 129 12 C129.33 12.99 129.66 13.98 130 15 C131.18251297 35.23916425 131.18251297 35.23916425 125.41796875 41.80078125 C120.81157394 46.00574732 116.35688535 48.2604585 110.02612305 48.22705078 C108.58519539 48.22682419 108.58519539 48.22682419 107.11515808 48.22659302 C106.0910231 48.21627045 105.06688812 48.20594788 104.01171875 48.1953125 C102.95338333 48.1924826 101.89504791 48.18965271 100.80464172 48.18673706 C97.43214502 48.1755629 94.05991613 48.15046307 90.6875 48.125 C88.3977903 48.11496664 86.10807643 48.10584141 83.81835938 48.09765625 C78.21213676 48.07563255 72.60611375 48.04112141 67 48 C66.67 43.38 66.34 38.76 66 34 C65.67 34 65.34 34 65 34 C64.67 38.62 64.34 43.24 64 48 C60.66577562 48.10872471 57.33515341 48.18766068 54 48.25 C53.06542969 48.28351562 52.13085938 48.31703125 51.16796875 48.3515625 C44.93949186 48.43867406 40.02761845 47.89829113 35 44 C30.03966172 38.86780168 26.96321504 32.45592195 23.8125 26.125 C22.97206998 24.43648809 22.12470691 22.75140431 21.26953125 21.0703125 C20.90448486 20.33570801 20.53943848 19.60110352 20.16333008 18.84423828 C18.98177629 16.69333051 18.98177629 16.69333051 16 15 C16 25.89 16 36.78 16 48 C10.72 48 5.44 48 0 48 C0 32.16 0 16.32 0 0 Z M83 12 C83 19.92 83 27.84 83 36 C87.22955053 36.08093399 91.45755211 36.1404757 95.6875 36.1875 C97.48477539 36.22520508 97.48477539 36.22520508 99.31835938 36.26367188 C101.05375977 36.27817383 101.05375977 36.27817383 102.82421875 36.29296875 C104.41882935 36.31653442 104.41882935 36.31653442 106.0456543 36.34057617 C109.46598841 35.94628098 111.32063794 35.15183031 114 33 C114.43560192 29.95383271 114.56627319 27.52490746 114.4375 24.5 C114.43169922 23.72785156 114.42589844 22.95570312 114.41992188 22.16015625 C114.33629175 18.29978981 114.18045186 16.27067778 112 13 C108.76248322 11.92082774 106.42248229 11.88574399 103.01953125 11.90234375 C101.27446289 11.90717773 101.27446289 11.90717773 99.49414062 11.91210938 C97.67172852 11.92467773 97.67172852 11.92467773 95.8125 11.9375 C93.97268555 11.94426758 93.97268555 11.94426758 92.09570312 11.95117188 C89.06378135 11.96296924 86.0318846 11.98090486 83 12 Z " fill="#FEFEFE" transform="translate(1,0)"/>
<path d="M0 0 C23.97807018 0 23.97807018 0 31.68359375 7.671875 C35.43600748 12.57465229 37.76143367 18.43666822 40.33789062 24.0078125 C40.75361328 24.87664063 41.16933594 25.74546875 41.59765625 26.640625 C41.96383057 27.42985352 42.33000488 28.21908203 42.70727539 29.03222656 C44.05827276 31.4474661 44.05827276 31.4474661 48 33 C48 22.11 48 11.22 48 0 C53.28 0 58.56 0 64 0 C64.06510417 3.54817708 64.13020833 7.09635417 64.1953125 10.64453125 C64.65068182 14.25537782 64.65068182 14.25537782 67.9375 15.875 C68.948125 16.24625 69.95875 16.6175 71 17 C72.875 18.1875 72.875 18.1875 74 20 C74.72990587 25.02824041 74.72990587 25.02824041 74 28 C71.59292991 31.09588574 68.71542197 32.76152601 65 34 C64.67 38.62 64.34 43.24 64 48 C60.66577562 48.10872471 57.33515341 48.18766068 54 48.25 C53.06542969 48.28351562 52.13085938 48.31703125 51.16796875 48.3515625 C44.93949186 48.43867406 40.02761845 47.89829113 35 44 C30.03966172 38.86780168 26.96321504 32.45592195 23.8125 26.125 C22.97206998 24.43648809 22.12470691 22.75140431 21.26953125 21.0703125 C20.90448486 20.33570801 20.53943848 19.60110352 20.16333008 18.84423828 C18.98177629 16.69333051 18.98177629 16.69333051 16 15 C16 25.89 16 36.78 16 48 C10.72 48 5.44 48 0 48 C0 32.16 0 16.32 0 0 Z " fill="#FEFEFE" transform="translate(1,0)"/>
<path d="M0 0 C4.95 0 9.9 0 15 0 C15 6.6 15 13.2 15 20 C16.98 19.01 18.96 18.02 21 17 C25.69165187 16.2669294 30.72176564 15.88018989 35.07421875 18.01953125 C37.69390966 20.11908983 38.93719005 21.81157016 40 25 C40.08481773 27.58630224 40.11598229 30.14478056 40.09765625 32.73046875 C40.0962413 33.48088943 40.09482635 34.23131012 40.09336853 35.00447083 C40.0877756 37.3988546 40.07522444 39.79314453 40.0625 42.1875 C40.05748408 43.81184761 40.05292134 45.43619668 40.04882812 47.06054688 C40.0386598 51.04042975 40.01908312 55.02010993 40 59 C35.05 59 30.1 59 25 59 C24.93941406 57.07414062 24.87882812 55.14828125 24.81640625 53.1640625 C24.73201349 50.65103351 24.64736486 48.1380131 24.5625 45.625 C24.52318359 44.35398438 24.48386719 43.08296875 24.44335938 41.7734375 C24.40146484 40.56171875 24.35957031 39.35 24.31640625 38.1015625 C24.27974854 36.98088379 24.24309082 35.86020508 24.20532227 34.70556641 C24.17403987 32.03287229 24.17403987 32.03287229 23 30 C21.00045254 29.95745644 18.99958364 29.95919217 17 30 C15.16780354 31.83219646 15.76098672 34.75713741 15.68359375 37.22265625 C15.64169922 38.48271484 15.59980469 39.74277344 15.55664062 41.04101562 C15.51682404 42.38150736 15.47711186 43.7220022 15.4375 45.0625 C15.39431958 46.40691523 15.35070544 47.7513166 15.30664062 49.09570312 C15.20014717 52.39700013 15.0995325 55.69848579 15 59 C10.05 59 5.1 59 0 59 C0 39.53 0 20.06 0 0 Z " fill="#FFFFFF" transform="translate(44,59)"/>
<path d="M0 0 C4.3853115 2.72024841 6.63995493 6.54486478 8.25 11.375 C9.38846576 28.15337244 9.38846576 28.15337244 4.25 35.375 C-1.71130791 41.18345386 -7.74395342 41.77504585 -15.71777344 41.74072266 C-21.17745515 41.6042932 -25.54860898 40.99994687 -29.75 37.375 C-35.8215798 29.74660487 -35.40701377 21.65531946 -34.75 12.375 C-33.31737357 7.01043689 -30.4465348 3.35329036 -25.75 0.375 C-18.68987419 -3.12966677 -7.20338683 -3.2680772 0 0 Z M-17.421875 10.99609375 C-19.15676945 14.10359586 -19.11531232 16.33251206 -19.0625 19.875 C-19.05863281 20.9990625 -19.05476563 22.123125 -19.05078125 23.28125 C-18.76376704 26.2333962 -18.40720377 27.94366991 -16.75 30.375 C-14.40127469 31.54477494 -14.40127469 31.54477494 -11.75 31.375 C-9.45304554 29.89846004 -9.45304554 29.89846004 -7.75 27.375 C-7.19078796 23.74712566 -7.19078796 23.74712566 -7.375 19.8125 C-7.37693359 18.80413086 -7.37693359 18.80413086 -7.37890625 17.77539062 C-7.44424363 14.12012716 -7.67568853 12.4864672 -9.75 9.375 C-14.0052255 8.72476717 -14.0052255 8.72476717 -17.421875 10.99609375 Z " fill="#FFFFFF" transform="translate(125.75,77.625)"/>
<path d="M0 0 C4.03908154 2.45166958 6.19493209 5.16292127 7.68359375 9.62890625 C3.72359375 10.94890625 -0.23640625 12.26890625 -4.31640625 13.62890625 C-5.30640625 12.30890625 -6.29640625 10.98890625 -7.31640625 9.62890625 C-10.92106373 8.81575714 -10.92106373 8.81575714 -14.31640625 8.62890625 C-14.31640625 9.94890625 -14.31640625 11.26890625 -14.31640625 12.62890625 C-13.44757813 12.73847656 -12.57875 12.84804687 -11.68359375 12.9609375 C2.15152668 14.86442722 2.15152668 14.86442722 6.30078125 19.39453125 C8.84073305 23.49863416 8.39106621 27.97980154 7.68359375 32.62890625 C5.66289636 37.10138314 2.08101261 39.20214859 -2.36547852 41.01806641 C-5.62783453 42.03951738 -8.87054398 42.11707359 -12.25390625 42.06640625 C-12.95539795 42.05955811 -13.65688965 42.05270996 -14.37963867 42.0456543 C-20.12528909 41.86737554 -23.68386334 40.98977072 -28.31640625 37.62890625 C-31.31640625 33.69140625 -31.31640625 33.69140625 -31.31640625 30.62890625 C-29.52620015 29.95832738 -27.73419136 29.29255935 -25.94140625 28.62890625 C-24.94367188 28.25765625 -23.9459375 27.88640625 -22.91796875 27.50390625 C-20.31640625 26.62890625 -20.31640625 26.62890625 -18.31640625 26.62890625 C-17.92453125 27.28890625 -17.53265625 27.94890625 -17.12890625 28.62890625 C-15.3515744 31.05492139 -15.3515744 31.05492139 -11.62890625 30.87890625 C-10.53578125 30.79640625 -9.44265625 30.71390625 -8.31640625 30.62890625 C-7.98640625 29.63890625 -7.65640625 28.64890625 -7.31640625 27.62890625 C-8.34121094 27.44714844 -9.36601562 27.26539062 -10.421875 27.078125 C-11.78264915 26.82473947 -13.14332098 26.57080405 -14.50390625 26.31640625 C-15.17744141 26.19845703 -15.85097656 26.08050781 -16.54492188 25.95898438 C-21.44645874 25.02649687 -25.67413804 24.01540477 -28.609375 19.75 C-30.23479984 14.87372547 -29.99136818 9.56942179 -28.31640625 4.75390625 C-21.23135283 -2.77396301 -9.35160109 -3.86620964 0 0 Z " fill="#FFFFFF" transform="translate(238.31640625,77.37109375)"/>
<path d="M0 0 C4.03908154 2.45166958 6.19493209 5.16292127 7.68359375 9.62890625 C3.72359375 10.94890625 -0.23640625 12.26890625 -4.31640625 13.62890625 C-5.30640625 12.30890625 -6.29640625 10.98890625 -7.31640625 9.62890625 C-10.92106373 8.81575714 -10.92106373 8.81575714 -14.31640625 8.62890625 C-14.31640625 9.94890625 -14.31640625 11.26890625 -14.31640625 12.62890625 C-13.44757812 12.73847656 -12.57875 12.84804687 -11.68359375 12.9609375 C2.15152668 14.86442722 2.15152668 14.86442722 6.30078125 19.39453125 C8.84073305 23.49863416 8.39106621 27.97980154 7.68359375 32.62890625 C5.66289636 37.10138314 2.08101261 39.20214859 -2.36547852 41.01806641 C-5.62783453 42.03951738 -8.87054398 42.11707359 -12.25390625 42.06640625 C-12.95539795 42.05955811 -13.65688965 42.05270996 -14.37963867 42.0456543 C-20.12528909 41.86737554 -23.68386334 40.98977072 -28.31640625 37.62890625 C-31.31640625 33.69140625 -31.31640625 33.69140625 -31.31640625 30.62890625 C-29.52620015 29.95832738 -27.73419136 29.29255935 -25.94140625 28.62890625 C-24.94367187 28.25765625 -23.9459375 27.88640625 -22.91796875 27.50390625 C-20.31640625 26.62890625 -20.31640625 26.62890625 -18.31640625 26.62890625 C-17.92453125 27.28890625 -17.53265625 27.94890625 -17.12890625 28.62890625 C-15.3515744 31.05492139 -15.3515744 31.05492139 -11.62890625 30.87890625 C-10.53578125 30.79640625 -9.44265625 30.71390625 -8.31640625 30.62890625 C-7.98640625 29.63890625 -7.65640625 28.64890625 -7.31640625 27.62890625 C-8.34121094 27.44714844 -9.36601562 27.26539062 -10.421875 27.078125 C-11.78264915 26.82473947 -13.14332098 26.57080405 -14.50390625 26.31640625 C-15.17744141 26.19845703 -15.85097656 26.08050781 -16.54492188 25.95898438 C-21.44645874 25.02649687 -25.67413804 24.01540477 -28.609375 19.75 C-30.23479984 14.87372547 -29.99136818 9.56942179 -28.31640625 4.75390625 C-21.23135283 -2.77396301 -9.35160109 -3.86620964 0 0 Z " fill="#FFFFFF" transform="translate(31.31640625,77.37109375)"/>
<path d="M0 0 C0 4.95 0 9.9 0 15 C3.63 15 7.26 15 11 15 C11 18.3 11 21.6 11 25 C7.37 25 3.74 25 0 25 C0.33 31.6 0.66 38.2 1 45 C5.95 44.505 5.95 44.505 11 44 C11.66 47.3 12.32 50.6 13 54 C8.4667153 56.61615514 5.15916257 57.40909138 -0.0625 57.375 C-1.84333984 57.38660156 -1.84333984 57.38660156 -3.66015625 57.3984375 C-7.32528608 56.96119394 -9.12243119 56.28410142 -12 54 C-14.66443492 50.30001958 -15.36570172 47.79540728 -15.29296875 43.26171875 C-15.28330078 42.19501953 -15.27363281 41.12832031 -15.26367188 40.02929688 C-15.23853516 38.92650391 -15.21339844 37.82371094 -15.1875 36.6875 C-15.17396484 35.56537109 -15.16042969 34.44324219 -15.14648438 33.28710938 C-15.1112138 30.52424771 -15.06192235 27.76237171 -15 25 C-16.98 25 -18.96 25 -21 25 C-21 21.7 -21 18.4 -21 15 C-19.02 15 -17.04 15 -15 15 C-15.01160156 14.07316406 -15.02320313 13.14632812 -15.03515625 12.19140625 C-15.04417969 10.99386719 -15.05320313 9.79632813 -15.0625 8.5625 C-15.07410156 7.36753906 -15.08570313 6.17257813 -15.09765625 4.94140625 C-15 2 -15 2 -14 1 C-9.1786172 0.1321511 -4.96874504 0 0 0 Z " fill="#FFFFFF" transform="translate(192,62)"/>
<path d="M0 0 C0 4.62 0 9.24 0 14 C-3.09244792 14.74869792 -6.18489583 15.49739583 -9.27734375 16.24609375 C-11.89421254 16.72995725 -11.89421254 16.72995725 -13 18 C-13.15764405 19.77869726 -13.25100677 21.56318476 -13.31640625 23.34765625 C-13.35830078 24.42724609 -13.40019531 25.50683594 -13.44335938 26.61914062 C-13.48267578 27.75544922 -13.52199219 28.89175781 -13.5625 30.0625 C-13.60568359 31.20267578 -13.64886719 32.34285156 -13.69335938 33.51757812 C-13.79982738 36.34489508 -13.90045262 39.17243092 -14 42 C-18.95 42 -23.9 42 -29 42 C-29 28.47 -29 14.94 -29 1 C-24.71 1 -20.42 1 -16 1 C-15.34 2.32 -14.68 3.64 -14 5 C-13.175 4.175 -12.35 3.35 -11.5 2.5 C-7.71189747 -0.71716841 -4.82272823 -0.41575243 0 0 Z " fill="#FFFFFF" transform="translate(169,76)"/>
<path d="M0 0 C7.16949153 3.05084746 7.16949153 3.05084746 9 6 C9.72990587 11.02824041 9.72990587 11.02824041 9 14 C6.59292991 17.09588574 3.71542197 18.76152601 0 20 C-3.57130033 17.95925695 -5.7050209 16.44246864 -8 13 C-8.5 9.625 -8.5 9.625 -8 6 C-5.78890137 3.34125563 -3.09300548 1.54650274 0 0 Z " fill="#ED181E" transform="translate(66,14)"/>
</svg>
