<?xml version="1.0" encoding="utf-8"?>
<!-- Generator: Adobe Illustrator 25.2.0, SVG Export Plug-In . SVG Version: 6.00 Build 0)  -->
<svg version="1.1" id="Layer_1" xmlns="http://www.w3.org/2000/svg" xmlns:xlink="http://www.w3.org/1999/xlink" x="0px" y="0px"
	 viewBox="0 0 620 477" style="enable-background:new 0 0 620 477;" xml:space="preserve">
<style type="text/css">
	.st0{opacity:0.18;fill-rule:evenodd;clip-rule:evenodd;fill:#AFAFAF;enable-background:new    ;}
	.st1{opacity:0.35;}
	.st2{fill-rule:evenodd;clip-rule:evenodd;fill:#AFAFAF;}
</style>
<rect class="st0" width="620" height="477"/>
<desc>Created with Sketch.</desc>
<g id="Clip-2">
</g>
<g id="Clip-10">
</g>
<g class="st1">
	<path class="st2" d="M226.2,196.8c0-1.6,1.1-3.3,2.7-3.8v-7.1h-7.1v15.3h-0.5c-1.6,0-2.2-1.6-2.7-2.2l-3.8-7.7
		c-1.6-3.8-4.9-5.5-8.2-5.5h-7.1v21.3h7.1v-15.3h0.5c1.6,0,2.7,1.6,2.7,2.2l3.8,7.7c1.6,3.8,4.9,5.5,8.2,5.5h7.1V200
		C227.9,200,226.2,198.4,226.2,196.8z"/>
	<path class="st2" d="M306.7,185.8l-8.2,15.9l-8.8-15.9h-43.8h-14.2v7.1c1.6,0.5,2.7,2.2,2.7,3.8c0,1.6-1.1,3.3-2.7,3.8v7.1h14.2
		l0,0h4.4c6.6,0,9.3-3.8,9.3-9.9v-2.2c0-0.5,0-2.7-0.5-3.8h10.4v16.4h6.6v-16.4h9.3l9.3,16.4h8.2l11.5-21.3h-7.1v-1.1H306.7z
		 M253,198.9c0,2.2-1.1,3.3-3.8,3.3h-3.8l0,0h-7.1v-11.5h7.1l0,0h3.8c2.7,0,3.8,1.6,3.8,3.3V198.9z"/>
</g>
<g class="st1">
	<path class="st2" d="M359.2,192.9c-44.9-0.5-46.5,29-46.5,29s8.2-5.5,24.1-6c25.2-0.5,24.6-21.3,24.1-23
		C360.8,190.7,359.2,192.9,359.2,192.9z"/>
	<path class="st2" d="M324.2,223c-5.5,0-10.4,1.1-15.3,3.8c-6-8.8-16.4-14.2-27.9-14.2c-19.2,0-34.5,15.3-34.5,34.5
		c0,19.2,15.3,34.5,34.5,34.5c5.5,0,10.4-1.6,15.3-3.8c6,8.8,16.4,14.2,27.9,14.2c19.2,0,34.5-15.3,34.5-34.5S343.3,223,324.2,223z
		 M324.2,274.5c-9.3,0-17-7.7-17-17c0-9.3,7.7-17,17-17s17,7.7,17,17S333.5,274.5,324.2,274.5z M280.9,229.6c6,0,11.5,3.3,14.8,8.2
		c-3.8,5.5-6,12.6-6,19.2c0,1.6,0,2.7,0.5,3.8c-2.7,1.6-6,2.7-9.3,2.7c-9.3,0-17-7.7-17-17C264,237.3,271.6,229.6,280.9,229.6z"/>
	<polygon class="st2" points="201,284.9 217.5,284.9 217.5,259.1 237.7,259.1 237.7,246 217.5,246 217.5,231.2 240.4,231.2 
		240.4,218.1 201,218.1 	"/>
	<path class="st2" d="M419.4,246c0-15.3-12.6-27.9-27.9-27.9h-27.4v67.3h27.4c15.3,0,27.9-12.6,27.9-27.9c0,0,0-4.4,0-6
		S419.4,246,419.4,246z M380.5,232.9h8.8c6,0,12.6,8.2,12.6,14.8c0,0,0,2.7,0,3.8s0,3.8,0,3.8c0,6-6,14.8-12.6,14.8h-8.2v-37.2
		H380.5z"/>
</g>
</svg>
