<?xml version="1.0" encoding="utf-8"?>
<!-- Generator: Adobe Illustrator 26.5.0, SVG Export Plug-In . SVG Version: 6.00 Build 0)  -->
<svg version="1.1" id="Layer_1" xmlns="http://www.w3.org/2000/svg" xmlns:xlink="http://www.w3.org/1999/xlink" x="0px" y="0px"
	 viewBox="0 0 805.4 362.6" style="enable-background:new 0 0 805.4 362.6;" xml:space="preserve">
<style type="text/css">
	.st0{fill:#00A3FC;}
	.st1{fill:#FFFFFF;}
	.st2{fill:#EC1D24;}
</style>
<path id="Path_6" class="st0" d="M66.1,195l672.5,0.1v167.5l-672.5-0.1V195z"/>
<path class="st1" d="M702.4,223.9h-51.6h-11.1h-35.8h-20.4h-21.8h-20.4H499v13c-1.1-1.7-2.4-3.3-3.8-4.8
	c-6.5-6.9-14.9-10.4-25.2-10.4c-8,0-14.9,2.1-20.6,6.4c-1.5,1.1-2.9,2.3-4,3.6l0-7.8h-88.9v0h-31.1h-11.1h-66.4h-20.4h-18.5v0H102.1
	v15.4h57.3v26.2c0,6.2-2.7,9.3-8.1,9.3c-4.9,0-9.6-2.3-14-6.9c-3.9-3.8-7-8.4-9.1-13.5l-15.7,10c16.8,26.8,32.3,48.6,46.5,65.6
	c5.1,5.9,9.1,10.5,12,13.7l14.7-12c-3.8-2.8-10.7-10.3-20.8-22.5c-4.1-5.1-8.7-11.4-13.7-19.1c7.8,0.3,14.4-1.2,19.6-4.7
	c5.9-3.9,8.8-9.6,8.8-17.1v-29.1h5.4h17.6v103.3h20.6V239.3h4.1h20.4h66.4h11.1h6.5v23.3h-48.4c1.6,1.8,2.9,3.3,3.9,4.7
	c8.5,10.9,12.7,20.8,12.7,29.6c0,9.6-3.9,14.4-11.8,14.4c-12.4,0-23.1-13.5-32.1-40.6c-2.4-7.3-3.7-12.1-3.7-14.2v-0.2l-16.2,10
	c3.1,14.4,9.2,28,17.9,39.9c10.6,13.7,22.7,20.6,36.2,20.6c7.9,0.1,15.5-3.2,20.7-9.2c5.5-5.8,8.5-13.5,8.4-21.4
	c0-5.7-1.9-11.8-5.6-18.1h17.8v64.6h20.6V239.3h24.5v0h29.3v27.2c0,5.6-2.7,8.3-8.1,8.3c-5.2,0-10.4-6.2-15.4-18.6l-15.4,9.5
	c11.1,20.2,25.1,41.3,42.1,63.2c4.4,5.6,7.8,9.7,10,12.5l15.9-11.5c-2.4-2.8-4.4-4.9-5.9-6.4c-9.6-10.4-18.4-21.5-26.2-33.3
	c5.5-0.2,10.8-1.8,15.4-4.7c5.2-3.4,7.8-9.1,7.8-17.1v-29.1h14.6c-0.7,2.3-1.1,4.7-1,7.1c0,7.3,2.9,13.1,8.6,17.4
	c5.1,3.8,11.4,5.6,19.1,5.6v-14c-2.5,0-4.9-0.8-6.9-2.4c-1.9-1.5-3-3.9-2.9-6.4c0-6.5,3.8-9.8,11.3-9.8c5.1,0,9,2.3,11.8,6.9
	c2.5,4.2,3.8,9.1,3.7,14c0,7.7-2.9,13.5-8.8,17.6c-4,2.7-8.8,4.3-14.6,4.9v-6.8h-33.8l11,15.4h3.8c1.7,9.1,5.5,16.9,11.7,23.4
	c8.4,8.9,19.5,13.3,33.2,13.3c11.1,0,20.9-2.6,29.5-7.7v24.8h20.6V239.3h4.1h17.6v103.3h20.6V239.3h4.1h20.4h35.8h11.1h6.5v27.9
	h-52.8c-2.3-0.1-4.5,0.9-6,2.7c-1.5,1.8-2.4,4-2.3,6.4c0,3.7,3.6,9.8,10.7,18.2c7.1,8.4,12.4,12.6,16,12.6c4.4,0,6.6-2,6.6-5.9
	l-0.2-17.1h28.1v58.5h20.6V239.3h24.5L702.4,223.9z M509.2,303.7c-7.3,4.2-14.4,6.4-21.1,6.4c-4.9,0.1-9.6-1.3-13.7-3.9
	c-4.2-2.6-7-6.9-7.8-11.8c9.8-0.6,19-4.4,26.4-10.8c8-6.9,12-15.3,12-25.5c0-7.1-1.5-13.4-4.5-18.9h16.2v59.4
	C514.3,300.5,511.8,302.2,509.2,303.7z"/>
<path class="st1" d="M158.6,113.3H157c-10.4,0-16.7-10.9-19.4-15.8l-26.7-56.1C98.4,15.3,75.9-0.5,50.7-0.5H0V159h49.2V45.2h1.6
	c11,0,17.8,12,19.4,15.8l27.2,56.1c11.5,26.1,34,41.9,59.6,41.9h50.3V-0.5h-48.6V113.3z"/>
<path class="st1" d="M755.1-0.5l-59.1,118.7L633.3-0.5h-312h-100V159h100v0h32.1c45.6,0,67.4-27.7,67.4-73.5V68.1
	c0-4.9,0-17.9-3.7-31h72.6V159h46.6V37h65.3L666.5,159h58.6L805.4-0.5H755.1z M373.7,96.4c0,16.3-8.3,25-26.9,25h-25.4v0h-52.9V37
	h52.9h25.4c18.1,0,26.9,9.8,26.9,24.5V96.4z"/>
<circle class="st2" cx="212.9" cy="79.9" r="29.2"/>
</svg>
