<?xml version="1.0" encoding="utf-8"?>
<!-- Generator: Adobe Illustrator 25.0.1, SVG Export Plug-In . SVG Version: 6.00 Build 0)  -->
<svg version="1.1" id="Layer_1" xmlns="http://www.w3.org/2000/svg" xmlns:xlink="http://www.w3.org/1999/xlink" x="0px" y="0px"
	 viewBox="0 0 437.9 341.8" style="enable-background:new 0 0 437.9 341.8;" xml:space="preserve">
<style type="text/css">
	.st0{opacity:0.13;fill:#FFFFFF;}
</style>
<path class="st0" d="M360.5,33.2c0-9.9-8.1-18-18-18s-18,8.1-18,18s8.1,18,18,18S360.5,43.1,360.5,33.2z M342.5,48
	c-8.2,0-14.8-6.6-14.8-14.8s6.6-14.8,14.8-14.8c8.2,0,14.8,6.6,14.8,14.8S350.7,48,342.5,48z"/>
<path class="st0" d="M427.6,256.5h-27.7l19.6-19.6c0.6-0.6,0.6-1.6,0-2.2c-0.6-0.6-1.6-0.6-2.2,0l-19.6,19.6v-27.7
	c0-0.9-0.7-1.6-1.6-1.6c-0.9,0-1.6,0.7-1.6,1.6v27.7L375,234.7c-0.6-0.6-1.6-0.6-2.2,0c-0.6,0.6-0.6,1.6,0,2.2l19.6,19.6h-27.7
	c-0.9,0-1.6,0.7-1.6,1.6s0.7,1.6,1.6,1.6h27.7l-19.6,19.6c-0.6,0.6-0.6,1.6,0,2.2c0.3,0.3,0.7,0.5,1.1,0.5c0.4,0,0.8-0.2,1.1-0.5
	l19.6-19.6v27.7c0,0.9,0.7,1.6,1.6,1.6c0.9,0,1.6-0.7,1.6-1.6v-27.7l19.6,19.6c0.3,0.3,0.7,0.5,1.1,0.5c0.4,0,0.8-0.2,1.1-0.5
	c0.6-0.6,0.6-1.6,0-2.2l-19.6-19.6h27.7c0.9,0,1.6-0.7,1.6-1.6S428.5,256.5,427.6,256.5z"/>
<path class="st0" d="M21.5,112.5c4.8,0.7,9.3-2.7,10-7.5l8.3-58.1c4.9-2.8,8.5-8.3,9.4-14.6c1.5-10.3-4.5-19.7-13.3-20.9
	s-17.1,6.1-18.6,16.4c-0.9,6.3,1,12.6,5,16.6L14,102.5C13.3,107.4,16.7,111.8,21.5,112.5z M17.1,103l8.4-58.9c0.1-0.5-0.1-1-0.5-1.4
	c-3.6-3.3-5.4-8.9-4.6-14.5c1.2-8.6,8-14.7,15.1-13.7s11.8,8.8,10.6,17.4c-0.8,5.6-4,10.4-8.5,12.6c-0.5,0.2-0.8,0.7-0.9,1.2
	l-8.4,58.9c-0.4,3.1-3.3,5.3-6.4,4.8C18.8,109,16.7,106.1,17.1,103z"/>
<path class="st0" d="M152,173.4l-57.2-22.5l1.1-2.9c1.1-2.9-0.3-6.2-3.2-7.3l-30.3-11.9c-0.8-0.3-1.7,0.1-2,0.9l-2.4,6.1
	c-0.3,0.8,0.1,1.7,0.9,2l19.2,7.6l-1.1,2.8l-19.2-7.6c-0.8-0.3-1.7,0.1-2,0.9l-2.4,6.1c-0.3,0.8,0.1,1.7,0.9,2l19.2,7.6l-1.1,2.8
	l-19.2-7.6c-0.8-0.3-1.7,0.1-2,0.9l-2.4,6.1c-0.3,0.8,0.1,1.7,0.9,2l30.3,11.9c2.9,1.1,6.2-0.3,7.3-3.2l1.1-2.9l57,22.4
	c4.5,1.8,9.5-0.2,11.5-4.4c0.1-0.2,0.2-0.4,0.2-0.5c0.8-2.1,0.8-4.4,0-6.5C156.1,176.1,154.3,174.3,152,173.4z M153.9,184.1
	c-1.3,2.7-4.5,3.9-7.5,2.8l-58.4-23c-0.8-0.3-1.7,0.1-2,0.9l-1.7,4.3c-0.5,1.3-2,1.9-3.2,1.4l-28.8-11.3l1.2-3.2l19.2,7.6
	c0.8,0.3,1.7-0.1,2-0.9l2.3-5.7c0.3-0.8-0.1-1.7-0.9-2l-19.2-7.6l1.2-3.2l19.2,7.6c0.8,0.3,1.7-0.1,2-0.9l2.3-5.7
	c0.3-0.8-0.1-1.7-0.9-2l-19.2-7.6l1.2-3.2l28.8,11.3c1.3,0.5,1.9,2,1.4,3.2l-1.7,4.3c-0.3,0.8,0.1,1.7,0.9,2l58.7,23.1
	c1.5,0.6,2.6,1.7,3.2,3.2C154.6,181,154.6,182.6,153.9,184.1z"/>
<path class="st0" d="M70.3,78.6c1.3,0.3,32.1,7.6,75.1-22.4l2.2-1.6c0.7-0.5,0.9-1.5,0.4-2.2l-4.6-6.5L170,27.3
	c4-2.8,5-8.3,2.2-12.3s-8.3-5-12.3-2.2L69.8,75.7c-0.5,0.4-0.8,1-0.6,1.6C69.2,77.9,69.7,78.4,70.3,78.6z M161.7,15.4
	c2.6-1.8,6.1-1.2,7.9,1.4c1.8,2.6,1.2,6.1-1.4,7.9l-27.9,19.4c-0.7,0.5-0.9,1.5-0.4,2.2l4.6,6.5l-1,0.7
	C110.3,76.8,84.2,77,74.8,76.1L161.7,15.4z"/>
<path class="st0" d="M300.9,182.1c-4.6,0-8.3,3.7-8.3,8.3c0,4.6,3.7,8.3,8.3,8.3c4.6,0,8.3-3.7,8.3-8.3
	C309.3,185.8,305.5,182.1,300.9,182.1z M300.9,195.6c-2.9,0-5.2-2.3-5.2-5.2c0-2.9,2.3-5.2,5.2-5.2s5.2,2.3,5.2,5.2
	C306.1,193.3,303.8,195.6,300.9,195.6z"/>
<path class="st0" d="M170.6,310c-4.6,0-8.3,3.7-8.3,8.3c0,4.6,3.7,8.3,8.3,8.3c4.6,0,8.3-3.7,8.3-8.3C179,313.7,175.2,310,170.6,310
	z M170.6,323.5c-2.9,0-5.2-2.3-5.2-5.2c0-2.9,2.3-5.2,5.2-5.2s5.2,2.3,5.2,5.2C175.8,321.2,173.5,323.5,170.6,323.5z"/>
<path class="st0" d="M140.9,116.8c0,4.6,3.7,8.3,8.3,8.3c4.6,0,8.3-3.7,8.3-8.3c0-4.6-3.7-8.3-8.3-8.3
	C144.7,108.5,140.9,112.2,140.9,116.8z M154.5,116.8c0,2.9-2.3,5.2-5.2,5.2s-5.2-2.3-5.2-5.2c0-2.9,2.3-5.2,5.2-5.2
	S154.5,113.9,154.5,116.8z"/>
<path class="st0" d="M13.9,184.1c4.6,0,8.3-3.7,8.3-8.3c0-4.6-3.7-8.3-8.3-8.3c-4.6,0-8.3,3.7-8.3,8.3
	C5.6,180.4,9.3,184.1,13.9,184.1z M13.9,170.6c2.9,0,5.2,2.3,5.2,5.2c0,2.9-2.3,5.2-5.2,5.2s-5.2-2.3-5.2-5.2
	C8.7,172.9,11.1,170.6,13.9,170.6z"/>
<path class="st0" d="M235.2,149.9c2.6,1.9,7,4.6,13.3,6.2c3.3,0.8,7.4-0.8,12.1-4.8c11.4-9.5,24.9-32.1,24-43.8
	c-1.4-17.9-18.4-23.4-28.5-25.2c5.2-2.1,11.7-5.6,13.1-10.4c0.1-0.5,0.1-1-0.2-1.3c-0.3-0.4-0.7-0.6-1.2-0.7
	c-7.4-0.4-14.4,5.8-17.9,9.5c-1.3-8.1-5.6-27.2-18-28.2c-0.5,0-1,0.2-1.4,0.6c-0.3,0.4-0.4,1-0.3,1.5c1,3.2,1.1,5.8,1.1,8.3
	c0.1,5.1,0.2,9.7,7.3,16c-10-2.6-24.4-3.5-32.9,9.6c-6.4,9.8-5.4,36.1,0,50c2.2,5.8,5.1,9.2,8.3,10c6.3,1.6,11.4,1.4,14.6,1
	C230.9,147.9,233.3,148.5,235.2,149.9z M264.9,73.4c-2.3,2.7-6.9,5-10.9,6.5C256.8,77.2,260.8,74.2,264.9,73.4z M234.5,61.6
	c0-2-0.1-4.2-0.6-6.7c8.4,3.1,11.8,18.2,12.9,25.1C234.7,71.9,234.6,67.3,234.5,61.6z M214.7,144.2c-2.2-0.6-4.4-3.4-6.2-8.1
	c-5.1-13-6.1-38.2-0.3-47.1c12.4-18.9,38.6-5,39.8-4.4c0.1,0.1,0.2,0.1,0.4,0.1c0,0,0,0,0,0c0,0,0,0,0,0l0,0c0,0,0,0,0,0
	c0.1,0,0.2,0,0.3,0c0,0,0,0,0,0c0.3,0,31,0.5,32.7,23c0.8,10.6-12.2,32.2-22.9,41.1c-3.8,3.2-7.1,4.7-9.3,4.1
	c-5.8-1.5-9.8-3.9-12.2-5.7c-1.3-1-2.7-1.6-4.2-2c-1.5-0.4-3.1-0.5-4.7-0.3C225.2,145.5,220.5,145.7,214.7,144.2z"/>
<path class="st0" d="M202.9,211.4H197l4.2-4.2c0.6-0.6,0.6-1.6,0-2.2s-1.6-0.6-2.2,0l-4.2,4.2v-5.9c0-0.9-0.7-1.6-1.6-1.6
	s-1.6,0.7-1.6,1.6v5.9l-4.2-4.2c-0.6-0.6-1.6-0.6-2.2,0c-0.6,0.6-0.6,1.6,0,2.2l4.2,4.2h-5.9c-0.9,0-1.6,0.7-1.6,1.6
	s0.7,1.6,1.6,1.6h5.9l-4.2,4.2c-0.6,0.6-0.6,1.6,0,2.2c0.3,0.3,0.7,0.5,1.1,0.5c0.4,0,0.8-0.2,1.1-0.5l4.2-4.2v5.9
	c0,0.9,0.7,1.6,1.6,1.6s1.6-0.7,1.6-1.6v-5.9l4.2,4.2c0.3,0.3,0.7,0.5,1.1,0.5c0.4,0,0.8-0.2,1.1-0.5c0.6-0.6,0.6-1.6,0-2.2
	l-4.2-4.2h5.9c0.9,0,1.6-0.7,1.6-1.6S203.8,211.4,202.9,211.4z"/>
<path class="st0" d="M411,34.7h5.9l-4.2,4.2c-0.6,0.6-0.6,1.6,0,2.2c0.3,0.3,0.7,0.5,1.1,0.5c0.4,0,0.8-0.2,1.1-0.5l4.2-4.2v5.9
	c0,0.9,0.7,1.6,1.6,1.6c0.9,0,1.6-0.7,1.6-1.6V37l4.2,4.2c0.3,0.3,0.7,0.5,1.1,0.5c0.4,0,0.8-0.2,1.1-0.5c0.6-0.6,0.6-1.6,0-2.2
	l-4.2-4.2h5.9c0.9,0,1.6-0.7,1.6-1.6s-0.7-1.6-1.6-1.6h-5.9l4.2-4.2c0.6-0.6,0.6-1.6,0-2.2c-0.6-0.6-1.6-0.6-2.2,0l-4.2,4.2v-5.9
	c0-0.9-0.7-1.6-1.6-1.6c-0.9,0-1.6,0.7-1.6,1.6v5.9l-4.2-4.2c-0.6-0.6-1.6-0.6-2.2,0c-0.6,0.6-0.6,1.6,0,2.2l4.2,4.2H411
	c-0.9,0-1.6,0.7-1.6,1.6S410.2,34.7,411,34.7z"/>
<path class="st0" d="M233.2,12.8h5.9L235,17c-0.6,0.6-0.6,1.6,0,2.2c0.3,0.3,0.7,0.5,1.1,0.5s0.8-0.2,1.1-0.5l4.2-4.2v5.9
	c0,0.9,0.7,1.6,1.6,1.6c0.9,0,1.6-0.7,1.6-1.6v-5.9l4.2,4.2c0.3,0.3,0.7,0.5,1.1,0.5c0.4,0,0.8-0.2,1.1-0.5c0.6-0.6,0.6-1.6,0-2.2
	l-4.2-4.2h5.9c0.9,0,1.6-0.7,1.6-1.6s-0.7-1.6-1.6-1.6h-5.9l4.2-4.2c0.6-0.6,0.6-1.6,0-2.2c-0.6-0.6-1.6-0.6-2.2,0l-4.2,4.2V1.6
	c0-0.9-0.7-1.6-1.6-1.6c-0.9,0-1.6,0.7-1.6,1.6v5.9l-4.2-4.2c-0.6-0.6-1.6-0.6-2.2,0c-0.6,0.6-0.6,1.6,0,2.2l4.2,4.2h-5.9
	c-0.9,0-1.6,0.7-1.6,1.6S232.4,12.8,233.2,12.8z"/>
<path class="st0" d="M341,320.9h-5.9l4.2-4.2c0.6-0.6,0.6-1.6,0-2.2c-0.6-0.6-1.6-0.6-2.2,0l-4.2,4.2v-5.9c0-0.9-0.7-1.6-1.6-1.6
	c-0.9,0-1.6,0.7-1.6,1.6v5.9l-4.2-4.2c-0.6-0.6-1.6-0.6-2.2,0c-0.6,0.6-0.6,1.6,0,2.2l4.2,4.2h-5.9c-0.9,0-1.6,0.7-1.6,1.6
	s0.7,1.6,1.6,1.6h5.9l-4.2,4.2c-0.6,0.6-0.6,1.6,0,2.2c0.3,0.3,0.7,0.5,1.1,0.5s0.8-0.2,1.1-0.5l4.2-4.2v5.9c0,0.9,0.7,1.6,1.6,1.6
	c0.9,0,1.6-0.7,1.6-1.6v-5.9l4.2,4.2c0.3,0.3,0.7,0.5,1.1,0.5c0.4,0,0.8-0.2,1.1-0.5c0.6-0.6,0.6-1.6,0-2.2l-4.2-4.2h5.9
	c0.9,0,1.6-0.7,1.6-1.6S341.8,320.9,341,320.9z"/>
<path class="st0" d="M437.9,173.2l-22.2-59.3c-0.1-0.3-0.3-0.5-0.5-0.7l-20.6-16.3c0,0,0,0,0,0l-5.3-14.2c-0.3-0.8-1.2-1.2-2-0.9
	l-41.7,15.6c-0.8,0.3-1.2,1.2-0.9,2l5.3,14.2c0,0,0,0,0,0.1l-4.8,25.9c-0.1,0.3,0,0.6,0.1,0.8l22.2,59.3c0.3,0.8,1.2,1.2,2,0.9
	l67.7-25.4C437.8,174.9,438.2,174,437.9,173.2z M386.8,85.3l4.5,12l-19.4,7.3l-19.4,7.3l-4.5-12L386.8,85.3z M369.7,197.1
	l-21.5-57.5l4.6-24.6l40.5-15.2l19.6,15.5l21.5,57.5L369.7,197.1z"/>
<path class="st0" d="M404.3,122.9c-0.3-0.8-1.2-1.2-2-0.9l-41.7,15.6c-0.8,0.3-1.2,1.2-0.9,2l8.6,23c0.3,0.8,1.2,1.2,2,0.9L412,148
	c0.8-0.3,1.2-1.2,0.9-2L404.3,122.9z M370.7,160.1l-7.5-20.1l38.7-14.5l7.5,20.1L370.7,160.1z"/>
<path class="st0" d="M371.7,171.7l4.3,11.5c0.3,0.8,1.2,1.2,2,0.9l41.7-15.6c0.8-0.3,1.2-1.2,0.9-2l-4.3-11.5
	c-0.3-0.8-1.2-1.2-2-0.9l-41.7,15.6C371.8,170,371.4,170.9,371.7,171.7z M413.9,157.6l3.2,8.6l-38.7,14.5l-3.2-8.6L413.9,157.6z"/>
<path class="st0" d="M69.1,256.1c-15.8,0-28.7,12.9-28.7,28.7s12.9,28.7,28.7,28.7s28.7-12.9,28.7-28.7S84.9,256.1,69.1,256.1z
	 M69.1,310.3c-14.1,0-25.5-11.5-25.5-25.5c0-14.1,11.5-25.5,25.5-25.5c14.1,0,25.5,11.5,25.5,25.5C94.7,298.9,83.2,310.3,69.1,310.3
	z"/>
<path class="st0" d="M127.6,244.5c-8.5-4.3-17-3.9-25.2-3.5c-5.8,0.3-11.2,0.5-16.3-0.9c-4.6-1.3-9.3-3.9-13.8-6.5
	c-7.6-4.3-15.5-8.8-23.9-7.3c-8.9,1.7-12.5,8.5-15.4,14.1c-1.4,2.8-2.8,5.4-4.5,6.6c-1.1,0.8-3.4,1.1-5.8,1.4
	c-3.4,0.4-7.2,0.8-9.9,3c-0.5,0.4-0.9,0.7-1.4,1c-4.8,3.5-6.1,6.5,1.2,22.1c-0.2,1.1-1.3,1.7-3.8,2.8c-3.8,1.7-9,3.9-8.7,11.9
	c0.2,7.5,7.3,10,13,12.1c5,1.8,8,3.1,8.2,5.6c0.1,2.2-0.7,5.5-1.6,9c-2.3,8.9-5.4,21.2,5.4,25c1.8,0.6,3.7,0.9,5.7,0.9
	c6.5,0,13.6-3.1,20.1-5.9c6.1-2.7,11.8-5.2,14.5-3.7c5.7,3,25.5,12,40.9,1.5c13.8-9.4,13.7-20,13.6-26.3l0-0.9
	c0-5.9,5.9-18.5,11.4-20.1c4.1-1.2,6.3-8.8,6.8-14.9C138.9,261.8,136.7,249,127.6,244.5z M134.9,271.1c-0.6,6.9-2.8,11.6-4.6,12.1
	c-7.5,2.2-13.7,16.7-13.7,23.1l0,0.9c0,6.1,0.1,15.2-12.3,23.7c-13.9,9.5-32.3,1.1-37.7-1.7c-4-2.1-10.2,0.5-17.2,3.6
	c-7.8,3.4-16.7,7.3-23.4,4.9c-7.5-2.6-6.1-10.8-3.4-21.2c1-3.8,1.9-7.3,1.7-10c-0.2-4.8-5.3-6.6-10.2-8.4c-6.5-2.3-10.8-4.3-11-9.2
	c-0.2-5.9,3.2-7.3,6.9-8.9c2.7-1.2,5.7-2.5,5.7-5.9c0-0.2-0.1-0.5-0.1-0.7c-7.1-15.1-5.3-16.4-2.4-18.6c0.5-0.3,1-0.7,1.5-1.2
	c2-1.6,5.2-2,8.3-2.3c2.9-0.3,5.6-0.6,7.4-2c2.3-1.7,3.8-4.6,5.4-7.7c2.7-5.2,5.8-11.1,13.2-12.4c7.2-1.3,14.3,2.7,21.7,6.9
	c4.7,2.7,9.5,5.4,14.5,6.8c5.5,1.6,11.2,1.3,17.3,1c7.8-0.4,15.9-0.7,23.7,3.2C133.8,251.1,135.7,262.5,134.9,271.1z"/>
<path class="st0" d="M302,256.3c-0.3-0.8-1.1-1.3-2-1l-5.7,1.8l-1.9-5.9c0,0,0-0.1,0-0.1c0,0,0-0.1,0-0.1c0-0.1-0.1-0.2-0.2-0.3
	c0,0,0,0,0-0.1c-0.1-0.1-0.2-0.2-0.3-0.3c0,0,0,0,0,0c-10.6-7.5-23.7-9.6-36.1-5.7c-12.4,3.9-21.9,13.2-26.2,25.5c0,0,0,0,0,0
	c0,0.1-0.1,0.2-0.1,0.4c0,0,0,0.1,0,0.1c0,0.1,0,0.2,0,0.3c0,0,0,0.1,0,0.1c0,0,0,0.1,0,0.1l1.9,5.9l-5.7,1.8c-0.8,0.3-1.3,1.1-1,2
	l1.9,6.1c0.3,0.8,1.1,1.3,2,1l5.1-1.6c-0.5,1.2-0.6,2.7-0.2,4c0.5,1.6,1.7,2.9,3.3,3.6l0.6,1.9c2,6.3,8.7,9.7,15,7.7l40.2-12.8
	c6.3-2,9.7-8.7,7.7-15l-0.6-1.9c0.9-1.4,1.1-3.2,0.6-4.8c-0.4-1.4-1.3-2.5-2.5-3.2l5.1-1.6c0.8-0.3,1.3-1.1,1-2L302,256.3z
	 M256.8,247.7c10.4-3.3,21.4-2,30.6,3.5l-26.8,8.5l-26.8,8.5C238.2,258.4,246.4,251,256.8,247.7z M233.1,271.8l28.5-9l28.5-9
	l1.4,4.4l-56.9,18.1L233.1,271.8z M238.4,286c0.9-0.3,2-0.1,2.7,0.6c0.5,0.4,1.1,0.5,1.7,0.3c0.6-0.2,0.9-0.8,1-1.4
	c0-1.1,0.4-2.1,1.1-3c0.8-1,2.1-1.6,3.5-1.6c0.4,0,0.9,0,1.3,0.1c1,0.3,2,0.9,2.6,1.8c0.4,0.5,1,0.7,1.6,0.6
	c0.6-0.1,1.1-0.6,1.2-1.2c0.2-1,0.9-1.8,1.8-2.1c0.9-0.3,2-0.1,2.7,0.6c0.4,0.4,1.1,0.6,1.7,0.3c0.6-0.2,1-0.8,1-1.4
	c0-1.1,0.4-2.1,1.1-3c0.8-1,2.2-1.6,3.5-1.6c0.4,0,0.9,0,1.3,0.1c1,0.3,2,0.9,2.6,1.7c0.4,0.5,1,0.7,1.6,0.6
	c0.6-0.1,1.1-0.6,1.2-1.2c0.2-1,0.9-1.8,1.8-2.1c0.9-0.3,2-0.1,2.7,0.6c0.5,0.4,1.1,0.5,1.7,0.3c0.6-0.2,0.9-0.8,1-1.4
	c0-1.1,0.4-2.1,1.1-3c0.9-1,2.2-1.6,3.5-1.6c0.4,0,0.9,0,1.3,0.1c1,0.3,2,0.9,2.6,1.8c0.4,0.5,1,0.7,1.6,0.6
	c0.6-0.1,1.1-0.6,1.2-1.2c0.2-1,0.9-1.8,1.8-2.1c1.4-0.5,3,0.3,3.4,1.8c0.3,0.9,0.1,1.9-0.5,2.6c-0.3,0.4-0.8,0.7-1.3,0.8
	c-0.9,0.3-2,0.1-2.7-0.6c-0.5-0.4-1.1-0.5-1.7-0.3c-0.6,0.2-0.9,0.8-1,1.4c-0.1,2-1.4,3.8-3.3,4.4c-1.9,0.6-4-0.1-5.2-1.7
	c-0.4-0.5-1-0.7-1.6-0.6c0,0-0.1,0-0.1,0c-0.1,0-0.1,0.1-0.2,0.1c0,0-0.1,0-0.1,0.1c-0.1,0.1-0.2,0.1-0.3,0.2c0,0-0.1,0-0.1,0.1
	c-0.1,0.1-0.1,0.2-0.2,0.3c0,0,0,0.1-0.1,0.1c-0.1,0.1-0.1,0.3-0.2,0.4c-0.2,1-0.9,1.8-1.8,2.1c-0.9,0.3-2,0.1-2.7-0.6
	c-0.5-0.4-1.1-0.5-1.7-0.3c-0.6,0.2-0.9,0.8-1,1.4c-0.1,2-1.4,3.8-3.3,4.4c-1.9,0.6-4-0.1-5.2-1.7c-0.4-0.5-1-0.7-1.6-0.6
	c-0.6,0.1-1.1,0.6-1.2,1.2c-0.2,1-0.9,1.8-1.8,2.1c-0.9,0.3-2,0.1-2.7-0.6c-0.5-0.4-1.1-0.5-1.7-0.3c-0.6,0.2-0.9,0.8-1,1.4
	c-0.1,2-1.4,3.8-3.3,4.4c-1.9,0.6-4-0.1-5.2-1.7c-0.4-0.5-1-0.7-1.6-0.6c-0.6,0.1-1.1,0.6-1.2,1.2c-0.2,1-0.9,1.8-1.8,2.1
	c-0.2,0.1-0.5,0.1-0.7,0.1c0,0,0,0,0,0c-0.2,0-0.5,0-0.7-0.1c0,0,0,0,0,0c-0.9-0.2-1.6-0.9-1.9-1.8C236.1,288,236.9,286.4,238.4,286
	z M291.7,287.9l-40.2,12.8c-4.6,1.5-9.5-1.1-11-5.7l-0.2-0.6c0.1,0,0.1,0,0.1,0c0.2,0,0.4-0.1,0.6-0.1c0.1,0,0.1-0.1,0.2-0.1
	c0.1,0,0.2-0.1,0.3-0.1c0.2-0.1,0.5-0.2,0.7-0.4c0.1,0,0.1-0.1,0.2-0.1c0.2-0.2,0.5-0.3,0.7-0.5c0.1,0,0.1-0.1,0.2-0.1
	c0.3-0.2,0.5-0.5,0.7-0.8c2,1.4,4.5,1.8,6.9,1.1c2.4-0.8,4.2-2.6,5-4.9c1.2,0.4,2.4,0.4,3.6,0c1.2-0.4,2.2-1.1,2.9-2.1
	c2,1.4,4.5,1.8,6.9,1.1c2.4-0.8,4.2-2.6,5-4.9c1.2,0.4,2.4,0.4,3.6,0s2.2-1.1,2.9-2.1c2,1.4,4.5,1.8,6.9,1.1c2.4-0.8,4.2-2.6,5-4.9
	c0.3,0.1,0.7,0.2,1,0.2c0.1,0,0.1,0,0.2,0c0.3,0,0.6,0,0.8,0c0.1,0,0.2,0,0.2,0c0.3,0,0.5-0.1,0.8-0.1c0.1,0,0.2,0,0.3-0.1
	c0.1,0,0.2,0,0.2-0.1c0.2-0.1,0.4-0.1,0.5-0.2c0,0,0.1,0,0.1,0l0.2,0.6C298.8,281.5,296.3,286.4,291.7,287.9z M287,266.2
	c-0.1,0-0.3,0-0.4-0.1c-0.1,0-0.2,0-0.3,0c-0.3,0-0.6,0-0.8,0c-0.1,0-0.1,0-0.2,0c-1.4,0.1-2.8,0.5-4,1.3c-0.1,0-0.1,0.1-0.2,0.1
	c-0.2,0.2-0.4,0.3-0.6,0.5c-0.1,0.1-0.2,0.2-0.3,0.2c-0.1,0.1-0.2,0.2-0.3,0.3l-11.3,3.6c-0.1,0-0.3,0-0.4-0.1c-0.1,0-0.2,0-0.3,0
	c-0.3,0-0.6,0-0.8,0c-0.1,0-0.1,0-0.2,0c-1.4,0.1-2.9,0.5-4.1,1.3c-0.1,0-0.1,0.1-0.2,0.1c-0.2,0.2-0.4,0.3-0.6,0.5
	c-0.1,0.1-0.2,0.2-0.3,0.2c-0.1,0.1-0.2,0.2-0.3,0.3l-11.3,3.6c-0.1,0-0.3,0-0.4-0.1c-0.1,0-0.2,0-0.3,0c-0.3,0-0.6,0-0.8,0
	c-0.1,0-0.1,0-0.2,0c-1.4,0.1-2.8,0.5-4,1.3c-0.1,0-0.1,0.1-0.2,0.1c-0.2,0.2-0.4,0.3-0.6,0.5c-0.1,0.1-0.2,0.2-0.3,0.2
	c-0.1,0.1-0.2,0.2-0.3,0.3l-13.5,4.3l-1-3.1l5.6-1.8c0,0,0,0,0,0l59.9-19c0,0,0,0,0,0l5.6-1.8l1,3.1L287,266.2z"/>
</svg>
