<?xml version="1.0" encoding="utf-8"?>
<!-- Generator: Adobe Illustrator 25.4.1, SVG Export Plug-In . SVG Version: 6.00 Build 0)  -->
<svg version="1.1" id="Layer_1" xmlns="http://www.w3.org/2000/svg" xmlns:xlink="http://www.w3.org/1999/xlink" x="0px" y="0px"
	 viewBox="0 0 1034 578" style="enable-background:new 0 0 1034 578;" xml:space="preserve">
<g>
	<path d="M0,162v256c0,17.7,14.3,32,32,32h96V130H32C14.3,130,0,144.3,0,162z"/>
	<path d="M452.9,162h-94.5c-8.3,0-12.4-5.5-13.8-7.9c-1.4-2.4-4.2-8.7-0.2-15.9l33.3-60c7.3-13.1,8.1-28.6,2.1-42.4
		C373.8,22,362,12,347.4,8.4l-23.5-5.9c-5.7-1.4-11.8,0.4-15.8,4.8L180.5,149c-13.2,14.7-20.5,33.7-20.5,53.5V370
		c0,44.1,35.9,80,80,80l159.2,0c35.9,0,67.7-24.2,77.2-58.8l34.2-156.8c1-4.4,1.5-8.8,1.5-13.3C512,188.5,485.5,162,452.9,162
		L452.9,162z"/>
</g>
<g>
	<path d="M1034,418V162c0-17.7-14.3-32-32-32h-96v320h96C1019.7,450,1034,435.7,1034,418z"/>
	<path d="M581.1,418h94.5c8.3,0,12.4,5.5,13.8,7.9c1.4,2.4,4.2,8.7,0.2,15.9l-33.3,60c-7.3,13.1-8.1,28.6-2.1,42.4
		c6,13.8,17.8,23.8,32.4,27.5l23.5,5.9c5.7,1.4,11.8-0.4,15.8-4.8L853.5,431c13.2-14.7,20.5-33.7,20.5-53.5V210
		c0-44.1-35.9-80-80-80l-159.2,0c-35.9,0-67.7,24.2-77.2,58.8l-34.2,156.8c-1,4.4-1.5,8.8-1.5,13.3C522,391.5,548.5,418,581.1,418
		L581.1,418z"/>
</g>
</svg>
