<?xml version="1.0" encoding="utf-8"?>
<!-- Generator: Adobe Illustrator 25.4.1, SVG Export Plug-In . SVG Version: 6.00 Build 0)  -->
<svg version="1.1" id="Layer_1" xmlns="http://www.w3.org/2000/svg" xmlns:xlink="http://www.w3.org/1999/xlink" x="0px" y="0px"
	 viewBox="0 0 85 195" style="enable-background:new 0 0 85 195;" xml:space="preserve">
<style type="text/css">
	.st0{opacity:0.52;fill:#8C8C8C;}
	.st1{fill:#FFC107;}
</style>
<path class="st0" d="M13.8,5.7c-0.1-0.3-0.3-0.5-0.6-0.5L9.5,4.9L8,1.4C7.9,1.2,7.6,1,7.3,1C7.1,1,6.8,1.2,6.7,1.4L5.2,4.9L1.5,5.2
	C1.2,5.3,1,5.4,0.9,5.7C0.8,6,0.9,6.3,1.1,6.4l2.8,2.5l-0.8,3.7c-0.1,0.3,0,0.6,0.3,0.7c0.1,0.1,0.3,0.1,0.4,0.1
	c0.1,0,0.2,0,0.4-0.1l3.2-1.9l3.2,1.9c0.2,0.1,0.5,0.1,0.8,0c0.2-0.2,0.3-0.4,0.3-0.7l-0.8-3.7l2.8-2.5C13.8,6.3,13.9,6,13.8,5.7z"
	/>
<path class="st0" d="M30.8,5.7c-0.1-0.3-0.3-0.5-0.6-0.5l-3.8-0.3L25,1.4C24.9,1.2,24.7,1,24.4,1s-0.5,0.2-0.6,0.4l-1.5,3.5
	l-3.8,0.3c-0.3,0-0.5,0.2-0.6,0.5c-0.1,0.3,0,0.6,0.2,0.7L21,8.9l-0.8,3.7c-0.1,0.3,0,0.6,0.3,0.7c0.1,0.1,0.3,0.1,0.4,0.1
	c0.1,0,0.2,0,0.4-0.1l3.2-1.9l3.2,1.9c0.2,0.1,0.5,0.1,0.8,0c0.2-0.2,0.3-0.4,0.3-0.7l-0.8-3.7l2.8-2.5C30.9,6.3,30.9,6,30.8,5.7z"
	/>
<path class="st0" d="M47.9,5.7c-0.1-0.3-0.3-0.5-0.6-0.5l-3.8-0.3l-1.5-3.5C42,1.2,41.7,1,41.4,1s-0.5,0.2-0.6,0.4l-1.5,3.5
	l-3.8,0.3c-0.3,0-0.5,0.2-0.6,0.5c-0.1,0.3,0,0.6,0.2,0.7L38,8.9l-0.8,3.7c-0.1,0.3,0,0.6,0.3,0.7c0.1,0.1,0.3,0.1,0.4,0.1
	c0.1,0,0.2,0,0.4-0.1l3.2-1.9l3.2,1.9c0.2,0.1,0.5,0.1,0.8,0c0.2-0.2,0.3-0.4,0.3-0.7l-0.8-3.7l2.8-2.5C47.9,6.3,48,6,47.9,5.7z"/>
<path class="st0" d="M65,5.7c-0.1-0.3-0.3-0.5-0.6-0.5l-3.8-0.3l-1.5-3.5C59,1.2,58.8,1,58.5,1S58,1.2,57.9,1.4l-1.5,3.5l-3.8,0.3
	c-0.3,0-0.5,0.2-0.6,0.5c-0.1,0.3,0,0.6,0.2,0.7l2.8,2.5l-0.8,3.7c-0.1,0.3,0,0.6,0.3,0.7c0.1,0.1,0.3,0.1,0.4,0.1
	c0.1,0,0.2,0,0.4-0.1l3.2-1.9l3.2,1.9c0.2,0.1,0.5,0.1,0.8,0c0.2-0.2,0.3-0.4,0.3-0.7l-0.8-3.7l2.8-2.5C65,6.3,65,6,65,5.7z"/>
<path class="st0" d="M82,5.7c-0.1-0.3-0.3-0.5-0.6-0.5l-3.8-0.3l-1.5-3.5C76.1,1.2,75.8,1,75.5,1S75,1.2,74.9,1.4l-1.5,3.5l-3.8,0.3
	c-0.3,0-0.5,0.2-0.6,0.5c-0.1,0.3,0,0.6,0.2,0.7l2.8,2.5l-0.8,3.7c-0.1,0.3,0,0.6,0.3,0.7c0.1,0.1,0.3,0.1,0.4,0.1
	c0.1,0,0.2,0,0.4-0.1l3.2-1.9l3.2,1.9c0.2,0.1,0.5,0.1,0.8,0c0.2-0.2,0.3-0.4,0.3-0.7L79,8.9l2.8-2.5C82,6.3,82.1,6,82,5.7z"/>
<path class="st0" d="M30.8,23.8c-0.1-0.3-0.3-0.5-0.6-0.5L26.5,23L25,19.5c-0.1-0.3-0.4-0.4-0.6-0.4s-0.5,0.2-0.6,0.4L22.3,23
	l-3.8,0.3c-0.3,0-0.5,0.2-0.6,0.5c-0.1,0.3,0,0.6,0.2,0.7L21,27l-0.8,3.7c-0.1,0.3,0,0.6,0.3,0.7c0.1,0.1,0.3,0.1,0.4,0.1
	c0.1,0,0.2,0,0.4-0.1l3.2-1.9l3.2,1.9c0.2,0.1,0.5,0.1,0.8,0c0.2-0.2,0.3-0.4,0.3-0.7L27.8,27l2.8-2.5
	C30.9,24.3,30.9,24.1,30.8,23.8z"/>
<path class="st0" d="M47.9,23.8c-0.1-0.3-0.3-0.5-0.6-0.5L43.6,23l-1.5-3.5c-0.1-0.3-0.4-0.4-0.6-0.4s-0.5,0.2-0.6,0.4L39.3,23
	l-3.8,0.3c-0.3,0-0.5,0.2-0.6,0.5c-0.1,0.3,0,0.6,0.2,0.7L38,27l-0.8,3.7c-0.1,0.3,0,0.6,0.3,0.7c0.1,0.1,0.3,0.1,0.4,0.1
	c0.1,0,0.2,0,0.4-0.1l3.2-1.9l3.2,1.9c0.2,0.1,0.5,0.1,0.8,0c0.2-0.2,0.3-0.4,0.3-0.7L44.9,27l2.8-2.5C47.9,24.3,48,24.1,47.9,23.8z
	"/>
<path class="st0" d="M65,23.8c-0.1-0.3-0.3-0.5-0.6-0.5L60.6,23l-1.5-3.5c-0.1-0.3-0.4-0.4-0.6-0.4s-0.5,0.2-0.6,0.4L56.4,23
	l-3.8,0.3c-0.3,0-0.5,0.2-0.6,0.5c-0.1,0.3,0,0.6,0.2,0.7l2.8,2.5l-0.8,3.7c-0.1,0.3,0,0.6,0.3,0.7c0.1,0.1,0.3,0.1,0.4,0.1
	c0.1,0,0.2,0,0.4-0.1l3.2-1.9l3.2,1.9c0.2,0.1,0.5,0.1,0.8,0c0.2-0.2,0.3-0.4,0.3-0.7L61.9,27l2.8-2.5C65,24.3,65,24.1,65,23.8z"/>
<path class="st0" d="M82,23.8c-0.1-0.3-0.3-0.5-0.6-0.5L77.7,23l-1.5-3.5c-0.1-0.3-0.4-0.4-0.6-0.4s-0.5,0.2-0.6,0.4L73.4,23
	l-3.8,0.3c-0.3,0-0.5,0.2-0.6,0.5s0,0.6,0.2,0.7l2.8,2.5l-0.8,3.7c-0.1,0.3,0,0.6,0.3,0.7c0.1,0.1,0.3,0.1,0.4,0.1
	c0.1,0,0.2,0,0.4-0.1l3.2-1.9l3.2,1.9c0.2,0.1,0.5,0.1,0.8,0c0.2-0.2,0.3-0.4,0.3-0.7L79,27l2.8-2.5C82,24.3,82.1,24.1,82,23.8z"/>
<path class="st0" d="M13.8,23.8c-0.1-0.3-0.3-0.5-0.6-0.5L9.5,23L8,19.5c-0.1-0.3-0.4-0.4-0.6-0.4c-0.3,0-0.5,0.2-0.6,0.4L5.2,23
	l-3.8,0.3c-0.3,0-0.5,0.2-0.6,0.5s0,0.6,0.2,0.7L3.9,27l-0.8,3.7c-0.1,0.3,0,0.6,0.3,0.7c0.1,0.1,0.3,0.1,0.4,0.1
	c0.1,0,0.2,0,0.4-0.1l3.2-1.9l3.2,1.9c0.2,0.1,0.5,0.1,0.8,0c0.2-0.2,0.3-0.4,0.3-0.7L10.8,27l2.8-2.5
	C13.8,24.3,13.9,24.1,13.8,23.8z"/>
<path class="st1" d="M7.3,19.1c-0.3,0-0.5,0.2-0.6,0.4L5.2,23l-3.8,0.3c-0.3,0-0.5,0.2-0.6,0.5s0,0.6,0.2,0.7L3.9,27l-0.8,3.7
	c-0.1,0.3,0,0.6,0.3,0.7c0.1,0.1,0.3,0.1,0.4,0.1c0.1,0,0.2,0,0.4-0.1l3.2-1.9V19.1z"/>
<path class="st0" d="M30.8,41.9c-0.1-0.3-0.3-0.5-0.6-0.5l-3.8-0.3L25,37.6c-0.1-0.3-0.4-0.4-0.6-0.4s-0.5,0.2-0.6,0.4l-1.5,3.5
	l-3.8,0.3c-0.3,0-0.5,0.2-0.6,0.5s0,0.6,0.2,0.7l2.8,2.5l-0.8,3.7c-0.1,0.3,0,0.6,0.3,0.7c0.1,0.1,0.3,0.1,0.4,0.1
	c0.1,0,0.2,0,0.4-0.1l3.2-1.9l3.2,1.9c0.2,0.1,0.5,0.1,0.8,0c0.2-0.2,0.3-0.4,0.3-0.7l-0.8-3.7l2.8-2.5
	C30.9,42.4,30.9,42.1,30.8,41.9z"/>
<path class="st0" d="M47.9,41.9c-0.1-0.3-0.3-0.5-0.6-0.5l-3.8-0.3l-1.5-3.5c-0.1-0.3-0.4-0.4-0.6-0.4s-0.5,0.2-0.6,0.4l-1.5,3.5
	l-3.8,0.3c-0.3,0-0.5,0.2-0.6,0.5c-0.1,0.3,0,0.6,0.2,0.7l2.8,2.5l-0.8,3.7c-0.1,0.3,0,0.6,0.3,0.7c0.1,0.1,0.3,0.1,0.4,0.1
	c0.1,0,0.2,0,0.4-0.1l3.2-1.9l3.2,1.9c0.2,0.1,0.5,0.1,0.8,0c0.2-0.2,0.3-0.4,0.3-0.7l-0.8-3.7l2.8-2.5C47.9,42.4,48,42.1,47.9,41.9
	z"/>
<path class="st0" d="M65,41.9c-0.1-0.3-0.3-0.5-0.6-0.5l-3.8-0.3l-1.5-3.5c-0.1-0.3-0.4-0.4-0.6-0.4s-0.5,0.2-0.6,0.4l-1.5,3.5
	l-3.8,0.3c-0.3,0-0.5,0.2-0.6,0.5s0,0.6,0.2,0.7l2.8,2.5l-0.8,3.7c-0.1,0.3,0,0.6,0.3,0.7c0.1,0.1,0.3,0.1,0.4,0.1
	c0.1,0,0.2,0,0.4-0.1l3.2-1.9l3.2,1.9c0.2,0.1,0.5,0.1,0.8,0c0.2-0.2,0.3-0.4,0.3-0.7l-0.8-3.7l2.8-2.5C65,42.4,65,42.1,65,41.9z"/>
<path class="st0" d="M82,41.9c-0.1-0.3-0.3-0.5-0.6-0.5l-3.8-0.3l-1.5-3.5c-0.1-0.3-0.4-0.4-0.6-0.4s-0.5,0.2-0.6,0.4l-1.5,3.5
	l-3.8,0.3c-0.3,0-0.5,0.2-0.6,0.5s0,0.6,0.2,0.7l2.8,2.5l-0.8,3.7c-0.1,0.3,0,0.6,0.3,0.7c0.1,0.1,0.3,0.1,0.4,0.1
	c0.1,0,0.2,0,0.4-0.1l3.2-1.9l3.2,1.9c0.2,0.1,0.5,0.1,0.8,0c0.2-0.2,0.3-0.4,0.3-0.7L79,45.1l2.8-2.5C82,42.4,82.1,42.1,82,41.9z"
	/>
<path class="st1" d="M13.8,41.9c-0.1-0.3-0.3-0.5-0.6-0.5l-3.8-0.3L8,37.6c-0.1-0.3-0.4-0.4-0.6-0.4c-0.3,0-0.5,0.2-0.6,0.4
	l-1.5,3.5l-3.8,0.3c-0.3,0-0.5,0.2-0.6,0.5s0,0.6,0.2,0.7l2.8,2.5l-0.8,3.7c-0.1,0.3,0,0.6,0.3,0.7c0.1,0.1,0.3,0.1,0.4,0.1
	c0.1,0,0.2,0,0.4-0.1l3.2-1.9l3.2,1.9c0.2,0.1,0.5,0.1,0.8,0c0.2-0.2,0.3-0.4,0.3-0.7l-0.8-3.7l2.8-2.5
	C13.8,42.4,13.9,42.1,13.8,41.9z"/>
<path class="st0" d="M30.8,60c-0.1-0.3-0.3-0.5-0.6-0.5l-3.8-0.3L25,55.7c-0.1-0.3-0.4-0.4-0.6-0.4s-0.5,0.2-0.6,0.4l-1.5,3.5
	l-3.8,0.3c-0.3,0-0.5,0.2-0.6,0.5s0,0.6,0.2,0.7l2.8,2.5l-0.8,3.7c-0.1,0.3,0,0.6,0.3,0.7c0.1,0.1,0.3,0.1,0.4,0.1
	c0.1,0,0.2,0,0.4-0.1l3.2-1.9l3.2,1.9c0.2,0.1,0.5,0.1,0.8,0c0.2-0.2,0.3-0.4,0.3-0.7l-0.8-3.7l2.8-2.5C30.9,60.5,30.9,60.2,30.8,60
	z"/>
<path class="st0" d="M47.9,60c-0.1-0.3-0.3-0.5-0.6-0.5l-3.8-0.3l-1.5-3.5c-0.1-0.3-0.4-0.4-0.6-0.4s-0.5,0.2-0.6,0.4l-1.5,3.5
	l-3.8,0.3c-0.3,0-0.5,0.2-0.6,0.5c-0.1,0.3,0,0.6,0.2,0.7l2.8,2.5l-0.8,3.7c-0.1,0.3,0,0.6,0.3,0.7c0.1,0.1,0.3,0.1,0.4,0.1
	c0.1,0,0.2,0,0.4-0.1l3.2-1.9l3.2,1.9c0.2,0.1,0.5,0.1,0.8,0c0.2-0.2,0.3-0.4,0.3-0.7l-0.8-3.7l2.8-2.5C47.9,60.5,48,60.2,47.9,60z"
	/>
<path class="st0" d="M65,60c-0.1-0.3-0.3-0.5-0.6-0.5l-3.8-0.3l-1.5-3.5c-0.1-0.3-0.4-0.4-0.6-0.4s-0.5,0.2-0.6,0.4l-1.5,3.5
	l-3.8,0.3c-0.3,0-0.5,0.2-0.6,0.5s0,0.6,0.2,0.7l2.8,2.5l-0.8,3.7c-0.1,0.3,0,0.6,0.3,0.7c0.1,0.1,0.3,0.1,0.4,0.1
	c0.1,0,0.2,0,0.4-0.1l3.2-1.9l3.2,1.9c0.2,0.1,0.5,0.1,0.8,0c0.2-0.2,0.3-0.4,0.3-0.7l-0.8-3.7l2.8-2.5C65,60.5,65,60.2,65,60z"/>
<path class="st0" d="M82,60c-0.1-0.3-0.3-0.5-0.6-0.5l-3.8-0.3l-1.5-3.5c-0.1-0.3-0.4-0.4-0.6-0.4s-0.5,0.2-0.6,0.4l-1.5,3.5
	l-3.8,0.3c-0.3,0-0.5,0.2-0.6,0.5s0,0.6,0.2,0.7l2.8,2.5l-0.8,3.7c-0.1,0.3,0,0.6,0.3,0.7c0.1,0.1,0.3,0.1,0.4,0.1
	c0.1,0,0.2,0,0.4-0.1l3.2-1.9l3.2,1.9c0.2,0.1,0.5,0.1,0.8,0c0.2-0.2,0.3-0.4,0.3-0.7L79,63.2l2.8-2.5C82,60.5,82.1,60.2,82,60z"/>
<path class="st1" d="M13.8,60c-0.1-0.3-0.3-0.5-0.6-0.5l-3.8-0.3L8,55.7c-0.1-0.3-0.4-0.4-0.6-0.4c-0.3,0-0.5,0.2-0.6,0.4l-1.5,3.5
	l-3.8,0.3c-0.3,0-0.5,0.2-0.6,0.5s0,0.6,0.2,0.7l2.8,2.5l-0.8,3.7c-0.1,0.3,0,0.6,0.3,0.7c0.1,0.1,0.3,0.1,0.4,0.1
	c0.1,0,0.2,0,0.4-0.1l3.2-1.9l3.2,1.9c0.2,0.1,0.5,0.1,0.8,0c0.2-0.2,0.3-0.4,0.3-0.7l-0.8-3.7l2.8-2.5C13.8,60.5,13.9,60.2,13.8,60
	z"/>
<path class="st1" d="M30.8,78c-0.1-0.3-0.3-0.5-0.6-0.5l-3.8-0.3L25,73.8c-0.1-0.3-0.4-0.4-0.6-0.4s-0.5,0.2-0.6,0.4l-1.5,3.5
	l-3.8,0.3c-0.3,0-0.5,0.2-0.6,0.5c-0.1,0.3,0,0.6,0.2,0.7l2.8,2.5l-0.8,3.7c-0.1,0.3,0,0.6,0.3,0.7c0.1,0.1,0.3,0.1,0.4,0.1
	c0.1,0,0.2,0,0.4-0.1l3.2-1.9l3.2,1.9c0.2,0.1,0.5,0.1,0.8,0c0.2-0.2,0.3-0.4,0.3-0.7l-0.8-3.7l2.8-2.5C30.9,78.6,30.9,78.3,30.8,78
	z"/>
<path class="st0" d="M47.9,78c-0.1-0.3-0.3-0.5-0.6-0.5l-3.8-0.3l-1.5-3.5c-0.1-0.3-0.4-0.4-0.6-0.4s-0.5,0.2-0.6,0.4l-1.5,3.5
	l-3.8,0.3c-0.3,0-0.5,0.2-0.6,0.5c-0.1,0.3,0,0.6,0.2,0.7l2.8,2.5l-0.8,3.7c-0.1,0.3,0,0.6,0.3,0.7c0.1,0.1,0.3,0.1,0.4,0.1
	c0.1,0,0.2,0,0.4-0.1l3.2-1.9l3.2,1.9c0.2,0.1,0.5,0.1,0.8,0c0.2-0.2,0.3-0.4,0.3-0.7l-0.8-3.7l2.8-2.5C47.9,78.6,48,78.3,47.9,78z"
	/>
<path class="st0" d="M65,78c-0.1-0.3-0.3-0.5-0.6-0.5l-3.8-0.3l-1.5-3.5c-0.1-0.3-0.4-0.4-0.6-0.4s-0.5,0.2-0.6,0.4l-1.5,3.5
	l-3.8,0.3c-0.3,0-0.5,0.2-0.6,0.5c-0.1,0.3,0,0.6,0.2,0.7l2.8,2.5l-0.8,3.7c-0.1,0.3,0,0.6,0.3,0.7c0.1,0.1,0.3,0.1,0.4,0.1
	c0.1,0,0.2,0,0.4-0.1l3.2-1.9l3.2,1.9c0.2,0.1,0.5,0.1,0.8,0c0.2-0.2,0.3-0.4,0.3-0.7l-0.8-3.7l2.8-2.5C65,78.6,65,78.3,65,78z"/>
<path class="st0" d="M82,78c-0.1-0.3-0.3-0.5-0.6-0.5l-3.8-0.3l-1.5-3.5c-0.1-0.3-0.4-0.4-0.6-0.4s-0.5,0.2-0.6,0.4l-1.5,3.5
	l-3.8,0.3c-0.3,0-0.5,0.2-0.6,0.5c-0.1,0.3,0,0.6,0.2,0.7l2.8,2.5l-0.8,3.7c-0.1,0.3,0,0.6,0.3,0.7c0.1,0.1,0.3,0.1,0.4,0.1
	c0.1,0,0.2,0,0.4-0.1l3.2-1.9l3.2,1.9c0.2,0.1,0.5,0.1,0.8,0c0.2-0.2,0.3-0.4,0.3-0.7L79,81.3l2.8-2.5C82,78.6,82.1,78.3,82,78z"/>
<path class="st1" d="M13.8,78c-0.1-0.3-0.3-0.5-0.6-0.5l-3.8-0.3L8,73.8c-0.1-0.3-0.4-0.4-0.6-0.4c-0.3,0-0.5,0.2-0.6,0.4l-1.5,3.5
	l-3.8,0.3c-0.3,0-0.5,0.2-0.6,0.5c-0.1,0.3,0,0.6,0.2,0.7l2.8,2.5l-0.8,3.7c-0.1,0.3,0,0.6,0.3,0.7c0.1,0.1,0.3,0.1,0.4,0.1
	c0.1,0,0.2,0,0.4-0.1l3.2-1.9l3.2,1.9c0.2,0.1,0.5,0.1,0.8,0c0.2-0.2,0.3-0.4,0.3-0.7l-0.8-3.7l2.8-2.5C13.8,78.6,13.9,78.3,13.8,78
	z"/>
<path class="st1" d="M24.4,55.2c-0.3,0-0.5,0.2-0.6,0.4l-1.5,3.5l-3.8,0.3c-0.3,0-0.5,0.2-0.6,0.5s0,0.6,0.2,0.7l2.8,2.5l-0.8,3.7
	c-0.1,0.3,0,0.6,0.3,0.7c0.1,0.1,0.3,0.1,0.4,0.1c0.1,0,0.2,0,0.4-0.1l3.2-1.9V55.2z"/>
<path class="st1" d="M30.8,96c-0.1-0.3-0.3-0.5-0.6-0.5l-3.8-0.3L25,91.7c-0.1-0.3-0.4-0.4-0.6-0.4s-0.5,0.2-0.6,0.4l-1.5,3.5
	l-3.8,0.3c-0.3,0-0.5,0.2-0.6,0.5c-0.1,0.3,0,0.6,0.2,0.7l2.8,2.5l-0.8,3.7c-0.1,0.3,0,0.6,0.3,0.7c0.1,0.1,0.3,0.1,0.4,0.1
	c0.1,0,0.2,0,0.4-0.1l3.2-1.9l3.2,1.9c0.2,0.1,0.5,0.1,0.8,0c0.2-0.2,0.3-0.4,0.3-0.7l-0.8-3.7l2.8-2.5C30.9,96.5,30.9,96.2,30.8,96
	z"/>
<path class="st0" d="M47.9,96c-0.1-0.3-0.3-0.5-0.6-0.5l-3.8-0.3l-1.5-3.5c-0.1-0.3-0.4-0.4-0.6-0.4s-0.5,0.2-0.6,0.4l-1.5,3.5
	l-3.8,0.3c-0.3,0-0.5,0.2-0.6,0.5c-0.1,0.3,0,0.6,0.2,0.7l2.8,2.5l-0.8,3.7c-0.1,0.3,0,0.6,0.3,0.7c0.1,0.1,0.3,0.1,0.4,0.1
	c0.1,0,0.2,0,0.4-0.1l3.2-1.9l3.2,1.9c0.2,0.1,0.5,0.1,0.8,0c0.2-0.2,0.3-0.4,0.3-0.7l-0.8-3.7l2.8-2.5C47.9,96.5,48,96.2,47.9,96z"
	/>
<path class="st0" d="M65,96c-0.1-0.3-0.3-0.5-0.6-0.5l-3.8-0.3l-1.5-3.5c-0.1-0.3-0.4-0.4-0.6-0.4s-0.5,0.2-0.6,0.4l-1.5,3.5
	l-3.8,0.3c-0.3,0-0.5,0.2-0.6,0.5c-0.1,0.3,0,0.6,0.2,0.7l2.8,2.5l-0.8,3.7c-0.1,0.3,0,0.6,0.3,0.7c0.1,0.1,0.3,0.1,0.4,0.1
	c0.1,0,0.2,0,0.4-0.1l3.2-1.9l3.2,1.9c0.2,0.1,0.5,0.1,0.8,0c0.2-0.2,0.3-0.4,0.3-0.7l-0.8-3.7l2.8-2.5C65,96.5,65,96.2,65,96z"/>
<path class="st0" d="M82,96c-0.1-0.3-0.3-0.5-0.6-0.5l-3.8-0.3l-1.5-3.5c-0.1-0.3-0.4-0.4-0.6-0.4s-0.5,0.2-0.6,0.4l-1.5,3.5
	l-3.8,0.3c-0.3,0-0.5,0.2-0.6,0.5c-0.1,0.3,0,0.6,0.2,0.7l2.8,2.5l-0.8,3.7c-0.1,0.3,0,0.6,0.3,0.7c0.1,0.1,0.3,0.1,0.4,0.1
	c0.1,0,0.2,0,0.4-0.1l3.2-1.9l3.2,1.9c0.2,0.1,0.5,0.1,0.8,0c0.2-0.2,0.3-0.4,0.3-0.7L79,99.2l2.8-2.5C82,96.5,82.1,96.2,82,96z"/>
<path class="st1" d="M13.8,96c-0.1-0.3-0.3-0.5-0.6-0.5l-3.8-0.3L8,91.7c-0.1-0.3-0.4-0.4-0.6-0.4c-0.3,0-0.5,0.2-0.6,0.4l-1.5,3.5
	l-3.8,0.3c-0.3,0-0.5,0.2-0.6,0.5c-0.1,0.3,0,0.6,0.2,0.7l2.8,2.5l-0.8,3.7c-0.1,0.3,0,0.6,0.3,0.7c0.1,0.1,0.3,0.1,0.4,0.1
	c0.1,0,0.2,0,0.4-0.1l3.2-1.9l3.2,1.9c0.2,0.1,0.5,0.1,0.8,0c0.2-0.2,0.3-0.4,0.3-0.7l-0.8-3.7l2.8-2.5C13.8,96.5,13.9,96.2,13.8,96
	z"/>
<path class="st1" d="M30.8,113.9c-0.1-0.3-0.3-0.5-0.6-0.5l-3.8-0.3l-1.5-3.5c-0.1-0.3-0.4-0.4-0.6-0.4s-0.5,0.2-0.6,0.4l-1.5,3.5
	l-3.8,0.3c-0.3,0-0.5,0.2-0.6,0.5c-0.1,0.3,0,0.6,0.2,0.7l2.8,2.5l-0.8,3.7c-0.1,0.3,0,0.6,0.3,0.7c0.1,0.1,0.3,0.1,0.4,0.1
	c0.1,0,0.2,0,0.4-0.1l3.2-1.9l3.2,1.9c0.2,0.1,0.5,0.1,0.8,0c0.2-0.2,0.3-0.4,0.3-0.7l-0.8-3.7l2.8-2.5
	C30.9,114.5,30.9,114.2,30.8,113.9z"/>
<path class="st1" d="M47.9,113.9c-0.1-0.3-0.3-0.5-0.6-0.5l-3.8-0.3l-1.5-3.5c-0.1-0.3-0.4-0.4-0.6-0.4s-0.5,0.2-0.6,0.4l-1.5,3.5
	l-3.8,0.3c-0.3,0-0.5,0.2-0.6,0.5c-0.1,0.3,0,0.6,0.2,0.7l2.8,2.5l-0.8,3.7c-0.1,0.3,0,0.6,0.3,0.7c0.1,0.1,0.3,0.1,0.4,0.1
	c0.1,0,0.2,0,0.4-0.1l3.2-1.9l3.2,1.9c0.2,0.1,0.5,0.1,0.8,0c0.2-0.2,0.3-0.4,0.3-0.7l-0.8-3.7l2.8-2.5
	C47.9,114.5,48,114.2,47.9,113.9z"/>
<path class="st0" d="M65,113.9c-0.1-0.3-0.3-0.5-0.6-0.5l-3.8-0.3l-1.5-3.5c-0.1-0.3-0.4-0.4-0.6-0.4s-0.5,0.2-0.6,0.4l-1.5,3.5
	l-3.8,0.3c-0.3,0-0.5,0.2-0.6,0.5c-0.1,0.3,0,0.6,0.2,0.7l2.8,2.5l-0.8,3.7c-0.1,0.3,0,0.6,0.3,0.7c0.1,0.1,0.3,0.1,0.4,0.1
	c0.1,0,0.2,0,0.4-0.1l3.2-1.9l3.2,1.9c0.2,0.1,0.5,0.1,0.8,0c0.2-0.2,0.3-0.4,0.3-0.7l-0.8-3.7l2.8-2.5C65,114.5,65,114.2,65,113.9z
	"/>
<path class="st0" d="M82,113.9c-0.1-0.3-0.3-0.5-0.6-0.5l-3.8-0.3l-1.5-3.5c-0.1-0.3-0.4-0.4-0.6-0.4s-0.5,0.2-0.6,0.4l-1.5,3.5
	l-3.8,0.3c-0.3,0-0.5,0.2-0.6,0.5c-0.1,0.3,0,0.6,0.2,0.7l2.8,2.5l-0.8,3.7c-0.1,0.3,0,0.6,0.3,0.7c0.1,0.1,0.3,0.1,0.4,0.1
	c0.1,0,0.2,0,0.4-0.1l3.2-1.9l3.2,1.9c0.2,0.1,0.5,0.1,0.8,0c0.2-0.2,0.3-0.4,0.3-0.7l-0.8-3.7l2.8-2.5
	C82,114.5,82.1,114.2,82,113.9z"/>
<path class="st1" d="M13.8,113.9c-0.1-0.3-0.3-0.5-0.6-0.5l-3.8-0.3L8,109.6c-0.1-0.3-0.4-0.4-0.6-0.4c-0.3,0-0.5,0.2-0.6,0.4
	l-1.5,3.5l-3.8,0.3c-0.3,0-0.5,0.2-0.6,0.5c-0.1,0.3,0,0.6,0.2,0.7l2.8,2.5l-0.8,3.7c-0.1,0.3,0,0.6,0.3,0.7
	c0.1,0.1,0.3,0.1,0.4,0.1c0.1,0,0.2,0,0.4-0.1l3.2-1.9l3.2,1.9c0.2,0.1,0.5,0.1,0.8,0c0.2-0.2,0.3-0.4,0.3-0.7l-0.8-3.7l2.8-2.5
	C13.8,114.5,13.9,114.2,13.8,113.9z"/>
<path class="st1" d="M30.8,131.9c-0.1-0.3-0.3-0.5-0.6-0.5l-3.8-0.3l-1.5-3.5c-0.1-0.3-0.4-0.4-0.6-0.4s-0.5,0.2-0.6,0.4l-1.5,3.5
	l-3.8,0.3c-0.3,0-0.5,0.2-0.6,0.5c-0.1,0.3,0,0.6,0.2,0.7l2.8,2.5l-0.8,3.7c-0.1,0.3,0,0.6,0.3,0.7c0.1,0.1,0.3,0.1,0.4,0.1
	c0.1,0,0.2,0,0.4-0.1l3.2-1.9l3.2,1.9c0.2,0.1,0.5,0.1,0.8,0c0.2-0.2,0.3-0.4,0.3-0.7l-0.8-3.7l2.8-2.5
	C30.9,132.4,30.9,132.1,30.8,131.9z"/>
<path class="st1" d="M47.9,131.9c-0.1-0.3-0.3-0.5-0.6-0.5l-3.8-0.3l-1.5-3.5c-0.1-0.3-0.4-0.4-0.6-0.4s-0.5,0.2-0.6,0.4l-1.5,3.5
	l-3.8,0.3c-0.3,0-0.5,0.2-0.6,0.5c-0.1,0.3,0,0.6,0.2,0.7l2.8,2.5l-0.8,3.7c-0.1,0.3,0,0.6,0.3,0.7c0.1,0.1,0.3,0.1,0.4,0.1
	c0.1,0,0.2,0,0.4-0.1l3.2-1.9l3.2,1.9c0.2,0.1,0.5,0.1,0.8,0c0.2-0.2,0.3-0.4,0.3-0.7l-0.8-3.7l2.8-2.5
	C47.9,132.4,48,132.1,47.9,131.9z"/>
<path class="st0" d="M65,131.9c-0.1-0.3-0.3-0.5-0.6-0.5l-3.8-0.3l-1.5-3.5c-0.1-0.3-0.4-0.4-0.6-0.4s-0.5,0.2-0.6,0.4l-1.5,3.5
	l-3.8,0.3c-0.3,0-0.5,0.2-0.6,0.5s0,0.6,0.2,0.7l2.8,2.5l-0.8,3.7c-0.1,0.3,0,0.6,0.3,0.7c0.1,0.1,0.3,0.1,0.4,0.1
	c0.1,0,0.2,0,0.4-0.1l3.2-1.9l3.2,1.9c0.2,0.1,0.5,0.1,0.8,0c0.2-0.2,0.3-0.4,0.3-0.7l-0.8-3.7l2.8-2.5C65,132.4,65,132.1,65,131.9z
	"/>
<path class="st0" d="M82,131.9c-0.1-0.3-0.3-0.5-0.6-0.5l-3.8-0.3l-1.5-3.5c-0.1-0.3-0.4-0.4-0.6-0.4s-0.5,0.2-0.6,0.4l-1.5,3.5
	l-3.8,0.3c-0.3,0-0.5,0.2-0.6,0.5c-0.1,0.3,0,0.6,0.2,0.7l2.8,2.5l-0.8,3.7c-0.1,0.3,0,0.6,0.3,0.7c0.1,0.1,0.3,0.1,0.4,0.1
	c0.1,0,0.2,0,0.4-0.1l3.2-1.9l3.2,1.9c0.2,0.1,0.5,0.1,0.8,0c0.2-0.2,0.3-0.4,0.3-0.7l-0.8-3.7l2.8-2.5
	C82,132.4,82.1,132.1,82,131.9z"/>
<path class="st1" d="M13.8,131.9c-0.1-0.3-0.3-0.5-0.6-0.5L9.5,131L8,127.6c-0.1-0.3-0.4-0.4-0.6-0.4c-0.3,0-0.5,0.2-0.6,0.4
	L5.2,131l-3.8,0.3c-0.3,0-0.5,0.2-0.6,0.5c-0.1,0.3,0,0.6,0.2,0.7l2.8,2.5l-0.8,3.7c-0.1,0.3,0,0.6,0.3,0.7c0.1,0.1,0.3,0.1,0.4,0.1
	c0.1,0,0.2,0,0.4-0.1l3.2-1.9l3.2,1.9c0.2,0.1,0.5,0.1,0.8,0c0.2-0.2,0.3-0.4,0.3-0.7l-0.8-3.7l2.8-2.5
	C13.8,132.4,13.9,132.1,13.8,131.9z"/>
<path class="st1" d="M30.8,149.8c-0.1-0.3-0.3-0.5-0.6-0.5l-3.8-0.3l-1.5-3.5c-0.1-0.3-0.4-0.4-0.6-0.4s-0.5,0.2-0.6,0.4l-1.5,3.5
	l-3.8,0.3c-0.3,0-0.5,0.2-0.6,0.5c-0.1,0.3,0,0.6,0.2,0.7L21,153l-0.8,3.7c-0.1,0.3,0,0.6,0.3,0.7c0.1,0.1,0.3,0.1,0.4,0.1
	c0.1,0,0.2,0,0.4-0.1l3.2-1.9l3.2,1.9c0.2,0.1,0.5,0.1,0.8,0c0.2-0.2,0.3-0.4,0.3-0.7l-0.8-3.7l2.8-2.5
	C30.9,150.3,30.9,150.1,30.8,149.8z"/>
<path class="st1" d="M47.9,149.8c-0.1-0.3-0.3-0.5-0.6-0.5l-3.8-0.3l-1.5-3.5c-0.1-0.3-0.4-0.4-0.6-0.4s-0.5,0.2-0.6,0.4l-1.5,3.5
	l-3.8,0.3c-0.3,0-0.5,0.2-0.6,0.5c-0.1,0.3,0,0.6,0.2,0.7L38,153l-0.8,3.7c-0.1,0.3,0,0.6,0.3,0.7c0.1,0.1,0.3,0.1,0.4,0.1
	c0.1,0,0.2,0,0.4-0.1l3.2-1.9l3.2,1.9c0.2,0.1,0.5,0.1,0.8,0c0.2-0.2,0.3-0.4,0.3-0.7l-0.8-3.7l2.8-2.5
	C47.9,150.3,48,150.1,47.9,149.8z"/>
<path class="st1" d="M65,149.8c-0.1-0.3-0.3-0.5-0.6-0.5l-3.8-0.3l-1.5-3.5c-0.1-0.3-0.4-0.4-0.6-0.4s-0.5,0.2-0.6,0.4l-1.5,3.5
	l-3.8,0.3c-0.3,0-0.5,0.2-0.6,0.5c-0.1,0.3,0,0.6,0.2,0.7l2.8,2.5l-0.8,3.7c-0.1,0.3,0,0.6,0.3,0.7c0.1,0.1,0.3,0.1,0.4,0.1
	c0.1,0,0.2,0,0.4-0.1l3.2-1.9l3.2,1.9c0.2,0.1,0.5,0.1,0.8,0c0.2-0.2,0.3-0.4,0.3-0.7l-0.8-3.7l2.8-2.5C65,150.3,65,150.1,65,149.8z
	"/>
<path class="st0" d="M82,149.8c-0.1-0.3-0.3-0.5-0.6-0.5l-3.8-0.3l-1.5-3.5c-0.1-0.3-0.4-0.4-0.6-0.4s-0.5,0.2-0.6,0.4l-1.5,3.5
	l-3.8,0.3c-0.3,0-0.5,0.2-0.6,0.5c-0.1,0.3,0,0.6,0.2,0.7l2.8,2.5l-0.8,3.7c-0.1,0.3,0,0.6,0.3,0.7c0.1,0.1,0.3,0.1,0.4,0.1
	c0.1,0,0.2,0,0.4-0.1l3.2-1.9l3.2,1.9c0.2,0.1,0.5,0.1,0.8,0c0.2-0.2,0.3-0.4,0.3-0.7L79,153l2.8-2.5C82,150.3,82.1,150.1,82,149.8z
	"/>
<path class="st1" d="M13.8,149.8c-0.1-0.3-0.3-0.5-0.6-0.5L9.5,149L8,145.5c-0.1-0.3-0.4-0.4-0.6-0.4c-0.3,0-0.5,0.2-0.6,0.4
	L5.2,149l-3.8,0.3c-0.3,0-0.5,0.2-0.6,0.5c-0.1,0.3,0,0.6,0.2,0.7l2.8,2.5l-0.8,3.7c-0.1,0.3,0,0.6,0.3,0.7c0.1,0.1,0.3,0.1,0.4,0.1
	c0.1,0,0.2,0,0.4-0.1l3.2-1.9l3.2,1.9c0.2,0.1,0.5,0.1,0.8,0c0.2-0.2,0.3-0.4,0.3-0.7l-0.8-3.7l2.8-2.5
	C13.8,150.3,13.9,150.1,13.8,149.8z"/>
<path class="st1" d="M30.8,167.7c-0.1-0.3-0.3-0.5-0.6-0.5l-3.8-0.3l-1.5-3.5c-0.1-0.3-0.4-0.4-0.6-0.4s-0.5,0.2-0.6,0.4l-1.5,3.5
	l-3.8,0.3c-0.3,0-0.5,0.2-0.6,0.5s0,0.6,0.2,0.7L21,171l-0.8,3.7c-0.1,0.3,0,0.6,0.3,0.7c0.1,0.1,0.3,0.1,0.4,0.1
	c0.1,0,0.2,0,0.4-0.1l3.2-1.9l3.2,1.9c0.2,0.1,0.5,0.1,0.8,0c0.2-0.2,0.3-0.4,0.3-0.7l-0.8-3.7l2.8-2.5
	C30.9,168.3,30.9,168,30.8,167.7z"/>
<path class="st1" d="M47.9,167.7c-0.1-0.3-0.3-0.5-0.6-0.5l-3.8-0.3l-1.5-3.5c-0.1-0.3-0.4-0.4-0.6-0.4s-0.5,0.2-0.6,0.4l-1.5,3.5
	l-3.8,0.3c-0.3,0-0.5,0.2-0.6,0.5c-0.1,0.3,0,0.6,0.2,0.7L38,171l-0.8,3.7c-0.1,0.3,0,0.6,0.3,0.7c0.1,0.1,0.3,0.1,0.4,0.1
	c0.1,0,0.2,0,0.4-0.1l3.2-1.9l3.2,1.9c0.2,0.1,0.5,0.1,0.8,0c0.2-0.2,0.3-0.4,0.3-0.7l-0.8-3.7l2.8-2.5
	C47.9,168.3,48,168,47.9,167.7z"/>
<path class="st1" d="M65,167.7c-0.1-0.3-0.3-0.5-0.6-0.5l-3.8-0.3l-1.5-3.5c-0.1-0.3-0.4-0.4-0.6-0.4s-0.5,0.2-0.6,0.4l-1.5,3.5
	l-3.8,0.3c-0.3,0-0.5,0.2-0.6,0.5s0,0.6,0.2,0.7l2.8,2.5l-0.8,3.7c-0.1,0.3,0,0.6,0.3,0.7c0.1,0.1,0.3,0.1,0.4,0.1
	c0.1,0,0.2,0,0.4-0.1l3.2-1.9l3.2,1.9c0.2,0.1,0.5,0.1,0.8,0c0.2-0.2,0.3-0.4,0.3-0.7l-0.8-3.7l2.8-2.5C65,168.3,65,168,65,167.7z"
	/>
<path class="st0" d="M82,167.7c-0.1-0.3-0.3-0.5-0.6-0.5l-3.8-0.3l-1.5-3.5c-0.1-0.3-0.4-0.4-0.6-0.4s-0.5,0.2-0.6,0.4l-1.5,3.5
	l-3.8,0.3c-0.3,0-0.5,0.2-0.6,0.5c-0.1,0.3,0,0.6,0.2,0.7l2.8,2.5l-0.8,3.7c-0.1,0.3,0,0.6,0.3,0.7c0.1,0.1,0.3,0.1,0.4,0.1
	c0.1,0,0.2,0,0.4-0.1l3.2-1.9l3.2,1.9c0.2,0.1,0.5,0.1,0.8,0c0.2-0.2,0.3-0.4,0.3-0.7L79,171l2.8-2.5C82,168.3,82.1,168,82,167.7z"
	/>
<path class="st1" d="M13.8,167.7c-0.1-0.3-0.3-0.5-0.6-0.5l-3.8-0.3L8,163.5c-0.1-0.3-0.4-0.4-0.6-0.4c-0.3,0-0.5,0.2-0.6,0.4
	l-1.5,3.5l-3.8,0.3c-0.3,0-0.5,0.2-0.6,0.5s0,0.6,0.2,0.7l2.8,2.5l-0.8,3.7c-0.1,0.3,0,0.6,0.3,0.7c0.1,0.1,0.3,0.1,0.4,0.1
	c0.1,0,0.2,0,0.4-0.1l3.2-1.9l3.2,1.9c0.2,0.1,0.5,0.1,0.8,0c0.2-0.2,0.3-0.4,0.3-0.7l-0.8-3.7l2.8-2.5
	C13.8,168.3,13.9,168,13.8,167.7z"/>
<path class="st1" d="M30.8,185.7c-0.1-0.3-0.3-0.5-0.6-0.5l-3.8-0.3l-1.5-3.5c-0.1-0.3-0.4-0.4-0.6-0.4s-0.5,0.2-0.6,0.4l-1.5,3.5
	l-3.8,0.3c-0.3,0-0.5,0.2-0.6,0.5c-0.1,0.3,0,0.6,0.2,0.7l2.8,2.5l-0.8,3.7c-0.1,0.3,0,0.6,0.3,0.7c0.1,0.1,0.3,0.1,0.4,0.1
	c0.1,0,0.2,0,0.4-0.1l3.2-1.9l3.2,1.9c0.2,0.1,0.5,0.1,0.8,0c0.2-0.2,0.3-0.4,0.3-0.7l-0.8-3.7l2.8-2.5
	C30.9,186.2,30.9,185.9,30.8,185.7z"/>
<path class="st1" d="M47.9,185.7c-0.1-0.3-0.3-0.5-0.6-0.5l-3.8-0.3l-1.5-3.5c-0.1-0.3-0.4-0.4-0.6-0.4s-0.5,0.2-0.6,0.4l-1.5,3.5
	l-3.8,0.3c-0.3,0-0.5,0.2-0.6,0.5c-0.1,0.3,0,0.6,0.2,0.7l2.8,2.5l-0.8,3.7c-0.1,0.3,0,0.6,0.3,0.7c0.1,0.1,0.3,0.1,0.4,0.1
	c0.1,0,0.2,0,0.4-0.1l3.2-1.9l3.2,1.9c0.2,0.1,0.5,0.1,0.8,0c0.2-0.2,0.3-0.4,0.3-0.7l-0.8-3.7l2.8-2.5
	C47.9,186.2,48,185.9,47.9,185.7z"/>
<path class="st1" d="M65,185.7c-0.1-0.3-0.3-0.5-0.6-0.5l-3.8-0.3l-1.5-3.5c-0.1-0.3-0.4-0.4-0.6-0.4s-0.5,0.2-0.6,0.4l-1.5,3.5
	l-3.8,0.3c-0.3,0-0.5,0.2-0.6,0.5c-0.1,0.3,0,0.6,0.2,0.7l2.8,2.5l-0.8,3.7c-0.1,0.3,0,0.6,0.3,0.7c0.1,0.1,0.3,0.1,0.4,0.1
	c0.1,0,0.2,0,0.4-0.1l3.2-1.9l3.2,1.9c0.2,0.1,0.5,0.1,0.8,0c0.2-0.2,0.3-0.4,0.3-0.7l-0.8-3.7l2.8-2.5C65,186.2,65,185.9,65,185.7z
	"/>
<path class="st1" d="M82,185.7c-0.1-0.3-0.3-0.5-0.6-0.5l-3.8-0.3l-1.5-3.5c-0.1-0.3-0.4-0.4-0.6-0.4s-0.5,0.2-0.6,0.4l-1.5,3.5
	l-3.8,0.3c-0.3,0-0.5,0.2-0.6,0.5c-0.1,0.3,0,0.6,0.2,0.7l2.8,2.5l-0.8,3.7c-0.1,0.3,0,0.6,0.3,0.7c0.1,0.1,0.3,0.1,0.4,0.1
	c0.1,0,0.2,0,0.4-0.1l3.2-1.9l3.2,1.9c0.2,0.1,0.5,0.1,0.8,0c0.2-0.2,0.3-0.4,0.3-0.7l-0.8-3.7l2.8-2.5
	C82,186.2,82.1,185.9,82,185.7z"/>
<path class="st1" d="M13.8,185.7c-0.1-0.3-0.3-0.5-0.6-0.5l-3.8-0.3L8,181.4c-0.1-0.3-0.4-0.4-0.6-0.4c-0.3,0-0.5,0.2-0.6,0.4
	l-1.5,3.5l-3.8,0.3c-0.3,0-0.5,0.2-0.6,0.5c-0.1,0.3,0,0.6,0.2,0.7l2.8,2.5l-0.8,3.7c-0.1,0.3,0,0.6,0.3,0.7
	c0.1,0.1,0.3,0.1,0.4,0.1c0.1,0,0.2,0,0.4-0.1l3.2-1.9l3.2,1.9c0.2,0.1,0.5,0.1,0.8,0c0.2-0.2,0.3-0.4,0.3-0.7l-0.8-3.7l2.8-2.5
	C13.8,186.2,13.9,185.9,13.8,185.7z"/>
<path class="st1" d="M58.5,127.2c-0.3,0-0.5,0.2-0.6,0.4l-1.5,3.5l-3.8,0.3c-0.3,0-0.5,0.2-0.6,0.5s0,0.6,0.2,0.7l2.8,2.5l-0.8,3.7
	c-0.1,0.3,0,0.6,0.3,0.7c0.1,0.1,0.3,0.1,0.4,0.1c0.1,0,0.2,0,0.4-0.1l3.2-1.9V127.2z"/>
<path class="st1" d="M41.4,91.3c-0.3,0-0.5,0.2-0.6,0.4l-1.5,3.5l-3.8,0.3c-0.3,0-0.5,0.2-0.6,0.5s0,0.6,0.2,0.7l2.8,2.5l-0.8,3.7
	c-0.1,0.3,0,0.6,0.3,0.7c0.1,0.1,0.3,0.1,0.4,0.1c0.1,0,0.2,0,0.4-0.1l3.2-1.9V91.3z"/>
<path class="st1" d="M75.5,163c-0.3,0-0.5,0.2-0.6,0.4l-1.5,3.5l-3.8,0.3c-0.3,0-0.5,0.2-0.6,0.5s0,0.6,0.2,0.7l2.8,2.5l-0.8,3.7
	c-0.1,0.3,0,0.6,0.3,0.7c0.1,0.1,0.3,0.1,0.4,0.1c0.1,0,0.2,0,0.4-0.1l3.2-1.9V163z"/>
</svg>
